<svg xmlns="http://www.w3.org/2000/svg" width="420.974" height="262.8" viewBox="0 0 420.974 262.8"><defs><style>.a{fill:#3f3d56;}.b{fill:#5d4a9d;}.c{fill:#d0cde1;}.d{fill:#ffb9b9;}.e{fill:#2f2e41;}.f{fill:#575a89;}.g{fill:#cfcce0;}</style></defs><path class="a" d="M416.857,83.571,324.224,262.8,87.9,218.031l-.466-.086-13.4-2.539L13.846,204,0,201.38l19.186-38.959,3.236-6.57,3.04-6.167.274-.56,5.093-10.343L52.358,95.07l1.081-2.2,1.5-3.044.345-.7.768-1.563L60.421,78.7,68.272,62.76l1.367-2.778,6.206-12.6L99.18,0Z"/><path class="b" d="M436.081,269.606A55.919,55.919,0,1,0,357,348.688l79.081,79.081,79.081-79.081a55.919,55.919,0,1,0-79.081-79.081Z" transform="translate(-231.754 -198.92)"/><path class="c" d="M780.222,381.344l-.554-.554,1.385-1.386-1.385-1.385.554-.554,1.939,1.939Z" transform="translate(-474.208 -229.581)"/><path class="c" d="M658.008,578.691l-.554-.554,3.294-3.294.554.554ZM664.6,572.1l-.554-.554,3.294-3.294.554.554Zm6.588-6.588-.554-.554,3.294-3.294.554.554Zm6.588-6.588-.554-.554,3.294-3.294.554.554Zm6.588-6.588-.554-.554,3.294-3.294.554.554Zm6.588-6.588-.554-.554,3.294-3.294.554.554Zm6.588-6.588-.554-.554,3.293-3.293.554.554Zm6.587-6.587-.554-.554,3.294-3.294.554.554Zm6.588-6.588-.554-.554,3.294-3.294.554.554ZM717.3,519.4l-.554-.554,3.294-3.294.554.554Zm6.588-6.588-.554-.554,3.294-3.294.554.554Z" transform="translate(-424.457 -354.465)"/><path class="c" d="M579.757,581.809l-1.939-1.939.554-.554,1.385,1.385,1.385-1.385.554.554Z" transform="translate(-351.439 -352.35)"/><path class="c" d="M524.774,578.691l-3.294-3.294.554-.554,3.294,3.294Zm-6.588-6.588-3.294-3.294.554-.554,3.294,3.294Zm-6.587-6.588-3.294-3.294.554-.554,3.294,3.294Zm-6.588-6.588-3.294-3.294.554-.554,3.294,3.294Zm-6.587-6.587-3.294-3.294.554-.554,3.294,3.294Zm-6.588-6.588-3.294-3.293.554-.554,3.294,3.293Zm-6.587-6.587-3.294-3.294.554-.554,3.294,3.294Zm-6.588-6.588-3.294-3.294.554-.554,3.294,3.294Zm-6.587-6.587L468.78,522.7l.554-.554,3.294,3.294Zm-6.588-6.588-3.294-3.294.554-.554,3.294,3.294Zm-6.587-6.588-3.294-3.294.554-.554,3.294,3.294Z" transform="translate(-301.689 -354.465)"/><path class="c" d="M381.442,381.344,379.5,379.4l1.939-1.939.554.554-1.385,1.385L382,380.79Z" transform="translate(-230.82 -229.581)"/><path class="c" d="M456.159,376.841l-.554-.554,3.294-3.294.554.554Zm6.587-6.587-.554-.554,3.294-3.294.554.554Zm6.588-6.588-.554-.554,3.294-3.294.554.554Zm6.587-6.587-.554-.554,3.294-3.294.554.554Zm6.588-6.588-.554-.554,3.294-3.294.554.554ZM489.1,343.9l-.554-.554,3.294-3.294.554.554Zm6.588-6.588-.554-.554,3.294-3.294.554.554Zm6.587-6.587-.554-.554,3.294-3.294.554.554Zm6.588-6.588-.554-.554,3.294-3.294.554.554Zm6.588-6.588-.554-.554,3.294-3.294.554.554Zm6.588-6.588-.554-.554,3.294-3.294.554.554Z" transform="translate(-301.689 -231.697)"/><path class="c" d="M581.142,181.644l-1.385-1.385-1.385,1.385-.554-.554,1.939-1.939,1.939,1.939Z" transform="translate(-351.439 -108.963)"/><path class="c" d="M726.623,376.841l-3.294-3.294.554-.554,3.294,3.294Zm-6.588-6.587-3.294-3.294.554-.554,3.294,3.294Zm-6.588-6.587-3.294-3.294.554-.554L714,363.112Zm-6.588-6.587-3.293-3.294.554-.554,3.293,3.294Zm-6.587-6.588-3.294-3.294.554-.554,3.294,3.294Zm-6.588-6.588-3.294-3.294.554-.554,3.294,3.294Zm-6.588-6.587-3.294-3.294.554-.554,3.294,3.294Zm-6.588-6.588-3.294-3.294.554-.554,3.294,3.294Zm-6.588-6.588-3.294-3.294.554-.554,3.294,3.294Zm-6.588-6.587-3.294-3.294.554-.554L667.889,317Zm-6.588-6.588-3.294-3.294.554-.554,3.294,3.294Z" transform="translate(-424.457 -231.697)"/><path class="c" d="M455.985,364.98c-1.586-.033-3.191-.134-4.77-.3l.082-.779c1.557.165,3.14.264,4.7.3Zm4.778-.1-.05-.782c1.561-.1,3.138-.267,4.687-.5l.116.775c-1.571.234-3.17.4-4.753.5Zm-14.276-.9c-1.559-.3-3.124-.67-4.651-1.1l.213-.754c1.505.425,3.048.79,4.586,1.085Zm23.723-.507-.181-.762c1.525-.362,3.052-.793,4.536-1.282l.245.745c-1.506.5-3.053.932-4.6,1.3ZM437.3,361.384c-1.485-.559-2.965-1.189-4.4-1.872l.337-.707c1.412.674,2.87,1.3,4.335,1.846Zm41.988-.9-.307-.721c1.441-.615,2.872-1.3,4.253-2.034l.368.692c-1.4.745-2.852,1.439-4.313,2.062Zm-50.6-3.213c-1.367-.8-2.717-1.675-4.013-2.592l.453-.64c1.278.905,2.609,1.765,3.957,2.557ZM487.719,356l-.425-.658c1.313-.849,2.606-1.768,3.846-2.728l.48.619C490.362,354.2,489.051,355.135,487.719,356Zm-66.828-4.243c-1.209-1.021-2.393-2.109-3.519-3.233l.554-.554c1.11,1.109,2.278,2.182,3.471,3.189Zm74.38-1.611-.53-.577c.568-.522,1.137-1.068,1.69-1.621s1.106-1.129,1.642-1.712l.577.53c-.543.591-1.1,1.175-1.665,1.736s-1.139,1.114-1.714,1.645ZM414.134,345c-1.028-1.215-2.014-2.486-2.931-3.778l.639-.454c.9,1.274,1.877,2.528,2.89,3.726Zm87.6-1.894-.62-.48c.96-1.239,1.876-2.532,2.724-3.843l.658.425C503.636,340.543,502.707,341.854,501.734,343.11Zm-93.13-5.9c-.806-1.369-1.562-2.789-2.246-4.221l.707-.338c.675,1.411,1.42,2.811,2.215,4.162Zm98.312-2.118-.692-.368c.733-1.381,1.417-2.811,2.031-4.251l.721.307c-.622,1.46-1.316,2.911-2.06,4.312Zm-102.435-6.5c-.561-1.486-1.064-3.014-1.5-4.541l.754-.213c.425,1.506.921,3.012,1.474,4.477ZM510.66,326.31l-.745-.245c.489-1.486.919-3.012,1.28-4.535l.762.181c-.366,1.545-.8,3.093-1.3,4.6ZM401.881,319.4c-.3-1.557-.538-3.148-.706-4.727l.779-.083c.166,1.558.4,3.127.7,4.662Zm110.98-2.385-.775-.115c.23-1.549.4-3.126.5-4.687l.782.05c-.1,1.583-.27,3.182-.5,4.752Zm-111.991-7.112q-.013-.612-.013-1.225c0-1.181.037-2.376.112-3.554l.782.049c-.073,1.161-.11,2.341-.11,3.5q0,.6.013,1.208Zm111.813-2.4c-.033-1.564-.133-3.146-.3-4.7l.779-.083c.168,1.58.269,3.184.3,4.77Zm-110.438-7.014-.775-.115c.233-1.57.536-3.149.9-4.694l.763.18C402.772,297.384,402.473,298.941,402.244,300.489Zm109.446-2.352c-.3-1.538-.661-3.081-1.086-4.587l.754-.213c.431,1.527.8,3.092,1.1,4.651Zm-107.28-6.812-.745-.244c.5-1.509,1.061-3.014,1.682-4.473l.721.307C405.455,288.353,404.9,289.837,404.409,291.325Zm104.722-2.253c-.552-1.465-1.174-2.924-1.849-4.336l.707-.338c.684,1.432,1.315,2.912,1.875,4.4ZM408.1,282.662l-.692-.367c.743-1.4,1.557-2.787,2.418-4.121l.658.425C409.631,279.914,408.829,281.282,408.1,282.662Zm96.974-2.089c-.793-1.349-1.654-2.681-2.56-3.959l.639-.453c.919,1.3,1.792,2.647,2.6,4.015ZM413.2,274.755l-.62-.479c.969-1.252,2.006-2.481,3.082-3.653l.577.53C415.18,272.307,414.158,273.52,413.2,274.755Zm86.42-1.868c-1.009-1.194-2.082-2.361-3.191-3.469l-.041-.041.55-.558.052.053c1.116,1.116,2.2,2.3,3.228,3.51Zm-80.05-5.07-.531-.576c1.17-1.078,2.4-2.118,3.65-3.09l.481.619C421.937,265.727,420.726,266.753,419.572,267.816Zm73.344-1.629c-1.2-1.01-2.451-1.979-3.726-2.881l.452-.64c1.293.915,2.565,1.9,3.779,2.922Zm-65.9-4.148-.426-.658c1.331-.863,2.718-1.679,4.12-2.426l.368.692C429.7,260.384,428.328,261.189,427.016,262.039Zm58.216-1.287c-1.349-.792-2.75-1.534-4.162-2.207l.337-.707c1.432.683,2.852,1.436,4.221,2.239Zm-49.9-3.14-.308-.72c1.459-.623,2.964-1.191,4.473-1.689l.245.744C438.252,256.437,436.768,257,435.33,257.612Zm41.4-.911c-1.464-.55-2.971-1.044-4.478-1.468l.212-.754c1.528.43,3.056.931,4.541,1.489Zm-32.458-2.038-.181-.762c1.544-.367,3.123-.672,4.693-.907l.116.775c-1.549.232-3.106.533-4.628.895Zm23.394-.513c-1.537-.294-3.106-.527-4.662-.69l.082-.779c1.578.166,3.169.4,4.728.7Zm-14.079-.882-.05-.782c1.585-.1,3.19-.137,4.778-.1l-.016.784c-1.567-.032-3.15,0-4.712.1Z" transform="translate(-268.39 -198.398)"/><path class="c" d="M657.835,364.979c-1.586-.033-3.191-.134-4.77-.3l.083-.779c1.557.165,3.14.264,4.7.3Zm4.779-.1-.05-.782c1.561-.1,3.138-.267,4.687-.5l.116.775c-1.571.234-3.17.4-4.753.5Zm-14.276-.9c-1.56-.3-3.125-.67-4.651-1.1l.213-.754c1.5.425,3.048.79,4.586,1.085Zm23.722-.507-.181-.762c1.525-.362,3.052-.793,4.536-1.282l.245.745c-1.505.5-3.053.932-4.6,1.3Zm-32.914-2.085c-1.484-.559-2.964-1.189-4.4-1.872l.338-.707c1.412.674,2.871,1.3,4.335,1.846Zm41.988-.9-.308-.721c1.441-.614,2.872-1.3,4.253-2.034l.368.692c-1.4.745-2.852,1.439-4.313,2.062Zm-50.6-3.213c-1.367-.8-2.717-1.675-4.012-2.592l.453-.64c1.277.9,2.608,1.765,3.956,2.557ZM689.569,356l-.425-.658c1.312-.849,2.606-1.766,3.846-2.728l.48.619c-1.257.975-2.57,1.906-3.9,2.766Zm-66.828-4.243c-1.208-1.02-2.392-2.107-3.519-3.233l.554-.555c1.112,1.11,2.28,2.183,3.471,3.189Zm74.381-1.611-.53-.577c.568-.522,1.137-1.068,1.69-1.621s1.11-1.134,1.642-1.712l.577.53c-.539.587-1.1,1.17-1.665,1.736s-1.138,1.114-1.714,1.645ZM615.985,345c-1.028-1.215-2.014-2.486-2.931-3.778l.639-.454c.9,1.274,1.877,2.528,2.891,3.726Zm87.6-1.894-.62-.48c.96-1.239,1.876-2.532,2.724-3.843l.658.425c-.86,1.33-1.789,2.641-2.762,3.9Zm-93.13-5.9c-.8-1.368-1.56-2.788-2.246-4.221l.707-.338c.676,1.413,1.421,2.813,2.215,4.162Zm98.312-2.118-.692-.368c.733-1.381,1.417-2.811,2.031-4.251l.721.307C710.2,332.243,709.51,333.693,708.766,335.094Zm-102.435-6.5c-.56-1.485-1.064-3.012-1.5-4.541l.754-.213c.426,1.507.922,3.013,1.475,4.477ZM712.51,326.31l-.745-.245c.489-1.486.919-3.012,1.28-4.535l.762.181c-.366,1.545-.8,3.092-1.3,4.6ZM603.731,319.4c-.3-1.556-.538-3.147-.707-4.727l.779-.083c.166,1.559.4,3.127.7,4.662Zm110.98-2.385-.775-.115c.23-1.549.4-3.126.5-4.687l.782.05c-.1,1.583-.27,3.182-.5,4.752ZM602.72,309.905q-.013-.612-.013-1.225c0-1.179.038-2.374.112-3.554l.782.049c-.073,1.163-.11,2.342-.11,3.5q0,.6.013,1.208Zm111.812-2.4c-.033-1.568-.134-3.151-.3-4.7l.779-.083c.167,1.575.269,3.18.3,4.77Zm-110.438-7.014-.775-.115c.233-1.572.536-3.151.9-4.694l.763.18C604.624,297.382,604.325,298.939,604.095,300.489Zm109.446-2.352c-.3-1.538-.661-3.081-1.086-4.587l.754-.213c.431,1.527.8,3.092,1.1,4.651ZM606.26,291.324l-.745-.244c.5-1.51,1.061-3.015,1.682-4.473l.721.307C607.306,288.352,606.748,289.836,606.26,291.324Zm104.722-2.253c-.551-1.464-1.173-2.923-1.848-4.336l.707-.338c.685,1.433,1.316,2.913,1.874,4.4Zm-101.035-6.41-.693-.367c.743-1.4,1.557-2.787,2.418-4.121l.658.425C611.482,279.914,610.68,281.28,609.947,282.661Zm96.974-2.089c-.793-1.35-1.655-2.682-2.56-3.959l.639-.453c.918,1.295,1.792,2.646,2.6,4.015Zm-91.868-5.819-.62-.479c.97-1.254,2.007-2.483,3.082-3.653l.577.53c-1.06,1.154-2.083,2.366-3.039,3.6Zm86.42-1.868c-1.009-1.194-2.083-2.361-3.191-3.469l-.042-.042.55-.558.046.045c1.123,1.123,2.212,2.307,3.235,3.517Zm-80.05-5.07-.531-.576c1.17-1.078,2.4-2.117,3.65-3.09l.481.619C623.787,265.728,622.576,266.753,621.422,267.816Zm73.344-1.629c-1.2-1.01-2.451-1.979-3.726-2.881l.452-.64c1.293.915,2.565,1.9,3.779,2.922Zm-65.9-4.148-.426-.658c1.333-.863,2.719-1.679,4.121-2.426l.368.692c-1.382.736-2.749,1.541-4.062,2.392Zm58.216-1.287c-1.348-.791-2.748-1.533-4.162-2.207l.337-.707c1.434.684,2.854,1.437,4.221,2.239Zm-49.9-3.14-.308-.72c1.459-.623,2.964-1.192,4.472-1.689l.246.744c-1.488.49-2.972,1.051-4.411,1.665Zm41.4-.911c-1.463-.55-2.97-1.044-4.478-1.468l.212-.754c1.53.43,3.057.931,4.541,1.489Zm-32.458-2.038-.181-.762c1.545-.367,3.124-.672,4.693-.907l.116.775c-1.547.232-3.1.532-4.628.894Zm23.393-.513c-1.537-.295-3.106-.527-4.662-.69l.082-.779c1.578.166,3.169.4,4.728.7Zm-14.078-.882-.051-.782c1.585-.1,3.192-.138,4.779-.1l-.016.784c-1.566-.033-3.15,0-4.713.1Z" transform="translate(-391.159 -198.398)"/><rect class="c" width="2.351" height="0.784" transform="translate(35.332 228.678)"/><path class="c" d="M542.466,699.079h-4.7v-.784h4.7Zm-9.406,0h-4.7v-.784h4.7Zm-9.406,0h-4.7v-.784h4.7Zm-9.406,0h-4.7v-.784h4.7Zm-9.406,0h-4.7v-.784h4.7Zm-9.406,0h-4.7v-.784h4.7Zm-9.406,0h-4.7v-.784h4.7Zm-9.406,0h-4.7v-.784h4.7Zm-9.406,0h-4.7v-.784h4.7Zm-9.406,0h-4.7v-.784h4.7Zm-9.406,0h-4.7v-.784h4.7Zm-9.406,0h-4.7v-.784H439Zm-9.406,0h-4.7v-.784h4.7Zm-9.406,0h-4.7v-.784h4.7Zm-9.406,0h-4.7v-.784h4.7Zm-9.406,0h-4.7v-.784h4.7Zm-9.406,0h-4.7v-.784h4.7Zm-9.406,0h-4.7v-.784h4.7Zm-9.406,0h-4.7v-.784h4.7Zm-9.406,0h-4.7v-.784h4.7Zm-9.406,0h-4.7v-.784h4.7Zm-9.406,0h-4.7v-.784h4.7Zm-9.406,0h-4.7v-.784h4.7Zm-9.406,0h-4.7v-.784h4.7Zm-9.406,0h-4.7v-.784h4.7Zm-9.406,0h-4.7v-.784h4.7Zm-9.406,0h-4.7v-.784h4.7Zm-9.406,0h-4.7v-.784h4.7Zm-9.406,0h-4.7v-.784h4.7Zm-9.406,0h-4.7v-.784h4.7Zm-9.406,0h-4.7v-.784h4.7Zm-9.406,0h-4.7v-.784h4.7Zm-9.406,0h-4.7v-.784h4.7Zm-9.406,0h-4.7v-.784h4.7Zm-9.406,0h-4.7v-.784h4.7Zm-9.406,0h-4.7v-.784h4.7Zm-9.406,0h-4.7v-.784h4.7Zm-9.406,0h-4.7v-.784h4.7Zm-9.406,0h-4.7v-.784h4.7Zm-9.406,0h-4.7v-.784h4.7Z" transform="translate(-128.546 -469.617)"/><rect class="c" width="2.351" height="0.784" transform="translate(418.624 228.678)"/><path class="d" d="M202.316,551.16l.059-.18,1.124-3.42-14.519.882Z" transform="translate(-114.941 -333.036)"/><path class="d" d="M243.741,493.877l8.823,22.459s-.8,19.251,9.625,17.647-1.6-20.855-1.6-20.855l-6.417-23.261S246.147,488.262,243.741,493.877Z" transform="translate(-172.83 -342.718)"/><circle class="d" cx="14.438" cy="14.438" r="14.438" transform="translate(41.634 50.492)"/><path class="d" d="M165.329,291.6s-4.813,16.042-8.021,16.042,21.657,9.625,21.657,9.625-6.417-6.417,0-18.449Z" transform="translate(-120.086 -222.26)"/><path class="e" d="M171.614,544.985l.525-.094c4.216-.76,6.9-1.657,7.076-2.7.333-2-2.527-12.474-5.979-24.02-3.871-12.933-8.482-27.213-10.19-32.459-.431-1.328-.678-2.076-.678-2.076l-1.544-9.657-1.665-10.394-39.3,10.429-5.614,9.622-1.195,3.487v0l-1.759,5.144L107.82,502.4l-9.736,28.459,60.193,11.4Z" transform="translate(-84.238 -326.86)"/><path class="f" d="M139.362,326.655s11.123,2.953,14.385,6.289l5.668,3.336,7.219,15.24s5.615,2.406,5.615,12.834,8.021,28.074,8.021,28.074,5.615,4.813,1.6,7.219a19.327,19.327,0,0,1-8.823,2.406s4.011-15.24-4.011-16.042-12.032-1.6-12.834,0-22.459,24.866-31.283,22.459S120.913,382,120.913,382l7.219-56.148s5.615-.8,8.823,0S139.362,326.655,139.362,326.655Z" transform="translate(-97.327 -242.875)"/><circle class="g" cx="2.425" cy="2.425" r="2.425" transform="translate(50.023 193.895)"/><path class="g" d="M151,592.969l2.416,2.143,23.556,7.531.353-.636-13.667-7.588a4.365,4.365,0,1,1,.942-1.7l13.667,7.588.353-.636-18.848-16.011-3.011-1.071.844-1.52-2.12-1.177-1.648,2.968-12.509-6.945-4.238,7.633L149.6,590.5l-1.648,2.968,2.12,1.177Z" transform="translate(-107.963 -395.186)"/><path class="d" d="M100.426,493.877l8.823,22.459s-.8,19.251,9.625,17.647-1.6-20.855-1.6-20.855l-6.417-23.261S102.832,488.262,100.426,493.877Z" transform="translate(-85.663 -342.718)"/><path class="f" d="M104.535,324.519l-1.6-.8s-4.813-4.813-10.428,1.6-11.23,40.106-11.23,40.106v10.428s-6.417,8.823-.8,13.636,6.417,5.615,6.417,5.615,5.615-8.021,12.032-4.011l.8-3.208a9.926,9.926,0,0,0,1.6-2.406c.8-1.6,2.406.8,1.6-1.6s0-3.208,0-4.011.8-4.813.8-4.813l-.8-24.866Z" transform="translate(-72.125 -240.739)"/><path class="e" d="M148.03,228.664s11.729-25.573-18.925-25.545c0,0-18.807-9.88-33.128,13.032L81.2,240.241l3.776-.751.479,3.759,4.818,2.956,3.624-3.745-.6,5.733,41.514,17.63s-15.651-17.332-9.614-37.766l2.451,5Z" transform="translate(-73.968 -167.154)"/><ellipse class="d" cx="2.027" cy="4.053" rx="2.027" ry="4.053" transform="translate(46.761 64.968)"/></svg>