<svg xmlns="http://www.w3.org/2000/svg" width="232" height="176" viewBox="0 0 232 176"><defs><style>.a{fill:#e6e6e6;}.b{fill:#6c63ff;}.c{fill:#ffb8b8;}.d{opacity:0.1;}.e{fill:#2f2e41;}.f{fill:#d0cde1;}.g{fill:#3f3d56;}.h{fill:#f2f2f2;}.i{fill:#fff;}</style></defs><g transform="translate(0 0)"><path class="a" d="M386.945,165.231c1.745,2.327,3.627,4.991,5.485,7.893l.265-13.389.146.094a26.132,26.132,0,0,0-6.464-3.455l.146.081Z" transform="translate(-328.059 -147.514)"/><path class="a" d="M366.416,153.808a13.766,13.766,0,0,0-6.837-.708c-.11.02-.219.042-.327.065.539.579,3.682,4,7.572,9.144Z" transform="translate(-308.243 -144.999)"/><path class="a" d="M437.781,230.78q.429,1.025.816,2.035l4.911-14.5.141.135q-.87-1.636-1.844-3.181l-3.957,15.571Z" transform="translate(-365.607 -190.534)"/><path class="a" d="M414.555,191.3l2.566-15.2.146.117a41.078,41.078,0,0,0-7.085-6.621l-.27,13.644Q412.505,187.333,414.555,191.3Z" transform="translate(-345.249 -157.172)"/><path class="a" d="M330.217,209.718l-.06-.186a34.3,34.3,0,0,0,1.355,6.78l23.6,2.434c-1.232-2.272-2.5-4.4-3.738-6.346Z" transform="translate(-286.991 -186.345)"/><path class="a" d="M335.455,235.559l-.062-.185q.358,1.168.8,2.361l-.064-.185,23.883,2.123q-.433-.847-.875-1.671Z" transform="translate(-290.815 -205.221)"/><path class="a" d="M430.515,215.405l3.924-15.441.144.127a49.07,49.07,0,0,0-3.916-5.329l-2.6,15.408Q429.418,212.825,430.515,215.405Z" transform="translate(-358.51 -175.555)"/><path class="a" d="M377.869,277.183l-23.242-2.238a47.462,47.462,0,0,0,4.12,4.836l-.058-.206,21.245,4.371A59.011,59.011,0,0,0,377.869,277.183Z" transform="translate(-304.866 -234.127)"/><path class="a" d="M340.551,154.025l.055-.117a9.309,9.309,0,0,0-6.692,6.046l14.217,3.212C343.921,157.6,340.6,154.075,340.551,154.025Z" transform="translate(-289.735 -145.712)"/><path class="a" d="M441.773,243.171a58.63,58.63,0,0,1,1.858,6.1l5.535-13.881.135.136a23.24,23.24,0,0,0-1.767-5.593q-.49-1.048-1.025-2.065l-4.97,14.673C441.617,242.752,441.7,242.962,441.773,243.171Z" transform="translate(-368.352 -199.739)"/><path class="a" d="M350.831,188.194c-1.839-2.868-3.7-5.5-5.425-7.8l-14.544-3.286-.049-.184a19.784,19.784,0,0,0-.965,8.609Z" transform="translate(-286.697 -162.525)"/><path class="a" d="M342.658,252.559l23.374,2.251,0-.014a79.622,79.622,0,0,0-3.467-7.839l-23.942-2.128q.61,1.615,1.378,3.264A28.534,28.534,0,0,0,342.658,252.559Z" transform="translate(-293.179 -212.128)"/><path class="a" d="M539.476,272.393l.053.165a26.134,26.134,0,0,0-2.775-6.785l.061.156-5.273,7.028c-.14,2.906-.389,6.157-.81,9.578Z" transform="translate(-433.506 -227.427)"/><path class="a" d="M538.932,251.552a13.767,13.767,0,0,0-4.814-4.906c-.1-.055-.2-.107-.294-.158.046.79.287,5.425,0,11.872Z" transform="translate(-435.764 -213.339)"/><path class="a" d="M516.581,362.822q-.323,1.063-.669,2.088l13.031-8.036.023.194q.374-1.815.609-3.627l-12.979,9.468Z" transform="translate(-422.679 -291.467)"/><path class="a" d="M524.671,311.115l11.673-10.072.038.183a41.082,41.082,0,0,0-1.234-9.618l-8.911,10.336Q525.624,306.749,524.671,311.115Z" transform="translate(-429.078 -246.298)"/><path class="a" d="M532.13,328.084,520.3,338.292q-.652,2.907-1.452,5.594l12.871-9.39.03.189A49.048,49.048,0,0,0,532.13,328.084Z" transform="translate(-424.824 -272.944)"/><path class="a" d="M391.517,311.044q.016-.239.03-.491a40.828,40.828,0,0,0,5.356-8.211l-7.145-8.9q-.14-.456-.294-.909l7.605,9.478a59,59,0,0,0,2.723-6.526l-15.042-15.11c.047-.119.095-.24.143-.364L399.914,295.1l.013-.008a79.643,79.643,0,0,0,2.33-8.249l-14.918-14.767q.047-.206.093-.413l14.919,14.768q.207-.928.391-1.845l-14.874-15.146q.037-.217.073-.435l14.886,15.158c.5-2.535.88-4.988,1.168-7.272l-14.583-15.559.072-.181c-.345.5-.681,1.031-1.008,1.578a30.068,30.068,0,0,0-.42-5.161l-5.588,14.014a45.118,45.118,0,0,1,.968,5.867c-.034.334-.064.67-.089,1.009l.184.184q.017.27.031.539l-.244-.245c-.012.2-.02.395-.029.593a42.483,42.483,0,0,0-1.091-7.911l-21.09-4.339c1.062,1.091,2.176,2.15,3.314,3.172a25.779,25.779,0,0,0-6.814-1.164l.164.032,3.113,8.216c2.379,1.674,4.992,3.625,7.657,5.811l-3.832-12.638.427.377,3.823,12.606q3.732,3.091,6.909,6.232l-1.757-11.863.368.255,1.776,11.992q2.107,2.107,3.948,4.222l-.851-13.006.356.222.86,13.144-.082-.035q.725.842,1.405,1.683l.165-13.373.351.2-.168,13.6c.139.175.28.35.417.525a58.614,58.614,0,0,1,3.653,5.229l.079-1.217q.147.541.294,1.064l-.045.692c.164.272.322.544.479.816q.183.622.362,1.209-.52-.963-1.086-1.907L365,305.773c11.251,5.918,25.212,8.724,26.1,8.9-.211-.933-.468-1.859-.763-2.775.077-.08.153-.162.229-.243.036.109.074.219.109.328l-.119.128.138-.065q.308.967.553,1.927c.065-.52.152-1.31.228-2.309,3.854-1.929,13.834-7.567,18.9-16.406l-13.242,7.229a41.232,41.232,0,0,1-5.615,8.558Zm-4.388-20.88.033-.5.336.419-.033.5Z" transform="translate(-307.044 -221.431)"/><path class="a" d="M508.829,243.636l.117-.055a9.309,9.309,0,0,0-9.01.388l8.9,11.542C509.147,248.536,508.833,243.705,508.829,243.636Z" transform="translate(-411.01 -210.497)"/><path class="a" d="M507.748,376.546a58.632,58.632,0,0,1-2.461,5.885L518.4,375.27l.018.191a23.239,23.239,0,0,0,2.207-5.435q.291-1.12.527-2.244l-13.186,8.132C507.9,376.124,507.823,376.337,507.748,376.546Z" transform="translate(-414.919 -301.941)"/><path class="a" d="M491.513,259.971l-9.105-11.807.079-.173a19.783,19.783,0,0,0-6.234,6.015l14.464,15.432C491.13,266.057,491.374,262.843,491.513,259.971Z" transform="translate(-393.71 -214.438)"/><path class="a" d="M338.027,301.028a13.766,13.766,0,0,0-6.721,1.44c-.1.053-.2.108-.291.163.692.383,4.736,2.661,10.027,6.356Z" transform="translate(-287.617 -253.178)"/><path class="a" d="M341.636,354.768l-20.948,3.988-.114-.158a34.3,34.3,0,0,0,3.384,6.029l23.195-4.979C345.279,357.868,343.41,356.234,341.636,354.768Z" transform="translate(-279.99 -292.436)"/><path class="a" d="M358.285,375.3q-.673-.671-1.349-1.318l-23.28,5-.117-.157q.7,1,1.493,2l-.118-.156Z" transform="translate(-289.462 -306.467)"/><path class="a" d="M390.913,410.661a59.005,59.005,0,0,0-4.055-5.793l-22.8,5.055a47.46,47.46,0,0,0,5.413,3.326l-.118-.178Z" transform="translate(-311.758 -329.032)"/><path class="a" d="M318.365,307.37l.016-.129a9.309,9.309,0,0,0-4.5,7.818L328.4,313.72C322.674,309.724,318.426,307.4,318.365,307.37Z" transform="translate(-275.105 -257.718)"/><path class="a" d="M328.753,332.386l-14.847,1.37-.1-.159a19.783,19.783,0,0,0,1.743,8.486l20.778-3.955C333.688,335.967,331.1,334.04,328.753,332.386Z" transform="translate(-275.032 -276.086)"/><path class="a" d="M368.687,386.364a79.614,79.614,0,0,0-5.72-6.384l-23.428,5.376q1.079,1.347,2.32,2.678a28.538,28.538,0,0,0,3.9,3.428l22.926-5.084Z" transform="translate(-293.845 -310.852)"/><path class="b" d="M386.945,165.231c1.745,2.327,3.627,4.991,5.485,7.893l.265-13.389.146.094a26.132,26.132,0,0,0-6.464-3.455l.146.081Z" transform="translate(-328.059 -147.514)"/><path class="b" d="M366.416,153.808a13.766,13.766,0,0,0-6.837-.708c-.11.02-.219.042-.327.065.539.579,3.682,4,7.572,9.144Z" transform="translate(-308.243 -144.999)"/><path class="b" d="M437.781,230.78q.429,1.025.816,2.035l4.911-14.5.141.135q-.87-1.636-1.844-3.181l-3.957,15.571Z" transform="translate(-365.607 -190.534)"/><path class="b" d="M414.555,191.3l2.566-15.2.146.117a41.078,41.078,0,0,0-7.085-6.621l-.27,13.644Q412.505,187.333,414.555,191.3Z" transform="translate(-345.249 -157.172)"/><path class="b" d="M330.217,209.718l-.06-.186a34.3,34.3,0,0,0,1.355,6.78l23.6,2.434c-1.232-2.272-2.5-4.4-3.738-6.346Z" transform="translate(-286.991 -186.345)"/><path class="b" d="M335.455,235.559l-.062-.185q.358,1.168.8,2.361l-.064-.185,23.883,2.123q-.433-.847-.875-1.671Z" transform="translate(-290.815 -205.221)"/><path class="b" d="M430.515,215.405l3.924-15.441.144.127a49.07,49.07,0,0,0-3.916-5.329l-2.6,15.408Q429.418,212.825,430.515,215.405Z" transform="translate(-358.51 -175.555)"/><path class="b" d="M377.869,277.183l-23.242-2.238a47.462,47.462,0,0,0,4.12,4.836l-.058-.206,21.245,4.371A59.011,59.011,0,0,0,377.869,277.183Z" transform="translate(-304.866 -234.127)"/><path class="b" d="M340.551,154.025l.055-.117a9.309,9.309,0,0,0-6.692,6.046l14.217,3.212C343.921,157.6,340.6,154.075,340.551,154.025Z" transform="translate(-289.735 -145.712)"/><path class="b" d="M441.773,243.171a58.63,58.63,0,0,1,1.858,6.1l5.535-13.881.135.136a23.24,23.24,0,0,0-1.767-5.593q-.49-1.048-1.025-2.065l-4.97,14.673C441.617,242.752,441.7,242.962,441.773,243.171Z" transform="translate(-368.352 -199.739)"/><path class="b" d="M350.831,188.194c-1.839-2.868-3.7-5.5-5.425-7.8l-14.544-3.286-.049-.184a19.784,19.784,0,0,0-.965,8.609Z" transform="translate(-286.697 -162.525)"/><path class="b" d="M342.658,252.559l23.374,2.251,0-.014a79.622,79.622,0,0,0-3.467-7.839l-23.942-2.128q.61,1.615,1.378,3.264A28.534,28.534,0,0,0,342.658,252.559Z" transform="translate(-293.179 -212.128)"/><path class="b" d="M539.476,272.393l.053.165a26.134,26.134,0,0,0-2.775-6.785l.061.156-5.273,7.028c-.14,2.906-.389,6.157-.81,9.578Z" transform="translate(-433.506 -227.427)"/><path class="b" d="M538.932,251.552a13.767,13.767,0,0,0-4.814-4.906c-.1-.055-.2-.107-.294-.158.046.79.287,5.425,0,11.872Z" transform="translate(-435.764 -213.339)"/><path class="b" d="M516.581,362.822q-.323,1.063-.669,2.088l13.031-8.036.023.194q.374-1.815.609-3.627l-12.979,9.468Z" transform="translate(-422.679 -291.467)"/><path class="b" d="M524.671,311.115l11.673-10.072.038.183a41.082,41.082,0,0,0-1.234-9.618l-8.911,10.336Q525.624,306.749,524.671,311.115Z" transform="translate(-429.078 -246.298)"/><path class="b" d="M532.13,328.084,520.3,338.292q-.652,2.907-1.452,5.594l12.871-9.39.03.189A49.048,49.048,0,0,0,532.13,328.084Z" transform="translate(-424.824 -272.944)"/><path class="b" d="M391.517,311.044q.016-.239.03-.491a40.828,40.828,0,0,0,5.356-8.211l-7.145-8.9q-.14-.456-.294-.909l7.605,9.478a59,59,0,0,0,2.723-6.526l-15.042-15.11c.047-.119.095-.24.143-.364L399.914,295.1l.013-.008a79.643,79.643,0,0,0,2.33-8.249l-14.918-14.767q.047-.206.093-.413l14.919,14.768q.207-.928.391-1.845l-14.874-15.146q.037-.217.073-.435l14.886,15.158c.5-2.535.88-4.988,1.168-7.272l-14.583-15.559.072-.181c-.345.5-.681,1.031-1.008,1.578a30.068,30.068,0,0,0-.42-5.161l-5.588,14.014a45.118,45.118,0,0,1,.968,5.867c-.034.334-.064.67-.089,1.009l.184.184q.017.27.031.539l-.244-.245c-.012.2-.02.395-.029.593a42.483,42.483,0,0,0-1.091-7.911l-21.09-4.339c1.062,1.091,2.176,2.15,3.314,3.172a25.779,25.779,0,0,0-6.814-1.164l.164.032,3.113,8.216c2.379,1.674,4.992,3.625,7.657,5.811l-3.832-12.638.427.377,3.823,12.606q3.732,3.091,6.909,6.232l-1.757-11.863.368.255,1.776,11.992q2.107,2.107,3.948,4.222l-.851-13.006.356.222.86,13.144-.082-.035q.725.842,1.405,1.683l.165-13.373.351.2-.168,13.6c.139.175.28.35.417.525a58.614,58.614,0,0,1,3.653,5.229l.079-1.217q.147.541.294,1.064l-.045.692c.164.272.322.544.479.816q.183.622.362,1.209-.52-.963-1.086-1.907L365,305.773c11.251,5.918,25.212,8.724,26.1,8.9-.211-.933-.468-1.859-.763-2.775.077-.08.153-.162.229-.243.036.109.074.219.109.328l-.119.128.138-.065q.308.967.553,1.927c.065-.52.152-1.31.228-2.309,3.854-1.929,13.834-7.567,18.9-16.406l-13.242,7.229a41.232,41.232,0,0,1-5.615,8.558Zm-4.388-20.88.033-.5.336.419-.033.5Z" transform="translate(-307.044 -221.431)"/><path class="b" d="M508.829,243.636l.117-.055a9.309,9.309,0,0,0-9.01.388l8.9,11.542C509.147,248.536,508.833,243.705,508.829,243.636Z" transform="translate(-411.01 -210.497)"/><path class="b" d="M507.748,376.546a58.632,58.632,0,0,1-2.461,5.885L518.4,375.27l.018.191a23.239,23.239,0,0,0,2.207-5.435q.291-1.12.527-2.244l-13.186,8.132C507.9,376.124,507.823,376.337,507.748,376.546Z" transform="translate(-414.919 -301.941)"/><path class="b" d="M491.513,259.971l-9.105-11.807.079-.173a19.783,19.783,0,0,0-6.234,6.015l14.464,15.432C491.13,266.057,491.374,262.843,491.513,259.971Z" transform="translate(-393.71 -214.438)"/><path class="b" d="M338.027,301.028a13.766,13.766,0,0,0-6.721,1.44c-.1.053-.2.108-.291.163.692.383,4.736,2.661,10.027,6.356Z" transform="translate(-287.617 -253.178)"/><path class="b" d="M341.636,354.768l-20.948,3.988-.114-.158a34.3,34.3,0,0,0,3.384,6.029l23.195-4.979C345.279,357.868,343.41,356.234,341.636,354.768Z" transform="translate(-279.99 -292.436)"/><path class="b" d="M358.285,375.3q-.673-.671-1.349-1.318l-23.28,5-.117-.157q.7,1,1.493,2l-.118-.156Z" transform="translate(-289.462 -306.467)"/><path class="b" d="M390.913,410.661a59.005,59.005,0,0,0-4.055-5.793l-22.8,5.055a47.46,47.46,0,0,0,5.413,3.326l-.118-.178Z" transform="translate(-311.758 -329.032)"/><path class="b" d="M318.365,307.37l.016-.129a9.309,9.309,0,0,0-4.5,7.818L328.4,313.72C322.674,309.724,318.426,307.4,318.365,307.37Z" transform="translate(-275.105 -257.718)"/><path class="b" d="M328.753,332.386l-14.847,1.37-.1-.159a19.783,19.783,0,0,0,1.743,8.486l20.778-3.955C333.688,335.967,331.1,334.04,328.753,332.386Z" transform="translate(-275.032 -276.086)"/><path class="b" d="M368.687,386.364a79.614,79.614,0,0,0-5.72-6.384l-23.428,5.376q1.079,1.347,2.32,2.678a28.538,28.538,0,0,0,3.9,3.428l22.926-5.084Z" transform="translate(-293.845 -310.852)"/><path class="c" d="M897.762,175.623s-3.434,9.775-1.321,11.278-7.133,13.785-7.133,13.785l-11.1-3.008,6.076-10.276s.793-10.276.793-11.78S897.762,175.623,897.762,175.623Z" transform="translate(-687.331 -161.086)"/><path class="d" d="M897.762,175.623s-3.434,9.775-1.321,11.278-7.133,13.785-7.133,13.785l-11.1-3.008,6.076-10.276s.793-10.276.793-11.78S897.762,175.623,897.762,175.623Z" transform="translate(-687.331 -161.086)"/><path class="e" d="M858.827,415.911s1,12.532,0,19.048-2.506,24.562-2.506,24.562,0,34.086-5.514,34.587-9.524,1-10.025-1,2.506-3.008,1-4.01-2.005-4.511,0-8.521,0-44.613,0-44.613l-9.524,25.565s-1,21.053-2.005,24.061,1,8.521-2.506,9.023-7.519-2.506-9.524-3.509,3.008-1,2.005-1.5-4.01-2.005-3.008-2.506,2.005-24.562,2.005-24.562,2.757-51.38,6.266-53.385,5.765,1.449,5.765,1.449Z" transform="translate(-642.632 -331.698)"/><path class="e" d="M916.919,719.638v4.01s4.511,10.9,0,10.9-8.02,1.13-8.02-.374V720.641Z" transform="translate(-709.747 -558.964)"/><path class="e" d="M823.494,718.612v4.01s-4.511,10.9,0,10.9,8.02,1.13,8.02-.374V719.614Z" transform="translate(-645.896 -558.214)"/><circle class="c" cx="9.023" cy="9.023" r="9.023" transform="translate(194.39 3.759)"/><path class="f" d="M887.387,233.229s-2.506,7.519-6.516,6.015l-4.01-1.5-7.018,48.121s5.514,8.02,13.534,3.008S887.387,233.229,887.387,233.229Z" transform="translate(-681.218 -203.654)"/><path class="f" d="M855.916,214.743l-2.256-4.762s-13.284,6.266-15.289,8.271a7.828,7.828,0,0,0-2.005,5.013l3.509,12.532s-1,27.569-1,28.572-3.509,6.516-1,4.511,3.008-4.01,5.013-1,6.516,6.516,6.516,6.516Z" transform="translate(-656.764 -186.672)"/><path class="c" d="M824.786,361.555l1.5,14.035s9.023,8.02,7.018,8.521a2.774,2.774,0,0,1-3.008-1.5s-3.509,3.509-5.514,1.5-7.018-21.053-7.018-21.053Z" transform="translate(-643.179 -297.393)"/><path class="e" d="M895.91,123.53c2-.071,4.141-.107,5.827.971a8.53,8.53,0,0,1,2.014,1.971c1.643,2.076,3.062,4.689,2.452,7.265l-.709-.276a4.639,4.639,0,0,0,.448,1.988c-.1-.29-.434.179-.344.473l.781,2.561a2.411,2.411,0,0,0-3.075,1.835c-.089-2.975-.4-6.385-2.811-8.127a9.722,9.722,0,0,0-4.239-1.385,8.526,8.526,0,0,0-4.109.021,2.956,2.956,0,0,0-2.127,3.141,1.4,1.4,0,0,0-1.577.777,4.083,4.083,0,0,0-.323,1.869c-.644.455-1.376-.448-1.638-1.191a10.755,10.755,0,0,1-.831-5.421c.332-1.82,1.815-3.559,3.664-3.565a1.285,1.285,0,0,1-.334-.9l1.525-.129a1.685,1.685,0,0,1-1.007-.531C890.108,125.548,894.92,123.566,895.91,123.53Z" transform="translate(-692.689 -123.5)"/><path class="f" d="M908.542,211.867s4.081-4,5.549-3.754,3.474,3.754,3.474,3.754,12.03,4.01,11.529,8.02-6.015,23.559-6.015,23.559-4.511,23.559-.5,26.066-19.048,9.023-19.549,6.015-1.5-33.083,0-37.595S908.542,211.867,908.542,211.867Z" transform="translate(-704.878 -185.3)"/><path class="f" d="M827.569,251.827h-6.2s-4.328,19.048-4.83,21.053-1.5,11.529-1,11.529,10.526-2.005,10.526-.5Z" transform="translate(-641.45 -217.24)"/><circle class="g" cx="4.843" cy="4.843" r="4.843" transform="translate(2.537 35.522)"/><circle class="b" cx="4.843" cy="4.843" r="4.843" transform="translate(2.537 54.203)"/><circle class="g" cx="4.843" cy="4.843" r="4.843" transform="translate(2.537 72.884)"/><circle class="g" cx="4.843" cy="4.843" r="4.843" transform="translate(2.537 91.565)"/><circle class="g" cx="4.843" cy="4.843" r="4.843" transform="translate(2.537 110.246)"/><rect class="g" width="225" height="1" transform="translate(7 175)"/><path class="b" d="M19.9,137.919l-2.3-3.073.546-.409,1.878,2.5,7.392-6.048.432.528Z" transform="translate(-12.856 -95.613)"/><path class="g" d="M92.137,215.651l-16.836.231,16.836,6.859V333.273H259.575V215.651Z" transform="translate(-55.005 -157.528)"/><rect class="g" width="14.991" height="0.461" transform="translate(0 44.977)"/><rect class="g" width="14.991" height="0.461" transform="translate(0 63.658)"/><rect class="g" width="14.991" height="0.461" transform="translate(0 82.34)"/><rect class="g" width="14.991" height="0.461" transform="translate(0 101.021)"/><rect class="g" width="14.991" height="0.461" transform="translate(0 119.702)"/><circle class="h" cx="2.306" cy="2.306" r="2.306" transform="translate(5.074 56.74)"/><rect class="i" width="105.168" height="8.764" transform="translate(68.267 64.35)"/><rect class="b" width="31.135" height="10.609" transform="translate(165.593 157.756)"/><rect class="i" width="78.184" height="63.654" transform="translate(44.973 86.26)"/><rect class="h" width="0.461" height="100.819" transform="matrix(0.631, -0.775, 0.775, 0.631, 44.827, 86.44)"/><rect class="h" width="100.819" height="0.461" transform="translate(44.829 149.738) rotate(-39.153)"/><rect class="i" width="56.274" height="1.614" transform="translate(140.685 91.795)"/><rect class="i" width="56.274" height="1.614" transform="translate(140.685 96.869)"/><rect class="i" width="56.274" height="1.614" transform="translate(140.685 101.943)"/><rect class="i" width="56.274" height="1.614" transform="translate(140.685 107.017)"/><rect class="i" width="56.274" height="1.614" transform="translate(140.685 112.091)"/><rect class="i" width="56.274" height="1.614" transform="translate(140.685 117.165)"/><rect class="i" width="56.274" height="1.614" transform="translate(140.685 122.239)"/><rect class="i" width="56.274" height="1.614" transform="translate(140.685 127.313)"/><rect class="i" width="56.274" height="1.614" transform="translate(140.685 132.386)"/><rect class="i" width="56.274" height="1.614" transform="translate(140.685 137.46)"/><rect class="i" width="56.274" height="1.614" transform="translate(140.685 142.534)"/><rect class="i" width="56.274" height="1.614" transform="translate(140.685 147.608)"/><path class="c" d="M929.451,366.232l-7.018,3.008s-13.534,2.005-13.534-3.509,13.534-2.506,13.534-2.506l4.512-1.443Z" transform="translate(-709.747 -297.559)"/><path class="f" d="M971.421,240.668l6.015,1.5,4.511,26.567s1.5,7.018-1,7.519-9.524,4.511-9.524,4.511-1-7.519-3.008-7.519l5.013-4.01L970.418,251.7Z" transform="translate(-753.221 -209.088)"/></g></svg>