<svg xmlns="http://www.w3.org/2000/svg" xmlns:xlink="http://www.w3.org/1999/xlink" width="689.241" height="407.157" viewBox="0 0 689.241 407.157"><defs><style>.a,.c{fill:#7159c1;}.a,.e{opacity:0.2;}.b,.e{fill:#f5f5f5;}.d{fill:none;stroke:#535461;stroke-miterlimit:10;stroke-width:2px;}.f{fill:url(#a);}.g{fill:#535461;}.h{fill:#fff;}.i{fill:url(#c);}.j{fill:url(#d);}.k{fill:#f7c4a7;}.l{opacity:0.05;}.m{fill:#575988;}.n{opacity:0.1;}.o{fill:#f3b5b7;}.p{fill:#dddbe2;}.q{fill:#fc6681;}</style><linearGradient id="a" x1="0.5" y1="1" x2="0.5" gradientUnits="objectBoundingBox"><stop offset="0" stop-color="gray" stop-opacity="0.251"/><stop offset="0.54" stop-color="gray" stop-opacity="0.122"/><stop offset="1" stop-color="gray" stop-opacity="0.102"/></linearGradient><linearGradient id="c" x1="0.5" y1="1" x2="0.5" y2="0" xlink:href="#a"/><linearGradient id="d" x1="0.5" y1="1" x2="0.5" y2="0" xlink:href="#a"/></defs><g transform="translate(0.001)"><path class="a" d="M182.724,144.047c-5.362-.153-10.858,0-15.887,1.543-13.685,4.2-20.172,17.963-18.063,29.852s10.784,22.247,19.786,31.714,18.755,18.828,23.691,30.144c2.462,5.648,3.613,11.975,1.111,17.617-3.859,8.7-15.495,13.552-26.665,14.563s-22.387-.958-33.6-1.617c-4.7-.273-9.54-.306-13.971.965-4.863,1.384-8.915,4.211-12.64,7.159C91.952,287.55,80.316,303.324,82.2,319.9c2.129,18.781,21.116,33.624,41.913,41.587,6.886,2.661,14.171,4.777,20.231,8.542,15.967,9.933,19.553,28.561,17.963,45s-7.005,32.9-3.992,49.192c3.546,18.954,19.24,36.079,40.41,44.076,18.861,7.125,42.465,6.653,59.211-3.4,8.163-4.91,14.337-11.729,19.706-18.781a151.516,151.516,0,0,0,19.593-33.93c2.335-5.648,4.531-11.722,9.979-15.648,3.326-2.415,7.638-3.766,11.9-4.817,12.853-3.167,26.392-4.032,39.365-6.852s26.026-8.1,33.078-17.477c9.979-13.306,5.322-30.351,5.369-46,.08-35.7,26.019-67.653,35.593-102.455,3.127-11.37,4.291-23.95-2.694-34.1-4.744-6.886-12.747-11.855-21.156-15.694-18.5-8.443-39.532-12.2-60.215-15.861-28.747-5.083-63.655-5.741-85.935-22.187C241.137,155.31,211.884,144.047,182.724,144.047Z" transform="translate(-82 -144)"/><ellipse class="b" cx="309.36" cy="82.842" rx="309.36" ry="82.842" transform="translate(70.52 241.474)"/><path class="c" d="M1022.351,330.86s-23.837,23.837-10.378,59.211-23.072,94.2-23.072,94.2.393-.06,1.118-.186c48.959-8.649,73.288-64.64,46.065-106.24C1025.963,362.381,1017.654,344.259,1022.351,330.86Z" transform="translate(-385.549 -206.544)"/><path class="d" d="M1022.351,330.86s-13.459,29.22,0,53.057,2.309,90.739-33.451,100.352" transform="translate(-385.549 -206.544)"/><path class="c" d="M1061.754,475.64s-27.2-4.331-29.678,20.045-52.305,27.756-52.305,27.756l.931.619c41.141,27,80.5,17.2,74.512-18.628C1053.039,492.073,1053.218,478.681,1061.754,475.64Z" transform="translate(-382.493 -254.904)"/><path class="e" d="M1061.754,475.64s-27.2-4.331-29.678,20.045-52.305,27.756-52.305,27.756l.931.619c41.141,27,80.5,17.2,74.512-18.628C1053.039,492.073,1053.218,478.681,1061.754,475.64Z" transform="translate(-382.493 -254.904)"/><path class="d" d="M1061.754,475.79s-21.116,4.657-19.38,23.831-31.355,42.213-62.6,23.95" transform="translate(-382.493 -255.053)"/><path class="f" d="M783.334,455.594H740.6a14.251,14.251,0,0,0,1.49-6.367V254.59a14.311,14.311,0,0,0-14.31-14.31H396.9a14.31,14.31,0,0,0-14.317,14.31V449.234a14.25,14.25,0,0,0,1.49,6.367H339.825a3.785,3.785,0,0,0-3.785,3.785v3.054a21.17,21.17,0,0,0,21.17,21.15H765.95a21.17,21.17,0,0,0,21.17-21.17v-3.054a3.786,3.786,0,0,0-3.786-3.772ZM519.953,467.7l-3.646-4.158h90.958l-4.058,4.165Z" transform="translate(-167.03 -176.226)"/><rect class="g" width="351.353" height="218.208" rx="23.26" transform="translate(219.618 66.808)"/><rect class="h" width="335.818" height="178.264" transform="translate(227.01 98.616)"/><circle class="h" cx="2.961" cy="2.961" r="2.961" transform="translate(391.962 80.121)"/><path class="g" d="M616.379,560.73l-11.543,11.835H523.471L513.046,560.73H347.429a3.7,3.7,0,0,0-3.7,3.7v2.981a20.691,20.691,0,0,0,20.691,20.69H763.894a20.691,20.691,0,0,0,20.691-20.69v-2.981a3.7,3.7,0,0,0-3.7-3.7Z" transform="translate(-169.604 -283.484)"/><path class="f" d="M502.6,301.65H360.943a12.98,12.98,0,0,0-12.993,12.96V510.87a12.98,12.98,0,0,0,12.993,12.96H502.6A12.98,12.98,0,0,0,515.6,510.87V314.61A12.98,12.98,0,0,0,502.6,301.65Z" transform="translate(-171.017 -196.767)"/><rect class="g" width="163.661" height="217.55" rx="20" transform="translate(178.923 107.544)"/><rect class="h" width="147.029" height="176.395" transform="translate(187.239 128.122)"/><circle class="h" cx="1.996" cy="1.996" r="1.996" transform="translate(258.092 115.528)"/><circle class="h" cx="5.988" cy="5.988" r="5.988" transform="translate(254.1 308.462)"/><path class="i" d="M377.891,401.65H305.155a7.192,7.192,0,0,0-7.205,7.178V568.112a7.192,7.192,0,0,0,7.205,7.178h72.736a7.192,7.192,0,0,0,7.205-7.178V408.828A7.192,7.192,0,0,0,377.891,401.65Z" transform="translate(-154.281 -230.238)"/><rect class="g" width="85.822" height="171.645" rx="11" transform="translate(144.328 172.743)"/><rect class="h" width="73.182" height="139.711" transform="translate(150.648 188.709)"/><circle class="h" cx="0.665" cy="0.665" r="0.665" transform="translate(177.925 180.061)"/><rect class="h" width="14.636" height="1.331" rx="0.665" transform="translate(181.917 180.061)"/><circle class="h" cx="4.657" cy="4.657" r="4.657" transform="translate(182.249 330.416)"/><path class="d" d="M283.983,632.159s-8.822-29.938,1.657-51.986a47.3,47.3,0,0,0,3.845-29.679,79.555,79.555,0,0,0-4.2-13.924" transform="translate(-148.444 -275.397)"/><path class="c" d="M290.756,512.283c0,3.672-6.653,14.31-6.653,14.31s-6.653-10.645-6.653-14.31a6.653,6.653,0,0,1,13.306,0Z" transform="translate(-147.419 -265.041)"/><path class="c" d="M307.279,540.9c-2,3.08-13.359,8.4-13.359,8.4s.206-12.547,2.2-15.628a6.653,6.653,0,1,1,11.157,7.225Z" transform="translate(-152.932 -273.325)"/><path class="c" d="M305.3,592.135c-3.28,1.65-15.774.512-15.774.512s6.513-10.724,9.786-12.374a6.653,6.653,0,0,1,5.988,11.869Z" transform="translate(-151.463 -289.827)"/><path class="c" d="M296.021,631.852c-2.954,2.182-15.461,3.167-15.461,3.167s4.6-11.669,7.558-13.851a6.653,6.653,0,0,1,7.9,10.685Z" transform="translate(-148.46 -303.338)"/><path class="c" d="M271.779,554.038c2.661,2.555,14.9,5.209,14.9,5.209s-3-12.181-5.635-14.736a6.653,6.653,0,1,0-9.261,9.534Z" transform="translate(-144.769 -277.351)"/><path class="c" d="M260.481,599.7c3.28,1.65,15.774.512,15.774.512s-6.513-10.724-9.786-12.374a6.653,6.653,0,1,0-5.988,11.869Z" transform="translate(-140.43 -292.272)"/><path class="c" d="M257.221,646.451c2.954,2.182,15.461,3.167,15.461,3.167s-4.6-11.669-7.558-13.851a6.653,6.653,0,0,0-7.9,10.685Z" transform="translate(-139.831 -308.225)"/><path class="j" d="M924.82,486.36c-7.365-8.935-16.286-19.2-15.035-31.089,1.011-9.627-1.411-18.528-.931-28.188.665-13.725-2.089-24.469-11.975-33.264-5.775-5.143-15.428-9.181-18.3-8.15-5.7,2.036-11.909,1.257-17.77,2.661-4.451,1.038-7.411,2.661-9.248,4.657-3.692,3.326-3.752,7.983-2.069,12.94a21.855,21.855,0,0,0,10.8,30.657c-4.1,1.716-7.651,5.668-9.035,13.692a93.6,93.6,0,0,1-4.344,16.173,26.305,26.305,0,0,1-2.661,1.071c.2.08.406.133.605.206-.432.166-.858.333-1.331.479a14.107,14.107,0,0,0,2.428.705,92.625,92.625,0,0,1-11.975,21.775s-12.408,2.741-17.231-2.056c0,0,.785.918,1.85,2.3-4.717-1.956-12.461-5.149-19.081-7.777-4.8-1.909-6.034,0-5.988,2.661a8.863,8.863,0,0,0-3.327,1.118,32.375,32.375,0,0,0-4.451-2.4c-2.754-.665-11.716-5.482-20.677,10.957-5.216,9.56-18.588,27.011-28.867,39.917-19.992,9.194-46.018,20.837-55.691,23.764h-6.2c-.812-1.331-1.377-2.169-1.377-2.169l-.479.319-.206-.319s-12.175,8.429-24.536,8.5a23.275,23.275,0,0,1-5.216-.665c-5.682-1.43-9.687-2.069-12.547-2-3.386-.06-5.322.745-6.493,2.262h0a5.952,5.952,0,0,0-.432.625h0a7.35,7.35,0,0,0-.359.665h0c-.106.24-.213.492-.306.752a1.543,1.543,0,0,0,.386,1.3,6.894,6.894,0,0,0,.539.665l.346.373a54.972,54.972,0,0,0,7.917,6.127c1.018.665,2.1,1.4,3.22,2.122l2.135,1.331,1.909,1.191.765.472.852.519,1.524.925.9.545,1.71,1.018,1.384.818c3.619,2.135,7.225,4.2,10.478,6.041l2.275,1.357.219.12,1.464.818,2.528,1.4,1.737.958.812.446.871.479.173.093,1.517.825a2.2,2.2,0,0,0,1.77-.479c.439-1.863,1.51-5.855,2.661-6.161s6.134-9.015,7.538-14.843h13.452a59.309,59.309,0,0,0,7.877-1.211c-3.473,2.475-6.913,4.032-9.587,3.366-5.655-1.4-11.01,2.043-11.549,5.442a.871.871,0,0,1-.067.213c-.02.073-.033.14-.047.206s-.04.166-.053.253a1.135,1.135,0,0,0,0,.213V585a1.343,1.343,0,0,0,.066.273c.027.093,0,.12.047.173a3.331,3.331,0,0,0,.146.353l.033.087a3.607,3.607,0,0,0,.253.419l.106.14a2.788,2.788,0,0,0,.22.273l.153.153c.08.08.166.16.253.24l.186.153.3.219.22.146.359.213.239.126.453.213.226.1c.24.1.492.193.765.279.432.14.945.286,1.523.433l.579.14.845.193.446.1q.865.186,1.836.373l.9.166.732.133,1.683.293c1.051.18,2.149.359,3.326.532l2.9.439,3.779.539.838.113,1.331.186,1.949.26,1.331.173h0l3.453.439,1.078.133,2.176.266c2.861.346,5.628.665,8.176.951l2.947.333,1.49.166.665.067,1.783.193.991.107,1.224.126,1.723.18h.186l1.1.113h0a1,1,0,0,0,1.111-.978h0v-.113a.972.972,0,0,0,.16-.519,22.642,22.642,0,0,1,.619-4.87c.073-.273.16-.552.253-.832l.107-.319c.12-.339.239-.665.379-1.031a7.41,7.41,0,0,0,.259-.758.938.938,0,0,1,.073-.246c.027-.086.067-.273.093-.412,1.384-4.73-.286-13.552-.765-17.018a18.455,18.455,0,0,0-.758-3.26,1.336,1.336,0,0,0,.26,0,7.842,7.842,0,0,0,2-1.084c10.166-3.626,18.735-7.771,21.442-11.922a18.566,18.566,0,0,1,13.093,1.37c5.263,2.615,45.073,15.608,63.609,21.609,3.326,2.867,5.934,4.544,7.378,4.418,0,0,23.6,3.819,33.085-3.632.845.585,1.377.9,1.377.9s13.785-6.846,15.854-15.754c.665-2.887,1.271-7.145,1.889-11.855a17.237,17.237,0,0,0,5-12.115c.433-14.956,6.227-32.04,10.525-47.236,5.216.412,7.232-.572,12.015-2.934l-.213-.273C924.222,486.64,924.521,486.507,924.82,486.36Zm-79.03,22.4-2.661-.885a21.941,21.941,0,0,0,2.3-3.819Zm-14.829,6.294,15.967,9.58.14,1.949a13.976,13.976,0,0,0,.133,4.458c-7.039-6.254-15.275-13.845-16.246-15.994Zm-6.52-13.971c-1.743-.719-3.187-1.37-4.178-1.909,1.33.093,2.595.173,3.7.233A8.293,8.293,0,0,1,824.441,501.083ZM781.677,516.7s2.754-6.161,8.961,4.111c.965,1.6,2.741,4.138,5.09,7.285l-18.069-2.415a25.94,25.94,0,0,0,4.019-8.975Z" transform="translate(-262.857 -224.835)"/><path class="k" d="M907.215,540.438s-12.641-5.322-22.62-9.314-3.992,9.314-3.992,9.314,16.632,4.657,16.632,5.322,13.971,1.331,13.971,1.331Z" transform="translate(-348.705 -273.324)"/><path class="l" d="M907.215,540.438s-12.641-5.322-22.62-9.314-3.992,9.314-3.992,9.314,16.632,4.657,16.632,5.322,13.971,1.331,13.971,1.331Z" transform="translate(-348.705 -273.324)"/><path class="m" d="M972.376,464.951s-22.62-11.975-26.612,11.31a95.064,95.064,0,0,1-16.632,39.252s-11.975,2.661-16.632-2c0,0,11.31,13.306,5.988,14.636,0,0,11.975,8.649,17.3,5.988s9.314-20.624,11.31-25.281S956.409,463.621,972.376,464.951Z" transform="translate(-359.977 -250.395)"/><path class="n" d="M972.376,464.951s-22.62-11.975-26.612,11.31a95.064,95.064,0,0,1-16.632,39.252s-11.975,2.661-16.632-2c0,0,11.31,13.306,5.988,14.636,0,0,11.975,8.649,17.3,5.988s9.314-20.624,11.31-25.281S956.409,463.621,972.376,464.951Z" transform="translate(-359.977 -250.395)"/><path class="k" d="M983.5,445.751s13.971,15.967,14.636,29.273,15.967-13.971,17.3-14.636-13.306-23.285-14.636-30.6S983.5,445.751,983.5,445.751Z" transform="translate(-383.741 -239.178)"/><path class="k" d="M911.565,320.75l-8.815,7.983,4.158,16.8,11.31-10.645-1.33-10.645Z" transform="translate(-302.16 -107.358)"/><path class="k" d="M631.8,498.5H616.5l5.988,14.636,14.636-3.992Z" transform="translate(-206.349 -166.853)"/><path class="n" d="M679.56,639.33s-15.847,11.037-29.386,7.6-17.218-2.149-18.794,2.282c-1.457,4.078,37.815,25.647,44.076,29.053a.719.719,0,0,0,1.044-.466c.426-1.809,1.457-5.688,2.561-5.988,1.437-.386,7.983-12.64,7.624-17.457S679.56,639.33,679.56,639.33Z" transform="translate(-265.87 -309.792)"/><path class="o" d="M678.56,639.33s-15.847,11.037-29.386,7.6-17.218-2.149-18.794,2.282c-1.457,4.078,37.815,25.647,44.076,29.053a.719.719,0,0,0,1.044-.466c.426-1.809,1.457-5.688,2.561-5.988,1.437-.386,7.984-12.64,7.624-17.457S678.56,639.33,678.56,639.33Z" transform="translate(-265.535 -309.792)"/><path class="m" d="M836.24,596.488,791.665,590.5s-72.517,34.6-81.165,35.26l2,15.3H725.8c5.322,0,57.215-11.31,64.533-22.62a17.816,17.816,0,0,1,12.641,1.331c6.653,3.326,70.521,23.95,70.521,23.95Z" transform="translate(-292.366 -293.448)"/><path class="n" d="M836.24,596.488,791.665,590.5s-72.517,34.6-81.165,35.26l2,15.3H725.8c5.322,0,57.215-11.31,64.533-22.62a17.816,17.816,0,0,1,12.641,1.331c6.653,3.326,70.521,23.95,70.521,23.95Z" transform="translate(-292.366 -293.448)"/><path class="k" d="M694.818,486.5l-7.318,9.314,7.318,3.992,10.645-7.983Z" transform="translate(-230.113 -162.836)"/><path class="m" d="M906.231,586.815s-23.951-20.5-25.607-24.223-40.922-29-43.583-29.665-11.31-5.322-19.959,10.645S776.5,598.125,776.5,598.125s9.979,13.971,13.306,13.306S830.388,579.5,833.05,564.2c0,0,2.661-5.988,8.649,3.992s44.574,57.88,51.893,57.215c0,0,28.607,4.657,34.6-6.653S906.231,586.815,906.231,586.815Z" transform="translate(-314.456 -273.796)"/><path class="p" d="M979.783,467.5s-8.316,3.659-8.981,18.961-15.3,41.248-15.3,41.248l1.331,30.6s15.967,15.967,17.3,25.946,12.641,16.632,12.641,16.632,13.306-6.653,15.3-15.3,3.326-29.938,6.653-37.921,1.33-57.88,1.33-57.88l-9.979-17.3-5.322-5.988-13.971,15.967S973.13,472.155,979.783,467.5Z" transform="translate(-374.37 -251.944)"/><path class="n" d="M959.488,548.789s-2-23.951,3.992-29.273l11.975-33.93s4.324-16.3,3.659-17.63-15.634,12.973-15.634,12.973l-9.979,35.26,2.661,37.256Z" transform="translate(-373.7 -252.402)"/><path class="m" d="M958.487,548.622s-2-23.95,3.992-29.273l11.975-33.93s4.657-16.632,3.992-17.963-15.967,13.306-15.967,13.306l-9.979,35.26,2.661,37.256Z" transform="translate(-373.365 -252.236)"/><path class="k" d="M934.852,560.687s-33.265-10.645-35.26-13.306-23.285-19.959-30.6-7.984,27.277,15.3,27.277,15.3l35.26,21.289Z" transform="translate(-345.073 -274.945)"/><path class="n" d="M759.741,643.52l-9.846-1.77s-16.127,20.657-24.529,18.562-16.133,6.946-7.258,9.846c8.017,2.621,42.638,6.287,49.231,6.966a.971.971,0,0,0,1.071-.945,21.185,21.185,0,0,1,1.53-7.5c1.776-4.357,0-13.718-.492-17.3a17.185,17.185,0,0,0-1.936-5.988Z" transform="translate(-293.592 -310.602)"/><path class="o" d="M759.5,644.49l-9.846-1.77s-16.127,20.657-24.516,18.568-16.133,6.946-7.258,9.846c8.017,2.621,42.639,6.287,49.231,6.966a.971.971,0,0,0,1.071-.945,21.187,21.187,0,0,1,1.47-7.491c1.776-4.358,0-13.718-.492-17.3a17.188,17.188,0,0,0-1.936-5.988Z" transform="translate(-293.517 -310.927)"/><ellipse class="n" cx="21.029" cy="20.134" rx="21.029" ry="20.134" transform="translate(583.576 172.567)"/><ellipse class="k" cx="22.371" cy="20.134" rx="22.371" ry="20.134" transform="translate(579.996 172.567)"/><path class="m" d="M1004.921,465.5s25.281,8.649,25.281,26.612-13.971,46.57-14.636,69.855-37.256,19.959-37.256,19.959-5.322-78.5,0-84.492S1007.583,468.161,1004.921,465.5Z" transform="translate(-381.212 -251.609)"/><path class="n" d="M993.66,512.732s-9.314,41.248-31.269,33.93c0,0-11.31,16.632-3.326,23.951,0,0,19.293,4.657,31.934-7.984s21.955-17.3,23.951-32.6,3.326-36.591-3.326-34.6S993.66,512.732,993.66,512.732Z" transform="translate(-374.608 -261.585)"/><path class="m" d="M994.66,511.732s-9.314,41.248-31.269,33.93c0,0-11.31,16.632-3.326,23.951,0,0,19.293,4.657,31.934-7.983s21.954-17.3,23.95-32.6,3.326-36.591-3.326-34.6S994.66,511.732,994.66,511.732Z" transform="translate(-374.943 -261.25)"/><path class="p" d="M797.984,680a.614.614,0,0,1-.06.186,19.472,19.472,0,0,0-1.044,3.519c.16-.519.346-1.051.559-1.583A9.648,9.648,0,0,0,797.984,680Z" transform="translate(-321.278 -323.405)"/><path class="p" d="M718.363,680.532c-2.741-.9-3.892-2.375-3.938-3.932-1.131,2.169-.419,4.6,3.453,5.868,8.017,2.621,42.645,6.287,49.231,6.966a.971.971,0,0,0,1.071-.951h0a.978.978,0,0,0-.872-.991C760.084,686.719,726.274,683.113,718.363,680.532Z" transform="translate(-293.516 -322.267)"/><path class="p" d="M631.308,651.72a8.206,8.206,0,0,1,.665-1.411,6.489,6.489,0,0,0-1.563,2.581c-1.457,4.078,37.815,25.647,44.076,29.053a.718.718,0,0,0,1.044-.472h0a.718.718,0,0,0-.353-.8C668.259,676.888,629.871,655.752,631.308,651.72Z" transform="translate(-265.546 -313.467)"/><path class="p" d="M702.925,686.229c-.353.093-.7.566-1.025,1.211l.106-.04c.293-.08.792-.665,1.4-1.53a1.293,1.293,0,0,1-.479.359Z" transform="translate(-289.487 -325.369)"/><path class="n" d="M972.766,437.972c-1.876,4.138-2.269,8.8-3.646,13.139a28.892,28.892,0,0,1-17.81,18.469c6.912,2.754,15.069-.612,20.411-6.2s8.476-13.026,11.476-20.265c7.757,5.216,6.812,17.2,9.421,26.538a29.432,29.432,0,0,0,15.667,18.728,28.056,28.056,0,0,0,24-.486c-7.112-8.649-17.238-20.578-16.034-32.127.978-9.354-5.735-16.5-5.276-25.886.665-13.306-4.431-20.065-13.971-28.607-5.575-5,3.2-12.042-3.992-9.979-2.827.812-5.808-2.215-8.582-1.217-5.5,2-11.5,1.224-17.151,2.555C937.884,399.538,975.507,431.931,972.766,437.972Z" transform="translate(-372.967 -226.296)"/><path class="q" d="M973.766,436.869c-1.876,4.138-2.269,8.8-3.646,13.139a28.892,28.892,0,0,1-17.81,18.469c6.912,2.754,15.069-.612,20.411-6.2S981.2,449.25,984.2,442.012c7.757,5.216,6.813,17.2,9.421,26.538a29.432,29.432,0,0,0,15.668,18.728,28.055,28.055,0,0,0,24-.486c-7.112-8.649-16.572-18.582-15.368-30.131.978-9.354-.479-18.967,0-28.348.665-13.306-5.861-26.159-15.408-34.7-5.575-5-14.284-5.635-17.065-4.657-5.5,2-11.5,1.224-17.151,2.555C938.884,398.435,976.507,430.828,973.766,436.869Z" transform="translate(-373.302 -225.859)"/></g></svg>