<svg xmlns="http://www.w3.org/2000/svg" xmlns:xlink="http://www.w3.org/1999/xlink" width="227.456" height="180.029" viewBox="0 0 227.456 180.029"><defs><style>.a{opacity:0.5;}.b{fill:url(#a);}.c{fill:#f2f2f2;}.d{fill:#6c63ff;}.e{fill:#e0e0e0;}.f{fill:#fff;}.g{fill:#535461;}.h{opacity:0.7;}.i{fill:url(#d);}.j{fill:#fdb797;}.k{fill:#4d8af0;}.l{opacity:0.05;}.m{opacity:0.1;}.n{fill:#f55f44;}.o{fill:#333;}</style><linearGradient id="a" x1="0.5" y1="1" x2="0.5" gradientUnits="objectBoundingBox"><stop offset="0" stop-color="gray" stop-opacity="0.251"/><stop offset="0.54" stop-color="gray" stop-opacity="0.122"/><stop offset="1" stop-color="gray" stop-opacity="0.102"/></linearGradient><linearGradient id="d" x1="0.5" x2="0.5" xlink:href="#a"/></defs><g class="a" transform="translate(12.633)"><rect class="b" width="80.728" height="122.029" rx="4.5"/></g><rect class="c" width="78.658" height="119.562" rx="4.5" transform="translate(13.667 0.896)"/><g class="a" transform="translate(21.533 22.922)"><rect class="d" width="15.731" height="14.159" rx="4.5"/></g><rect class="e" width="42.475" height="1.574" rx="0.787" transform="translate(41.985 22.922)"/><rect class="e" width="35.309" height="1.574" rx="0.787" transform="translate(41.985 27.64)"/><g class="a" transform="translate(21.533 44.945)"><rect class="d" width="15.731" height="14.159" rx="4.5"/></g><rect class="e" width="42.475" height="1.574" rx="0.787" transform="translate(41.985 44.945)"/><rect class="e" width="42.475" height="1.574" rx="0.787" transform="translate(41.985 49.664)"/><g class="a" transform="translate(21.533 66.969)"><rect class="d" width="15.731" height="14.159" rx="4.5"/></g><rect class="e" width="42.475" height="1.574" rx="0.787" transform="translate(41.985 66.969)"/><rect class="e" width="4.721" height="1.574" rx="0.787" transform="translate(41.985 71.69)"/><g class="a" transform="translate(62.867 39.29)"><rect class="b" width="79.518" height="71.728" rx="4.5"/></g><rect class="f" width="77.195" height="69.475" rx="4.5" transform="translate(64.096 40.01)"/><g class="a" transform="translate(71.675 54.937)"><rect class="d" width="16.586" height="14.927" rx="4.5"/></g><rect class="e" width="44.781" height="1.659" rx="0.829" transform="translate(93.238 54.937)"/><rect class="e" width="44.781" height="1.659" rx="0.829" transform="translate(93.238 59.914)"/><rect class="e" width="68.003" height="1.659" rx="0.829" transform="translate(70.016 77.972)"/><rect class="e" width="68.003" height="1.659" rx="0.829" transform="translate(70.016 82.949)"/><rect class="e" width="68.003" height="1.659" rx="0.829" transform="translate(70.016 89.582)"/><rect class="e" width="51.417" height="1.659" rx="0.829" transform="translate(70.016 94.558)"/><g class="a" transform="translate(0 61.841)"><path class="b" d="M273.307,339.161h0l.282-1.26-.4,1.231a123.158,123.158,0,0,0-31.583-4.259C164.748,334.419,129,402.349,129,402.349l72.839,38.431s8.934-27.705,40.664-26.8a54.624,54.624,0,0,1,6.519.57l-9.654,30.069a5.36,5.36,0,1,0,8.951,5.892h0v-.014a5.329,5.329,0,0,0,.79-2.7,4.586,4.586,0,0,0-.017-.483l6.978-31.182a42.813,42.813,0,0,1,27.089,24.653l73.3-36.642S328.929,354.267,273.307,339.161Z" transform="translate(-129 -334.871)"/></g><path class="d" d="M246.176,337.993C170.294,337.551,135,404.61,135,404.61l71.912,37.936s8.823-27.353,40.148-26.471a53.9,53.9,0,0,1,6.589.584l23.813-74.43A121.587,121.587,0,0,0,246.176,337.993Z" transform="translate(-133.551 -275.397)"/><path class="e" d="M650.193,355.54,626.38,429.978a42.469,42.469,0,0,1,33.556,25.88l72.354-36.171S705.1,370.453,650.193,355.54Z" transform="translate(-506.282 -288.709)"/><path class="g" d="M592.772,458.393,616.947,350.38,583.162,455.737A5.293,5.293,0,1,0,592,461.553h0v-.014a5.261,5.261,0,0,0,.78-2.668A2.864,2.864,0,0,0,592.772,458.393Z" transform="translate(-472.752 -284.794)"/><g class="h" transform="translate(104.665 14.075)"><path class="i" d="M586.56,185.444l-.633-.118,1.248-4.588c1.965-14.729-5.459-16.224-8.244-16.274a9.151,9.151,0,0,0-.978-.3v-1.739a9.229,9.229,0,0,0,6.894-7.451h.024c.442,0,.8-.674.8-1.5a2.086,2.086,0,0,0-.35-1.241q.048-.483.048-.966a9.591,9.591,0,0,0-2.977-6.952,6.181,6.181,0,0,0-.681-1.83c-.683-1.207-1.821-2.458-1.357-3.764l-3,.309-.029-1.978c-.937.169-1.331,1.253-1.886,2.026-1.338,1.859-4.02,2.118-5.8,3.566-.6.483-1.961,1.99-1.7,2.972a9.577,9.577,0,0,0-1.83,5.643q0,.483.048.966a2.087,2.087,0,0,0-.35,1.241c0,.831.36,1.5.8,1.5h.024a9.229,9.229,0,0,0,6.894,7.451v1.739a9.158,9.158,0,0,0-.978.3c-2.784.051-10.209,1.536-8.243,16.274l1.248,4.588-.3.056a3.421,3.421,0,0,0-2.736,3.991l4.933,26.365a1.036,1.036,0,0,0,1.207.828l.867-.162v.512a2.878,2.878,0,0,0-1.6,2.579v.326h5.814v-.326a2.878,2.878,0,0,0-1.4-2.47V215.87l.792-.147a1.036,1.036,0,0,0,.828-1.207l-4.622-24.769h12.814l-4.617,24.771a1.036,1.036,0,0,0,.828,1.207l.792.147v1.147a2.878,2.878,0,0,0-1.4,2.47v.326h5.814v-.326a2.878,2.878,0,0,0-1.6-2.579V216.4l.867.162a1.036,1.036,0,0,0,1.207-.828l4.984-26.7a3.079,3.079,0,0,0-2.463-3.593Z" transform="translate(-562.467 -137.05)"/></g><rect class="j" width="2.7" height="3.665" transform="translate(111.97 90.065)"/><rect class="j" width="2.7" height="3.665" transform="translate(121.228 90.065)"/><rect class="k" width="17.745" height="6.365" transform="translate(109.077 59.979)"/><g class="l" transform="translate(109.077 59.979)"><rect width="17.745" height="6.365"/></g><path class="m" d="M580.74,328.916s6.621,1.543,8.871,1.543,8.871-1.543,8.871-1.543v-.966H580.74Z" transform="translate(-471.663 -267.78)"/><path class="n" d="M598.483,269.959s-6.621,1.543-8.871,1.543-8.871-1.543-8.871-1.543V259.351a8.871,8.871,0,0,1,8.871-8.871h0a8.871,8.871,0,0,1,8.871,8.871Z" transform="translate(-471.663 -209.016)"/><path class="j" d="M479.7,153.34h4.242v5.1a1.838,1.838,0,0,1-1.838,1.838h-.565a1.838,1.838,0,0,1-1.837-1.838v-5.1Z" transform="translate(-363.871 -116.314)"/><path class="k" d="M575.033,364.236l-3.8.71a1.248,1.248,0,0,1-1.449-1l-4.535-24.3a4.119,4.119,0,0,1,3.294-4.807l.98-.184a1.248,1.248,0,0,1,1.449,1l5.071,27.123a1.248,1.248,0,0,1-1.007,1.458Z" transform="translate(-459.856 -272.853)"/><path class="k" d="M625.691,364.243l3.8.71a1.248,1.248,0,0,0,1.449-1l4.612-24.706a3.709,3.709,0,0,0-2.965-4.325l-1.386-.258a1.248,1.248,0,0,0-1.449,1l-5.071,27.123a1.248,1.248,0,0,0,1.007,1.456Z" transform="translate(-504.98 -272.86)"/><path class="m" d="M608.7,235.923a8.878,8.878,0,0,0,4.242,0V232.9H608.7Z" transform="translate(-492.871 -195.681)"/><circle class="o" cx="9.258" cy="9.258" r="9.258" transform="translate(108.691 20.053)"/><circle class="j" cx="8.871" cy="8.871" r="8.871" transform="translate(109.077 22.562)"/><path class="o" d="M587.962,148.912c1.707-1.393,4.288-1.642,5.573-3.431.534-.744.913-1.789,1.813-1.951l.026,1.9,2.9-.3c-.447,1.256.647,2.463,1.306,3.622a5.954,5.954,0,0,1,.77,2.8c-1,.6-2.246-.056-3.361-.406a12.151,12.151,0,0,0-3.38-.408,7.014,7.014,0,0,0-1.743.1,8.791,8.791,0,0,0-1.449.529c-.768.321-3.195,1.536-3.907.753C585.707,151.24,587.3,149.451,587.962,148.912Z" transform="translate(-475.871 -127.891)"/><path class="m" d="M590.885,174.361a4.069,4.069,0,0,0,1.57.483,13.821,13.821,0,0,0,6.734-.756,3.284,3.284,0,0,0,2.122,1.794,9.861,9.861,0,0,0,2.844.319,1.053,1.053,0,0,0,.611-.116c.427-.287.22-.949-.029-1.4l-1.236-2.241a6.635,6.635,0,0,0-1.306-1.838,5.432,5.432,0,0,0-2.579-1.108,14.545,14.545,0,0,0-6.621.22C590.685,170.331,587.718,172.444,590.885,174.361Z" transform="translate(-478.312 -147.378)"/><path class="o" d="M590.885,173.561a4.069,4.069,0,0,0,1.57.483,13.821,13.821,0,0,0,6.734-.756,3.284,3.284,0,0,0,2.122,1.794,9.861,9.861,0,0,0,2.844.319,1.053,1.053,0,0,0,.611-.116c.427-.287.22-.949-.029-1.4l-1.236-2.241a6.635,6.635,0,0,0-1.306-1.838,5.432,5.432,0,0,0-2.579-1.108,14.546,14.546,0,0,0-6.621.22C590.685,169.526,587.718,171.646,590.885,173.561Z" transform="translate(-478.312 -146.771)"/><ellipse class="j" cx="0.773" cy="1.446" rx="0.773" ry="1.446" transform="translate(125.953 29.987)"/><ellipse class="j" cx="0.773" cy="1.446" rx="0.773" ry="1.446" transform="translate(108.401 29.987)"/><path class="n" d="M579.869,252.766s-11.223-1.748-8.908,15.61l1.35,4.977,3.863-.155s-2.506-5.8-.966-9.644S579.869,252.766,579.869,252.766Z" transform="translate(-464.006 -210.713)"/><path class="n" d="M626.12,252.766s11.223-1.748,8.907,15.61l-1.35,4.977-3.863-.155s2.506-5.8.966-9.644S626.12,252.766,626.12,252.766Z" transform="translate(-506.085 -210.713)"/><circle class="j" cx="2.122" cy="2.122" r="2.122" transform="translate(108.305 61.133)"/><circle class="j" cx="2.122" cy="2.122" r="2.122" transform="translate(123.734 61.133)"/><path class="o" d="M459.754,381.79h.746a2.415,2.415,0,0,1,2.415,2.415v.662H457.33V384.2a2.415,2.415,0,0,1,2.424-2.415Z" transform="translate(-346.903 -289.603)"/><path class="o" d="M498.894,381.79h.746a2.415,2.415,0,0,1,2.415,2.415v.662H496.47V384.2a2.415,2.415,0,0,1,2.424-2.415Z" transform="translate(-376.592 -289.603)"/><path class="m" d="M588.04,291.21s-.773,4.049.579,5.8" transform="translate(-477.033 -239.912)"/><path class="m" d="M644.419,291.21s.773,4.049-.579,5.8" transform="translate(-519.526 -239.912)"/></svg>