<svg xmlns="http://www.w3.org/2000/svg" width="346.885" height="244.823" viewBox="0 0 346.885 244.823">
  <defs>
    <style>
      .cls-1 {
        fill: #4e3e83;
      }

      .cls-2 {
        fill: #fff;
        font-size: 30px;
        font-family: Poppins-Bold, Poppins;
        font-weight: 700;
      }
    </style>
  </defs>
  <g id="freelancers" transform="translate(-169 -6309)">
    <g id="Group_104" data-name="Group 104" transform="translate(169 6309)">
      <g id="Group_100" data-name="Group 100">
        <path id="Path_2547" data-name="Path 2547" class="cls-1" d="M63.933,159.118c12.211-16.734,8.162-40.621,1.121-59.651-2.361-6.37-5.043-13.108-3.819-20.04,1.5-8.473,8.523-14.822,15.828-18.28a41.942,41.942,0,0,1,40.961,2.645c10.28,6.853,17.516,18.242,28,24.768,17.538,10.918,40.307,6.04,59.826-2.3,13.809-5.9,28.936-13.491,42.394-8.046,9.47,3.832,15.847,13.585,19.2,24.011,1.62,5.034,2.754,10.5,5.981,14.439a22.079,22.079,0,0,0,7.062,5.339c23.8,12.46,54.405,4.673,77.476,18.575,15.576,9.389,25.27,27.609,29.3,46.764s3.031,39.375,1.427,59.249c-1.14,14.124-2.944,29.217-11.436,40.316-8.981,11.738-24.033,16.4-37.494,14.563s-25.525-9.327-36.085-18.236c-13.205-11.14-25.354-25.117-41.777-29.335-11.186-2.878-23.071-.841-34.7.059-19.438,1.5-38.808-.227-58.059-2.181-18.429-1.869-36.986-3.956-54.44-10.084-12.351-4.336-22.142-12.532-33.771-18.133-7.579-3.651-15.918-4.5-23.052-9.215-8.8-5.81-16.759-16.1-14.177-28.453C46.133,174.157,57.454,168,63.933,159.118Z" transform="translate(-43.2 -57.041)"/>
      </g>
    </g>
    <text id="FREELANCERS-2" data-name="FREELANCERS" class="cls-2" transform="translate(342 6442)"><tspan x="-102.255" y="0">FREELANCERS</tspan></text>
  </g>
</svg>
