<svg xmlns="http://www.w3.org/2000/svg" xmlns:xlink="http://www.w3.org/1999/xlink" width="106" height="106" viewBox="0 0 106 106">
  <defs>
    <style>
      .cls-1 {
        fill: #fff;
      }

      .cls-2 {
        clip-path: url(#clip-path);
      }

      .cls-3 {
        fill: #7159c1;
      }
    </style>
    <clipPath id="clip-path">
      <rect id="Rectangle_37" data-name="Rectangle 37" class="cls-1" width="106" height="106" rx="10" transform="translate(-0.49 -0.267)"/>
    </clipPath>
  </defs>
  <g id="github" class="cls-2" transform="translate(0.49 0.267)">
    <g id="git" transform="translate(0.41 0)">
      <rect id="Rectangle_40" data-name="Rectangle 40" class="cls-1" width="104.914" height="104.914" rx="10.121"/>
      <path id="Path_1" data-name="Path 1" class="cls-3" d="M63.7,94.471c2.869,0,2.459,3.483,2.459,3.483H28.868s-.41-3.483,2.459-3.483c2.664,0,3.279-1.229,3.279-2.459l-.2-10.245c-14.549,3.279-17.622-5.737-17.622-5.737-2.459-6.147-5.737-7.582-5.737-7.582-4.918-3.279.2-3.279.2-3.279,5.328.41,8.2,5.328,8.2,5.328C23.95,78.488,31.532,76.234,34.605,75a11.75,11.75,0,0,1,3.279-7.172C26.2,66.6,14.114,62.1,14.114,42.014a20.759,20.759,0,0,1,5.328-14.139c-.615-1.229-2.254-6.557.615-13.729,0,0,4.3-1.434,14.344,5.328a47.55,47.55,0,0,1,26.228,0c10.041-6.762,14.344-5.328,14.344-5.328,2.869,7.172,1.229,12.5.615,13.729a20.759,20.759,0,0,1,5.328,14.139C80.915,62.1,68.62,66.6,56.94,67.833c2.049,1.639,3.688,4.918,3.688,9.836l-.2,14.344C60.424,93.241,61.039,94.471,63.7,94.471Z" transform="translate(4.942 7.779)"/>
    </g>
  </g>
</svg>
