<svg xmlns="http://www.w3.org/2000/svg" width="612.343" height="254.5" viewBox="0 0 612.343 254.5"><g transform="translate(0 0)"><path d="M66.812,389.776l-14.04-.936,4.68,21.061,15.912-6.552Z" transform="translate(-22.918 -168.871)" fill="#ffb9b9"/><path d="M237.193,296.569l-32.761-31.825-18.721,14.509-36.973,44.461,4.212,6.552,44.929-30.421L228.3,339.626l29.017-14.508Z" transform="translate(-64.596 -114.977)" fill="#2f2e41"/><path d="M237.193,296.569l-32.761-31.825-18.721,14.509-36.973,44.461,4.212,6.552,44.929-30.421L228.3,339.626l29.017-14.508Z" transform="translate(-64.596 -114.977)" opacity="0.1"/><path d="M321.059,567.111l-4.212,3.276-34.165-11.7-7.956-3.276-15.912,3.276s0-13.1,14.976-12.636l15.444,3.744,18.252,1.4Z" transform="translate(-145.654 -364.459)" fill="#ffb9b9"/><path d="M237.726,380.647l-10.3,6.552H215.262l-56.629-21.061L75.794,381.115l-2.34-17.785L149.272,330.1l66.458,22Z" transform="translate(-31.901 -143.361)" fill="#2f2e41"/><path d="M296.83,462.529l-7.02,1.4-1.53-1.785A9.457,9.457,0,0,1,287,451.764h0l19.656-25.741s5.616-12.636,14.508-7.488-7.488,13.572-7.488,13.572l-9.828,15.444.936,7.956Z" transform="translate(-157.462 -308.549)" fill="#ffb9b9"/><circle cx="18.252" cy="18.252" r="18.252" transform="translate(165.577 87.054)" fill="#ffb9b9"/><path d="M369.258,431.172l8.424,20.124,20.124-8.424s-6.552-15.912-6.552-16.38S369.258,431.172,369.258,431.172Z" transform="translate(-193.619 -312.527)" fill="#ffb9b9"/><path d="M395.034,500.715a104.868,104.868,0,0,1-5.143,32.436l-1.367,4.2-6.552,29.953-7.02,1.872-5.148-6.552-10.3-7.488-7.488-12.168-6.421-10.7-2-3.342-7.02-35.1L309.9,478.855l-8.892-1.4,1.872-5.148,7.956-10.764,7.956-.936,2.34-1.872,1.872.936,7.488-4.212,2.34.936,13.685,1.273,8.312-1.741,11.953-6.416,4.9.8,16.848,14.04a104.78,104.78,0,0,1,6.51,36.369Z" transform="translate(-163.977 -322.535)" fill="#575a89"/><path d="M92.944,607.475s4.192-7.1,2.421-7.934-9.29-4.136-9.29-4.136l-11.027-3.654s-15.911-23.647-16.26-3.083,11.585,25.507,11.585,25.507,10.644,22.907,16.673,19.254,12.063-16.052,12.063-16.052S88.237,611.531,92.944,607.475Z" transform="translate(-58.78 -379.323)" fill="#2f2e41"/><path d="M359.531,290.518l-17.785,11.7L315.2,326.152l-2-3.342-5.616-28.08h1.4l14.509-26.676Z" transform="translate(-133.581 -116.414)" opacity="0.1"/><path d="M312.357,263.09l-14.509,26.676H292.7l-3.276,9.36L281.936,301l20.124,22,28.548-25.741,17.785-11.7Z" transform="translate(-122.443 -114.259)" fill="#575a89"/><path d="M353.774,376.227l-1.978.761a2.761,2.761,0,0,1-.706-3.881l-3.655-.171a27.6,27.6,0,0,1,41.2-3.321c.166-.573,1.98.542,2.721,1.672.249-.933,1.95,3.575,2.551,6.762.279-1.061,1.349.652.411,2.3.594-.087.863,1.434.4,2.281.65-.305.541,1.51-.164,2.723.928-.082-7.318,12.715-10.656,20.193-.969-4.454-2.059-9.144-5.185-12.462-.531-.564-1.113-1.078-1.694-1.59l-3.142-2.773c-3.653-3.225-6.977-7.2-11.843-8.41-3.345-.828-5.459-1.015-3.637-4.784-1.647.687-3.185,1.709-4.846,2.347C353.575,377.343,353.807,376.754,353.774,376.227Z" transform="translate(-184.142 -284.493)" fill="#2f2e41"/><circle cx="3.276" cy="3.276" r="3.276" transform="translate(189.679 104.136)" fill="#ffb9b9"/><rect width="15.84" height="15.84" transform="translate(100.944 33.778)" fill="#5d4a9d"/><path d="M267.454,282H248.22V262.77h19.234Zm-18.4-.836h17.561V263.606H249.056Z" transform="translate(-141.053 -241.437)" fill="#3f3d56"/><rect width="15.84" height="15.84" transform="translate(41.661 82.736) rotate(74.063)" fill="#5d4a9d"/><path d="M129.189,399.623l-5.281-18.495,18.495-5.281,5.281,18.495Zm-4.247-17.92,4.822,16.887,16.886-4.822-4.822-16.887Z" transform="translate(-87.065 -290.546)" fill="#3f3d56"/><rect width="15.84" height="15.84" transform="matrix(-0.683, 0.731, -0.731, -0.683, 52.889, 15.455)" fill="#5d4a9d"/><path d="M112.781,266.275l13.133-14.052,14.052,13.133-13.133,14.052Zm13.173-12.87-11.991,12.83,12.831,11.991L138.784,265.4Z" transform="translate(-82.233 -236.856)" fill="#3f3d56"/><path d="M799.688,228.093H652.51V225.06H585.773v3.033H437.987a9.956,9.956,0,0,0-9.956,9.956V439.582a9.956,9.956,0,0,0,9.956,9.956h361.7a9.956,9.956,0,0,0,9.956-9.956V238.048a9.955,9.955,0,0,0-9.955-9.955Z" transform="translate(-219.144 -225.059)" fill="#3f3d56"/><rect width="354.918" height="200.21" transform="translate(222.235 20.628)" fill="#5d4a9d"/><circle cx="3.64" cy="3.64" r="3.64" transform="translate(395.75 7.887)" fill="#5d4a9d"/><path d="M646.263,236.674H392.845V36.464Z" transform="translate(-170.61 -15.836)" opacity="0.1"/><circle cx="34.116" cy="34.116" r="34.116" transform="translate(243.653 137.625)" fill="#f2f2f2"/><path d="M530.639,508.814a42.437,42.437,0,1,1,42.437-42.437A42.437,42.437,0,0,1,530.639,508.814Zm0-84.319a41.882,41.882,0,1,0,41.882,41.882A41.882,41.882,0,0,0,530.639,424.5Z" transform="translate(-245.276 -311.432)" fill="#3f3d56"/><rect width="33.153" height="6.928" transform="translate(482.203 128.603)" fill="#3f3d56"/><rect width="113.315" height="2.969" transform="translate(442.122 74.667)" fill="#3f3d56"/><rect width="113.315" height="2.969" transform="translate(442.122 84.068)" fill="#3f3d56"/><rect width="113.315" height="2.969" transform="translate(442.122 93.47)" fill="#3f3d56"/><rect width="113.315" height="2.969" transform="translate(442.122 102.872)" fill="#3f3d56"/><rect width="113.315" height="2.969" transform="translate(442.122 112.274)" fill="#3f3d56"/><rect width="13.855" height="13.855" transform="translate(541.581 24.69)" fill="#f2f2f2"/><path d="M1039.084,291.65H1022.26V274.826h16.824Zm-16.092-.732h15.361V275.557h-15.361Z" transform="translate(-477.214 -246.673)" fill="#3f3d56"/><path d="M807.967,606.705H773.33v-2.5a.5.5,0,0,0-.495-.495H760.959a.5.5,0,0,0-.495.495v2.5h-7.427v-2.5a.5.5,0,0,0-.495-.495H740.667a.5.5,0,0,0-.495.495v2.5h-7.42v-2.5a.5.5,0,0,0-.495-.495H720.381a.5.5,0,0,0-.495.495v2.5h-7.422v-2.5a.5.5,0,0,0-.495-.495H700.094a.5.5,0,0,0-.495.495v2.5h-7.422v-2.5a.5.5,0,0,0-.495-.495H679.806a.5.5,0,0,0-.495.495v2.5h-7.422v-2.5a.5.5,0,0,0-.495-.495H659.518a.5.5,0,0,0-.495.495v2.5H651.6v-2.5a.5.5,0,0,0-.495-.495H558.079a.5.5,0,0,0-.495.495v2.5h-7.422v-2.5a.5.5,0,0,0-.495-.495H537.791a.5.5,0,0,0-.495.495v2.5h-7.422v-2.5a.5.5,0,0,0-.495-.495H517.5a.5.5,0,0,0-.495.495v2.5h-7.422v-2.5a.5.5,0,0,0-.495-.495H497.215a.5.5,0,0,0-.495.495v2.5H489.3v-2.5a.5.5,0,0,0-.495-.495H476.927a.5.5,0,0,0-.495.495v2.5H469.01v-2.5a.5.5,0,0,0-.495-.495H456.639a.5.5,0,0,0-.495.495v2.5h-7.422v-2.5a.5.5,0,0,0-.495-.495H436.352a.5.5,0,0,0-.495.495v2.5H413.095a11.876,11.876,0,0,0-11.876,11.876v5.37a11.876,11.876,0,0,0,11.876,11.876H807.967a11.876,11.876,0,0,0,11.876-11.876v-5.37A11.876,11.876,0,0,0,807.967,606.705Z" transform="translate(-207.5 -389.507)" fill="#3f3d56"/></g></svg>