<svg xmlns="http://www.w3.org/2000/svg" xmlns:xlink="http://www.w3.org/1999/xlink" width="232" height="176" viewBox="0 0 232 176"><defs><style>.a{fill:url(#a);}.b{fill:#fff;}.c{fill:#e6e6e6;}.d{fill:#dbdbdb;}.e{fill:url(#b);}.f{fill:#6c63ff;}.g{opacity:0.5;}.h{fill:url(#c);}.i{fill:#f55f44;}.j{fill:#fdd835;}.k{fill:#fda57d;}.l{opacity:0.1;}.m{opacity:0.05;}.n{fill:#e0e0e0;}.o{fill:url(#d);}.p{fill:#f5f5f5;}.q{fill:url(#e);}.r{fill:url(#g);}.s{fill:#514abf;}.t{fill:url(#i);}.u{fill:#fdb797;}.v{fill:none;stroke:#3ad29f;stroke-miterlimit:10;stroke-width:6px;stroke-dasharray:12;}.w{fill:url(#j);}.x{fill:#69f0ae;}.y{fill:url(#k);}.z{fill:url(#l);}.aa{fill:url(#n);}.ab{fill:#3ad29f;}.ac{fill:#be7c5e;}.ad{fill:#444;}</style><linearGradient id="a" x1="0.5" y1="1.012" x2="0.5" y2="0.028" gradientUnits="objectBoundingBox"><stop offset="0" stop-color="gray" stop-opacity="0.251"/><stop offset="0.54" stop-color="gray" stop-opacity="0.122"/><stop offset="1" stop-color="gray" stop-opacity="0.102"/></linearGradient><linearGradient id="b" x1="0.5" y1="1" x2="0.5" y2="0" xlink:href="#a"/><linearGradient id="c" x1="0.5" y1="1" x2="0.5" y2="0" xlink:href="#a"/><linearGradient id="d" x1="0.499" y1="1.015" x2="0.499" y2="0.014" xlink:href="#a"/><linearGradient id="e" x1="0.5" y1="1.001" x2="0.5" y2="0.038" xlink:href="#a"/><linearGradient id="g" x1="0" y1="0.5" x2="1.001" y2="0.5" xlink:href="#a"/><linearGradient id="i" x1="0.499" y1="1" x2="0.499" y2="0.001" xlink:href="#a"/><linearGradient id="j" x1="0.5" y1="1" x2="0.5" y2="0" xlink:href="#a"/><linearGradient id="k" x1="0.499" y1="0.997" x2="0.499" y2="0.012" xlink:href="#a"/><linearGradient id="l" x1="0.499" y1="0.997" x2="0.499" y2="0.013" gradientUnits="objectBoundingBox"><stop offset="0" stop-opacity="0.09"/><stop offset="0.55" stop-opacity="0.071"/><stop offset="1" stop-opacity="0.02"/></linearGradient><linearGradient id="n" x1="0" y1="0.5" x2="1" y2="0.5" xlink:href="#a"/></defs><rect class="a" width="34.462" height="62.763" rx="10" transform="translate(19.334 45.749)"/><rect class="b" width="32.875" height="60.272" rx="10" transform="translate(20.128 46.78)"/><rect class="c" width="25.452" height="49.049" transform="translate(23.932 50.963) rotate(-0.08)"/><ellipse class="d" cx="2.029" cy="2.079" rx="2.029" ry="2.079" transform="translate(34.698 101.475) rotate(-0.08)"/><ellipse class="d" cx="0.406" cy="0.415" rx="0.406" ry="0.415" transform="translate(32.394 48.231) rotate(-0.08)"/><rect class="d" width="6.291" height="0.623" rx="0.312" transform="translate(34.626 48.332) rotate(-0.08)"/><rect class="e" width="14.411" height="15.131" transform="translate(29.486 79.401)"/><rect class="f" width="13.158" height="13.815" transform="translate(30.114 80.059)"/><g class="g" transform="translate(32.254 81.407)"><path class="h" d="M286.945,426.364V426.1h.692v-1.336a2.139,2.139,0,1,0-3.635-.1V426.1h.764v.307a4.436,4.436,0,0,0-3.257,4.274v3.891h8.883v-3.891A4.434,4.434,0,0,0,286.945,426.364Z" transform="translate(-281.51 -421.451)"/></g><rect class="i" width="3.289" height="2.631" transform="translate(34.938 83.609)"/><path class="j" d="M144.568,374h2.077a2.968,2.968,0,0,1,2.968,2.968v4.565H141.6v-4.57A2.968,2.968,0,0,1,144.568,374Z" transform="translate(-108.919 -287.618)"/><rect class="k" width="1.964" height="2.456" rx="0.982" transform="translate(35.628 85.064)"/><path class="k" d="M157,378.62l.367.535.385-.535Z" transform="translate(-120.765 -291.173)"/><path class="l" d="M289.157,456s-.39,3.882-.138,4.134" transform="translate(-254.967 -366.616)"/><path class="l" d="M310.8,456s.39,3.882.138,4.134" transform="translate(-271.786 -366.616)"/><path class="m" d="M297.159,438.647a1.629,1.629,0,0,0,.969-.318.983.983,0,0,0-.969-.829h0a.983.983,0,0,0-.969.829A1.629,1.629,0,0,0,297.159,438.647Z" transform="translate(-260.548 -352.39)"/><circle class="i" cx="1.936" cy="1.936" r="1.936" transform="translate(34.675 82.03)"/><circle class="k" cx="1.636" cy="1.636" r="1.636" transform="translate(34.975 82.935)"/><ellipse class="k" cx="0.115" cy="0.208" rx="0.115" ry="0.208" transform="translate(34.855 84.257)"/><ellipse class="k" cx="0.115" cy="0.208" rx="0.115" ry="0.208" transform="translate(38.139 84.257)"/><rect class="b" width="22.212" height="0.965" transform="translate(25.586 54.105)"/><rect class="b" width="22.212" height="0.965" transform="translate(25.586 56.036)"/><rect class="b" width="12.555" height="0.965" transform="translate(25.586 57.969)"/><rect class="b" width="18.348" height="0.965" transform="translate(25.586 59.902)"/><rect class="b" width="15.452" height="0.965" transform="translate(25.586 61.836)"/><rect class="b" width="22.212" height="0.965" transform="translate(25.586 63.769)"/><rect class="b" width="19.315" height="7.725" transform="translate(26.553 66.669)"/><path class="n" d="M665.382,526.13s3.231,22.2,22.2,29.574l-38.381.053-38.381.053c18.939-7.427,22.122-29.636,22.122-29.636Z" transform="translate(-482.092 -420.535)"/><rect class="o" width="77.487" height="4.69" transform="translate(128.346 135.281) rotate(-0.08)"/><rect class="p" width="76.763" height="3.619" transform="translate(128.734 135.28) rotate(-0.08)"/><path class="q" d="M622.6,180l-124.837.173a2.562,2.562,0,0,0-2.5,2.622l.1,72.834v2.426a9.8,9.8,0,0,0,9.59,10.007l110.692-.152a9.8,9.8,0,0,0,9.562-10.033v-2.423l-.1-72.834A2.562,2.562,0,0,0,622.6,180Z" transform="translate(-393.208 -154.382)"/><path class="b" d="M504.723,189.5H626.466a2.481,2.481,0,0,1,2.481,2.481v69.313H502.24V191.981A2.481,2.481,0,0,1,504.723,189.5Z" transform="translate(-398.682 -161.408)"/><path class="p" d="M620.314,512.038l-109.019.15a8.844,8.844,0,0,1-8.856-8.833v-3l126.707-.175v3a8.844,8.844,0,0,1-8.833,8.858Z" transform="translate(-398.725 -400.589)"/><rect class="c" width="114.662" height="57.957" transform="translate(109.817 33.91)"/><rect class="e" width="20.296" height="21.312" transform="translate(194.311 37.727)"/><rect class="f" width="18.533" height="19.458" transform="translate(195.193 38.655)"/><g class="g" transform="translate(198.285 40.739)"><path class="r" d="M919.641,251.945l-.231-.083-.014.021h-.014v-.628a1.448,1.448,0,0,0-.018-.231,2.4,2.4,0,0,0,.824-1.087,2.832,2.832,0,1,0-4.484,0,2.4,2.4,0,0,0,.824,1.087,1.447,1.447,0,0,0-.018.231v.692h0a5.872,5.872,0,0,0-4.309,5.659v5.149h11.724V257.6a5.872,5.872,0,0,0-4.284-5.654Z" transform="translate(-912.2 -245.375)"/></g><path class="s" d="M776.631,204.29h.716a5.292,5.292,0,0,1,5.292,5.292v5.308H771.33v-5.308a5.292,5.292,0,0,1,5.3-5.292Z" transform="translate(-572.839 -157.105)"/><rect class="k" width="2.767" height="3.46" rx="1.384" transform="translate(202.652 45.338)"/><path class="m" d="M785.2,205.786l.928,1.989.921-.921-.921-1.415Z" transform="translate(-583.508 -157.991)"/><path class="b" d="M927.1,274.366l.923,1.989.923-.923-.923-1.412-.425.129a1.052,1.052,0,0,0-.122.046Z" transform="translate(-725.376 -226.668)"/><path class="m" d="M799.343,205.443l-.93,2.086-.923-.921.949-1.489Z" transform="translate(-592.962 -157.745)"/><path class="b" d="M940.986,273.985l-.923,2.077-.923-.923.949-1.489.173.051a4.617,4.617,0,0,1,.552.2Z" transform="translate(-734.637 -226.383)"/><path class="k" d="M793.05,210.83l.517.752.545-.752Z" transform="translate(-589.546 -162.136)"/><path class="l" d="M921.285,291.64s-.549,5.468-.194,5.823" transform="translate(-720.662 -240.217)"/><path class="l" d="M951.77,291.64s.549,5.468.194,5.823" transform="translate(-744.352 -240.217)"/><path class="m" d="M932.556,267.193a2.308,2.308,0,0,0,1.366-.448,1.385,1.385,0,0,0-1.366-1.165h0a1.385,1.385,0,0,0-1.366,1.165A2.308,2.308,0,0,0,932.556,267.193Z" transform="translate(-728.522 -220.177)"/><circle cx="2.726" cy="2.726" r="2.726" transform="translate(201.309 41.064)"/><circle class="k" cx="2.306" cy="2.306" r="2.306" transform="translate(201.729 42.338)"/><path class="m" d="M929.06,250.239l.582.711s2.555.231,2.846-.355-1.682-1-1.682-1Z" transform="translate(-726.883 -207.88)"/><path d="M929.06,249.959l.582.711s2.555.231,2.846-.355-1.682-1-1.682-1Z" transform="translate(-726.883 -207.665)"/><ellipse class="k" cx="0.162" cy="0.291" rx="0.162" ry="0.291" transform="translate(201.563 44.204)"/><ellipse class="k" cx="0.162" cy="0.291" rx="0.162" ry="0.291" transform="translate(206.188 44.204)"/><rect class="e" width="20.296" height="21.312" transform="translate(194.429 63.313)"/><rect class="f" width="18.533" height="19.458" transform="translate(195.31 64.239)"/><g class="g" transform="translate(198.348 65.15)"><path class="t" d="M920.1,358.912v-.822a2.555,2.555,0,0,0,.863-1.154,3.012,3.012,0,0,0-1.258-4.632,1.025,1.025,0,1,0-2.015-.085,3.012,3.012,0,0,0-1.5,4.72,2.555,2.555,0,0,0,.863,1.154c0,.035,0,.069,0,.106v.757a5.65,5.65,0,0,0-4.586,5.539v6.072h12.486V364.5A5.65,5.65,0,0,0,920.1,358.912Z" transform="translate(-912.47 -351.054)"/></g><path class="b" d="M778.481,316.66h.716a5.292,5.292,0,0,1,5.292,5.292v5.308H773.18v-5.308a5.292,5.292,0,0,1,5.292-5.292Z" transform="translate(-574.262 -243.52)"/><rect class="u" width="2.767" height="3.46" rx="1.384" transform="translate(203.077 71.292)"/><path class="u" d="M794.9,323.2l.517.752.542-.752Z" transform="translate(-590.969 -248.553)"/><path class="l" d="M923.135,404s-.549,5.468-.194,5.823" transform="translate(-722.085 -326.626)"/><path class="l" d="M953.62,404s.549,5.468.194,5.823" transform="translate(-745.775 -326.626)"/><path class="m" d="M934.385,379.563a2.308,2.308,0,0,0,1.366-.448,1.385,1.385,0,0,0-1.366-1.165h0A1.385,1.385,0,0,0,933,379.115,2.308,2.308,0,0,0,934.385,379.563Z" transform="translate(-729.914 -306.594)"/><circle class="j" cx="2.726" cy="2.726" r="2.726" transform="translate(201.736 67.017)"/><circle class="u" cx="2.306" cy="2.306" r="2.306" transform="translate(202.156 68.292)"/><ellipse class="u" cx="0.162" cy="0.291" rx="0.162" ry="0.291" transform="translate(201.987 70.157)"/><ellipse class="u" cx="0.162" cy="0.291" rx="0.162" ry="0.291" transform="translate(206.615 70.157)"/><circle class="j" cx="0.925" cy="0.925" r="0.925" transform="translate(203.651 66.09)"/><path class="j" d="M931.43,363.17s.923,1.846,3.707.923l-.923-.923Z" transform="translate(-728.707 -295.228)"/><rect class="b" width="51.001" height="2.218" transform="translate(111.12 41.176)"/><rect class="b" width="51.001" height="2.218" transform="translate(111.12 45.613)"/><rect class="b" width="28.826" height="2.218" transform="translate(109.594 50.052)"/><rect class="b" width="42.132" height="2.218" transform="translate(110.462 54.489)"/><rect class="b" width="35.478" height="2.218" transform="translate(110.012 58.928)"/><rect class="b" width="51.001" height="2.218" transform="translate(111.12 63.365)"/><rect class="b" width="44.347" height="17.739" transform="translate(113.109 70.029)"/><path class="v" d="M57.483,167.207H33.09V34.16H177.224V45.247" transform="translate(-25.453 -26.276)"/><g class="g" transform="translate(0 0)"><circle class="w" cx="8.378" cy="8.378" r="8.378" transform="translate(0 0)"/></g><circle class="x" cx="7.884" cy="7.884" r="7.884" transform="translate(0.494 0.494)"/><path class="b" d="M19.382,22.66l2.956,2.71,4.187-6.16L28,20.442l-5.666,7.392L18.15,23.154Z" transform="translate(-13.961 -14.776)"/><rect class="y" width="63.967" height="99.159" rx="17.17" transform="translate(43.186 76.841) rotate(-0.08)"/><rect class="z" width="55.241" height="83.167" transform="translate(47.967 84.409) rotate(-0.08)"/><rect class="b" width="60.076" height="94.592" rx="12.68" transform="translate(45.261 78.336) rotate(-0.08)"/><rect class="c" width="51.881" height="79.338" transform="translate(49.74 85.559) rotate(-0.08)"/><ellipse class="d" cx="2.137" cy="2.19" rx="2.137" ry="2.19" transform="translate(74.589 166.754)"/><ellipse class="d" cx="0.713" cy="0.729" rx="0.713" ry="0.729" transform="translate(66.206 81.307) rotate(-0.08)"/><rect class="d" width="9.264" height="0.729" rx="0.365" transform="translate(71.143 81.592) rotate(-0.08)"/><rect class="e" width="20.296" height="21.312" transform="translate(77.233 134.403)"/><rect class="f" width="18.533" height="19.458" transform="translate(78.14 135.331)"/><g class="g" transform="translate(81.636 137.417)"><path class="aa" d="M470.041,670.425l-.231-.083-.014.021h-.014v-.628a1.439,1.439,0,0,0-.018-.231,2.4,2.4,0,0,0,.824-1.087,2.832,2.832,0,1,0-4.484,0,2.4,2.4,0,0,0,.824,1.087,1.439,1.439,0,0,0-.018.231v.692h0a5.871,5.871,0,0,0-4.309,5.659v5.149h11.736v-5.158a5.871,5.871,0,0,0-4.3-5.652Z" transform="translate(-462.6 -663.855)"/></g><path class="ab" d="M327.031,622.76h.715a5.292,5.292,0,0,1,5.292,5.292v5.308H321.73v-5.308a5.292,5.292,0,0,1,5.3-5.292Z" transform="translate(-239.884 -478.903)"/><rect class="ac" width="2.767" height="3.46" rx="1.384" transform="translate(86.104 142.013)"/><path class="ac" d="M343.45,629.3l.517.752.545-.752Z" transform="translate(-256.473 -483.934)"/><path class="l" d="M471.685,710.11s-.549,5.468-.194,5.823" transform="translate(-387.926 -562.018)"/><path class="l" d="M502.17,710.11s.549,5.468.194,5.823" transform="translate(-410.927 -562.018)"/><path class="m" d="M482.956,685.623a2.308,2.308,0,0,0,1.366-.448,1.385,1.385,0,0,0-1.366-1.165h0a1.385,1.385,0,0,0-1.366,1.166A2.308,2.308,0,0,0,482.956,685.623Z" transform="translate(-395.469 -541.942)"/><circle class="ad" cx="2.726" cy="2.726" r="2.726" transform="translate(84.728 137.716)"/><circle class="ac" cx="2.306" cy="2.306" r="2.306" transform="translate(85.159 138.991)"/><path class="m" d="M479.46,668.709l.582.711s2.555.231,2.846-.355-1.682-1-1.682-1Z" transform="translate(-393.852 -529.699)"/><path class="ad" d="M479.46,668.429l.582.711s2.555.231,2.846-.356-1.682-1-1.682-1Z" transform="translate(-393.852 -529.484)"/><ellipse class="ac" cx="0.162" cy="0.291" rx="0.162" ry="0.291" transform="translate(84.821 140.88)"/><ellipse class="ac" cx="0.162" cy="0.291" rx="0.162" ry="0.291" transform="translate(89.894 140.88)"/><path class="ad" d="M479.165,663.237a1.384,1.384,0,0,1,.711-.478,3.708,3.708,0,0,1,1.588-.374.268.268,0,0,1,.15.044.516.516,0,0,1,.09.132c.166.247.632.231.692.522.016.095-.023.2,0,.288.06.231.385.208.577.339a.526.526,0,0,1,.046.734,1.385,1.385,0,0,1-.706.4,2.724,2.724,0,0,1-1.489.132C480.125,664.8,478.489,664.343,479.165,663.237Z" transform="translate(-393.487 -525.331)"/><rect class="e" width="20.296" height="21.312" transform="translate(54.238 134.173)"/><rect class="f" width="18.533" height="19.458" transform="translate(55.165 135.1)"/><g class="g" transform="translate(58.736 137.186)"><path class="aa" d="M380.041,669.425l-.231-.083-.014.021h-.014v-.628a1.439,1.439,0,0,0-.018-.231,2.4,2.4,0,0,0,.824-1.087,2.832,2.832,0,1,0-4.484,0,2.4,2.4,0,0,0,.824,1.087,1.446,1.446,0,0,0-.018.231v.692h0a5.871,5.871,0,0,0-4.309,5.659v5.149h11.736v-5.158A5.871,5.871,0,0,0,380.041,669.425Z" transform="translate(-372.6 -662.855)"/></g><path class="s" d="M237.031,621.76h.715a5.292,5.292,0,0,1,5.292,5.292v5.308H231.73v-5.308a5.292,5.292,0,0,1,5.3-5.292Z" transform="translate(-172.78 -478.134)"/><rect class="k" width="2.767" height="3.46" rx="1.384" transform="translate(63.296 141.782)"/><path class="l" d="M381.685,709.11s-.549,5.468-.194,5.823" transform="translate(-320.71 -561.249)"/><path class="l" d="M412.17,709.11s.549,5.468.194,5.823" transform="translate(-343.712 -561.249)"/><path class="m" d="M392.956,684.623a2.308,2.308,0,0,0,1.366-.448,1.385,1.385,0,0,0-1.366-1.165h0a1.385,1.385,0,0,0-1.366,1.166A2.308,2.308,0,0,0,392.956,684.623Z" transform="translate(-328.277 -541.173)"/><circle class="ad" cx="2.726" cy="2.726" r="2.726" transform="translate(61.893 137.485)"/><circle class="k" cx="2.306" cy="2.306" r="2.306" transform="translate(62.332 138.76)"/><path class="m" d="M389.46,667.709l.582.711s2.555.231,2.846-.355-1.683-1-1.683-1Z" transform="translate(-326.667 -528.93)"/><path class="ad" d="M389.46,667.429l.582.711s2.555.231,2.846-.355-1.683-1-1.683-1Z" transform="translate(-326.667 -528.715)"/><ellipse class="k" cx="0.162" cy="0.291" rx="0.162" ry="0.291" transform="translate(62.036 140.624)"/><ellipse class="k" cx="0.162" cy="0.291" rx="0.162" ry="0.291" transform="translate(67.109 140.624)"/><rect class="b" width="37.696" height="1.639" transform="translate(55.63 95.58)"/><rect class="b" width="37.696" height="1.639" transform="translate(55.63 98.859)"/><rect class="b" width="21.307" height="1.639" transform="translate(55.125 102.139)"/><rect class="b" width="31.141" height="1.639" transform="translate(55.417 105.421)"/><rect class="b" width="26.223" height="1.639" transform="translate(55.267 108.701)"/><rect class="b" width="37.696" height="1.639" transform="translate(55.63 111.98)"/><rect class="b" width="32.78" height="13.111" transform="translate(57.295 116.908)"/><path class="ad" d="M387.818,668.748a3.752,3.752,0,0,0,.288-.646,1.586,1.586,0,0,1,2.823-.111c.189.339.252.741.462,1.069a.27.27,0,0,0,.39-.072.512.512,0,0,0,.025-.439c-.048-.143-.129-.275-.182-.415a3.289,3.289,0,0,0-.231-.665,1.37,1.37,0,0,0-.462-.385,2.143,2.143,0,0,0-1.678-.462,2.165,2.165,0,0,0-.547.279l-.734.462a2.306,2.306,0,0,0-.623.51c-.159.208-.462.829-.321,1.1C387.195,669.274,387.673,668.939,387.818,668.748Z" transform="translate(-324.788 -528.554)"/><path class="b" d="M253.24,628v9.17h1.355l-.2-9.17Z" transform="translate(-189.101 -482.934)"/><path class="k" d="M252.26,627.46l.785,1.142.826-1.142Z" transform="translate(-188.362 -482.518)"/></svg>