<svg xmlns="http://www.w3.org/2000/svg" xmlns:xlink="http://www.w3.org/1999/xlink" width="808.599" height="573.239" viewBox="0 0 808.599 573.239"><defs><style>.a,.c{fill:#4e3e83;}.a,.i{opacity:0.1;}.b{fill:none;stroke:#535461;stroke-miterlimit:10;stroke-width:2px;}.d{fill:#ffd037;}.e{fill:#a8a8a8;}.f{opacity:0.2;}.g{fill:url(#a);}.h{fill:#474059;}.j{fill:#fff;}.k{fill:#d6d6e3;}.l{fill:#8499f0;}.m{fill:#fc6681;}.n{fill:#ffc74c;}.o{fill:#85d459;}.p{fill:url(#b);}.q{fill:url(#c);}.r{fill:#f7bbc3;}.s{fill:#b77983;}.t{fill:#605d82;}.u,.w{opacity:0.05;}.v{fill:#d9d9ea;}.x{fill:#a1616a;}</style><linearGradient id="a" x1="0.5" y1="1" x2="0.5" gradientUnits="objectBoundingBox"><stop offset="0" stop-color="gray" stop-opacity="0.251"/><stop offset="0.54" stop-color="gray" stop-opacity="0.122"/><stop offset="1" stop-color="gray" stop-opacity="0.102"/></linearGradient><linearGradient id="b" y2="0" xlink:href="#a"/><linearGradient id="c" y2="0" xlink:href="#a"/></defs><g transform="translate(0)"><path class="a" d="M153.172,627.435c-3.3,6.688,1.452,13.906-.211,20.811-2.062,8.714-13.891,15.5-26.635,19.824s-26.976,6.956-39.4,11.618c-5.373,2.011-10.972,5.722-8.176,9.135.966,1.184,2.781,2.011,4.546,2.788,36.176,15.8,80.9,24.384,125.622,24.108,47.257-.3,93.542-10.166,140.763-9.033,60.909,1.452,119.813,21.1,180.032,15.438,25.567-2.4,49.319-9.258,74.2-13.535,36.612-6.3,75.119-6.927,113.031-9,28.472-1.554,61-5.584,74.611-20.731,9.832-10.95,5.707-25.415-8.147-34.688s-35.988-13.237-56.443-11.437c-10.994.966-21.922,3.471-32.909,2.476-6.383-.581-12.294-2.309-18.1-4.008-45.021-13.216-91.7-26.4-141.707-28.32C452.894,599.74,377.549,626.52,298.32,638.1c-12.344,1.8-25.734,3.188-37.389.167-12.286-3.188-20.332-10.718-32.626-13.891-5.809-1.51-12.344-1.946-18.088-3.587-15.779-4.517-8.474-10.725-30.338-6.535C168.406,616.441,156.853,619.97,153.172,627.435Z" transform="translate(-52.732 -203.905)"/><path class="b" d="M759.52,257.563S813.6,172.547,820.138,136.24s18.88-69.71,18.88-69.71" transform="translate(-239.37 -57.09)"/><path class="c" d="M873.129,166.53,839,169.435S857.154,200.659,873.129,166.53Z" transform="translate(-261.137 -84.476)"/><path class="c" d="M803.553,140.53l27.027,21.646S795.566,176.111,803.553,140.53Z" transform="translate(-251.105 -77.356)"/><path class="c" d="M880.41,125.53l-30.73,4.117S876.78,151.671,880.41,125.53Z" transform="translate(-264.061 -73.248)"/><path class="c" d="M821.805,110.53l20.288,14.24S817.448,135.219,821.805,110.53Z" transform="translate(-256.286 -69.14)"/><path class="c" d="M860.31,90.673S885.5,84,889.131,85.452s1.452,17.427-8.714,18.154S860.31,90.673,860.31,90.673Z" transform="translate(-266.973 -62.215)"/><path class="c" d="M834.689,66.53s15.975,15.249,16.7,18.88-13.071,12.344-20.332,0S834.689,66.53,834.689,66.53Z" transform="translate(-258.278 -57.09)"/><circle class="d" cx="7.261" cy="7.261" r="7.261" transform="translate(598.922 3.631)"/><circle class="d" cx="7.261" cy="7.261" r="7.261" transform="translate(585.851)"/><path class="b" d="M201.454,597.3s-23.106-60.647-4.945-108.014a98.329,98.329,0,0,0,3.151-62.121A165.369,165.369,0,0,0,188.71,399" transform="translate(-83.049 -148.14)"/><path class="c" d="M193.817,352.953c.588,7.61-11.466,30.738-11.466,30.738s-15.489-20.985-16.077-28.6a13.816,13.816,0,0,1,27.55-2.142Z" transform="translate(-76.893 -132.039)"/><path class="c" d="M230.019,405.655c-3.631,6.71-26.33,19.57-26.33,19.57s-1.59-26.032,2.048-32.742a13.816,13.816,0,0,1,24.289,13.172Z" transform="translate(-87.057 -144.374)"/><path class="c" d="M234.124,502.955c-6.535,3.95-32.6,3.631-32.6,3.631s11.771-23.28,18.292-27.23a13.816,13.816,0,1,1,14.312,23.636Z" transform="translate(-86.557 -169.598)"/><path class="c" d="M222.409,579.653c-5.766,5-31.529,9.055-31.529,9.055s7.668-24.936,13.426-29.932a13.816,13.816,0,1,1,18.1,20.877Z" transform="translate(-83.643 -190.971)"/><path class="c" d="M162.267,436.2c5.867,4.88,31.711,8.394,31.711,8.394s-8.184-24.769-14.058-29.641A13.814,13.814,0,1,0,162.26,436.2Z" transform="translate(-74.441 -151.636)"/><path class="c" d="M147.877,524.679c7.058,2.9,32.771-1.452,32.771-1.452S165.4,502.046,158.37,499.148a13.815,13.815,0,1,0-10.493,25.56Z" transform="translate(-69.519 -175.282)"/><path class="c" d="M147.894,613.594c6.47,4.045,32.553,4.081,32.553,4.081s-11.429-23.454-17.892-27.47a13.814,13.814,0,0,0-14.661,23.418Z" transform="translate(-70.095 -199.926)"/><path class="c" d="M193.817,352.953c.588,7.61-11.466,30.738-11.466,30.738s-15.489-20.985-16.077-28.6a13.816,13.816,0,0,1,27.55-2.142Z" transform="translate(-76.893 -132.039)"/><path class="c" d="M230.019,405.655c-3.631,6.71-26.33,19.57-26.33,19.57s-1.59-26.032,2.048-32.742a13.816,13.816,0,0,1,24.289,13.172Z" transform="translate(-87.057 -144.374)"/><path class="c" d="M234.124,502.955c-6.535,3.95-32.6,3.631-32.6,3.631s11.771-23.28,18.292-27.23a13.816,13.816,0,1,1,14.312,23.636Z" transform="translate(-86.557 -169.598)"/><path class="c" d="M222.409,579.653c-5.766,5-31.529,9.055-31.529,9.055s7.668-24.936,13.426-29.932a13.816,13.816,0,1,1,18.1,20.877Z" transform="translate(-83.643 -190.971)"/><path class="c" d="M162.267,436.2c5.867,4.88,31.711,8.394,31.711,8.394s-8.184-24.769-14.058-29.641A13.814,13.814,0,1,0,162.26,436.2Z" transform="translate(-74.441 -151.636)"/><path class="c" d="M147.877,524.679c7.058,2.9,32.771-1.452,32.771-1.452S165.4,502.046,158.37,499.148a13.815,13.815,0,1,0-10.493,25.56Z" transform="translate(-69.519 -175.282)"/><path class="c" d="M147.894,613.594c6.47,4.045,32.553,4.081,32.553,4.081s-11.429-23.454-17.892-27.47a13.814,13.814,0,0,0-14.661,23.418Z" transform="translate(-70.095 -199.926)"/><path class="e" d="M243.683,651.957s-17.529-2.113-22.51-6.354-26.294-10.689-28.153-4.756-29.1,27.724-9.273,29.663,46.408,1.017,51.948-1.728S243.683,651.957,243.683,651.957Z" transform="translate(-79.72 -213.716)"/><path class="f" d="M183.609,673.433c19.831,1.932,46.379,1.024,51.955-1.721,4.248-2.091,6.637-10.747,7.537-14.762l.588.073s-2.382,14.073-7.988,16.825-32.124,3.631-51.955,1.721c-5.722-.559-7.523-2.774-7.145-5.809C177.263,671.683,179.347,673.02,183.609,673.433Z" transform="translate(-79.72 -218.782)"/><path class="a" d="M803.47,389.787c-28.465,39.008-19.025,94.689-2.614,139.049,5.5,14.85,11.756,30.556,8.9,46.713-3.486,19.751-19.867,34.55-36.9,42.61-31.043,14.69-67.713,12.344-95.48-6.165-23.963-15.975-40.831-42.523-65.258-57.736-40.882-25.451-93.956-14.08-139.455,5.352-32.19,13.746-67.451,31.449-98.821,18.756-22.075-8.932-36.939-31.667-44.759-55.971-3.776-11.734-6.419-24.471-13.942-33.657-4.473-5.461-10.384-9.266-16.462-12.446-55.47-29.046-126.821-10.892-180.6-43.3-36.307-21.886-58.9-64.358-68.294-109.008S42.728,232.2,46.468,185.872c2.658-32.923,6.862-68.1,26.657-93.977,20.935-27.361,56.022-38.239,87.4-33.947s59.5,21.741,84.116,42.508c30.781,25.967,59.1,58.549,97.383,68.381,26.076,6.71,53.778,1.961,80.885-.138,45.311-3.5,90.463.53,135.338,5.083,42.958,4.357,86.215,9.222,126.9,23.505,28.792,10.108,51.614,29.213,78.721,42.269,17.667,8.51,37.106,10.485,53.734,21.479,20.521,13.543,39.066,37.534,33.047,66.326C844.962,354.729,818.574,369.085,803.47,389.787Z" transform="translate(-43.2 -54.492)"/><path class="g" d="M718.651,135h-474.1A18.538,18.538,0,0,0,226,153.517v276.3a18.538,18.538,0,0,0,18.553,18.517H435.47v68.09H417.505a4.429,4.429,0,0,0-4.429,4.422v9.178H552.408v-9.193a4.43,4.43,0,0,0-4.429-4.422H525.04v-68.1H718.651A18.538,18.538,0,0,0,737.2,429.813v-276.3A18.538,18.538,0,0,0,718.651,135Z" transform="translate(-93.261 -75.841)"/><rect class="h" width="88.059" height="84.973" transform="translate(343.378 359.571)"/><rect class="i" width="88.059" height="7.537" transform="translate(343.378 437.007)"/><path class="h" d="M446.917,603H575.19a4.357,4.357,0,0,1,4.357,4.357v9.062H442.56v-9.062A4.357,4.357,0,0,1,446.917,603Z" transform="translate(-121.199 -165.137)"/><rect class="h" width="502.599" height="308.683" rx="25.12" transform="translate(137.437 62.063)"/><rect class="j" width="480.379" height="252.174" transform="translate(148.017 98.116)"/><ellipse class="j" cx="4.233" cy="4.183" rx="4.233" ry="4.183" transform="translate(383.976 80.907)"/><rect class="i" width="87.783" height="1.656" transform="translate(343.567 370.957)"/><path class="k" d="M604.254,269.75a100.207,100.207,0,0,0,35.944,173.4l28-96.243Z" transform="translate(-186.911 -112.744)"/><path class="k" d="M684.884,238a99.793,99.793,0,0,0-63.944,23.055l63.944,77.153,52.95-85.082A99.728,99.728,0,0,0,684.884,238Z" transform="translate(-201.419 -104.049)"/><path class="l" d="M698.44,376l-28,96.236a100.266,100.266,0,0,0,128.208-94.471Z" transform="translate(-214.975 -141.841)"/><rect class="l" width="36.307" height="21.784" transform="translate(190.83 185.507)"/><rect class="m" width="36.307" height="21.784" transform="translate(190.83 223.267)"/><rect class="c" width="36.307" height="21.784" transform="translate(190.83 261.026)"/><rect class="k" width="68.257" height="8.714" transform="translate(246.743 192.043)"/><rect class="k" width="68.257" height="8.714" transform="translate(246.743 229.802)"/><rect class="k" width="68.257" height="8.714" transform="translate(246.743 267.561)"/><rect class="k" width="480.706" height="8.714" transform="translate(147.988 97.644)"/><circle class="m" cx="2.178" cy="2.178" r="2.178" transform="translate(151.618 99.823)"/><circle class="n" cx="2.178" cy="2.178" r="2.178" transform="translate(157.427 99.823)"/><circle class="o" cx="2.178" cy="2.178" r="2.178" transform="translate(163.237 99.823)"/><path class="c" d="M951.336,594.55s3.464,4.531-1.6,11.371-9.236,12.613-7.552,16.883c0,0,7.639-12.707,13.862-12.882S958.184,602.189,951.336,594.55Z" transform="translate(-289.291 -201.693)"/><path class="i" d="M951.416,594.55a5.609,5.609,0,0,1,.726,1.452c6.071,7.131,9.3,13.8,3.471,13.949-5.432.152-11.952,9.868-13.513,12.344a5.222,5.222,0,0,0,.181.559s7.639-12.708,13.862-12.882S958.264,602.189,951.416,594.55Z" transform="translate(-289.371 -201.693)"/><path class="d" d="M963.5,602.113c0,1.6-.182,2.9-.4,2.9s-.4-1.293-.4-2.9.225-.842.443-.842S963.5,600.516,963.5,602.113Z" transform="translate(-295.013 -203.483)"/><path class="d" d="M965.82,604.707c-1.4.762-2.621,1.227-2.723,1.031s.944-.973,2.345-1.736.849-.211.951,0S967.222,603.945,965.82,604.707Z" transform="translate(-295.12 -204.175)"/><path class="c" d="M926.8,594.55s-3.464,4.531,1.6,11.371,9.236,12.613,7.552,16.883c0,0-7.639-12.707-13.862-12.882S919.956,602.189,926.8,594.55Z" transform="translate(-283.05 -201.693)"/><path class="i" d="M926.792,594.55a5.612,5.612,0,0,0-.726,1.452c-6.071,7.131-9.3,13.8-3.471,13.949,5.432.152,11.952,9.868,13.513,12.344a5.253,5.253,0,0,1-.181.559s-7.639-12.707-13.862-12.882S919.952,602.189,926.792,594.55Z" transform="translate(-283.046 -201.693)"/><path class="d" d="M920.86,602.113c0,1.6.182,2.9.4,2.9s.4-1.293.4-2.9-.225-.842-.443-.842S920.86,600.516,920.86,602.113Z" transform="translate(-283.555 -203.483)"/><path class="d" d="M917.5,604.707c1.4.762,2.621,1.227,2.723,1.031s-.944-.973-2.345-1.736-.85-.211-.951,0S916.1,603.945,917.5,604.707Z" transform="translate(-282.401 -204.175)"/><path class="e" d="M960.89,631.351s-9.527-1.9-12.068-4.444-13.978-6.986-15.249-3.812-17.151,13.978-6.354,15.881,25.415,2.542,28.588,1.271S960.89,631.351,960.89,631.351Z" transform="translate(-284.272 -209.209)"/><path class="f" d="M927.219,641.3c10.8,1.9,25.415,2.541,28.588,1.271,2.418-.966,4.1-5.613,4.763-7.777l.32.065s-1.9,7.625-5.083,8.9-17.79.632-28.588-1.271c-3.115-.552-4.008-1.844-3.674-3.478C923.814,640.062,924.9,640.89,927.219,641.3Z" transform="translate(-284.272 -212.713)"/><path class="p" d="M839.921,429.631a108.841,108.841,0,0,0-51.367-92.481L731,429.631l108.921,1.917Z" transform="translate(-231.56 -131.202)"/><path class="c" d="M837.208,427.442A100.134,100.134,0,0,0,789.95,342.36L737,427.442l100.208,1.794Z" transform="translate(-233.203 -132.629)"/><path class="q" d="M1010.753,287.19a3.96,3.96,0,0,0-.08-.806q-.08-.385-.145-.886-.16-.871-.356-1.685-.1-.407-.211-.8a21.611,21.611,0,0,0-4.2-8.191l-.341-.392q-.341-.378-.668-.726a8.561,8.561,0,0,0-.646-.624c-.211-.2-.421-.378-.617-.545-.4-.334-.77-.61-1.1-.842s-.472-.32-.668-.436a3.71,3.71,0,0,0-1.568-.523l-3.456-.349h0l-4.676-.465-16.89-6.666-.668.24a40.191,40.191,0,0,1-1.249-4.219,3.762,3.762,0,0,0,1.336-.988,3.092,3.092,0,0,0,.915-1.2c.421-.995-.392-3.13-.225-4.357a21.166,21.166,0,0,1,2.077-5.613,26.452,26.452,0,0,0,2.8-12.1c-.2-4.175-2.077-8.416-5.548-10.747-1.793-1.205-3.907-1.852-5.766-2.955-1.452-.857-2.73-1.975-4.117-2.941a23.3,23.3,0,0,0-23.237-1.692c-3.507,1.757-6.5,4.357-9.81,6.492s-7.211,3.725-11.081,3.108a2.552,2.552,0,0,0-.116.487l-.327-.044c-.668,1.852.966,3.674,2.476,4.938,2.861,2.4,6.1,4.785,9.832,4.872,1.452,0,2.963-.276,4.277.327a3.813,3.813,0,0,1,.8.508,19.1,19.1,0,0,0,5.78,18.843l-8.619-3.151s-.363.189-.915.545l-11.974-8.1s-24-8.9-30.665,4.894,28.893,6.644,28.893,6.644l7.61,4.248a7.159,7.159,0,0,0,.835,4.633l20.746,13.034c-4.19,1.314-11.081,3.413-12.3,3.413-1.779,0-6.666,1.779-9.781,8.888s-14.225,41.782-24,47.555-35.581,44.447-35.581,44.447l.116.3q-.69.182-1.351.407a27.305,27.305,0,0,0-13.4,10.275,4.357,4.357,0,0,0,3.006,6.869c10.166,1.307,15.735-3.456,18.408-7.058.174-.232.334-.465.487-.683a3.522,3.522,0,0,0,2.512.116l12.461-10.21s-9.708,9.73-4.03,18.611l-.436.617a142.569,142.569,0,0,0-20.869,46.125s-5.337,4-5.809,20S852.8,510.42,852.8,510.42s-3.558,30.665-1.336,40c0,0,.254.37.726.937-.167.2-.349.414-.552.639-1.939,2.128-5.439,5.083-9.512,4.2-6.223-1.336-6.223,9.781,2.665,10.667,5.722.574,16.977,3.173,24.26,4.952a5.141,5.141,0,0,0,6.339-5.541c-.436-3.979-1.227-8.8-2.665-12.228-.087-.211-.182-.421-.276-.624.261-.247.523-.5.784-.777,0,0,0-19.555,3.108-24.892,0,0,8.445-40.446,7.988-50.67-.349-7.988,21.908-39.146,31.594-52.282l-.08-.5c2.563-3.4,4.139-5.431,4.139-5.431l7.559,48.448s3.558,10.667,7.988,16.447c0,0,19.112,36.888,21.334,48.448,1.685,8.765,5.156,13.942,6.739,15.939-.182.189-.378.378-.581.566-2.019,1.888-5.01,3.776-8.38,3.057-6.223-1.336-6.223,9.781,2.665,10.667,5.722.574,16.977,3.173,24.26,4.952a5.141,5.141,0,0,0,6.339-5.54c-.5-4.625-1.5-10.377-3.413-13.8q-.247-.428-.508-.806a4.7,4.7,0,0,0,1.765-1.264s-11.553-28-11.553-35.581c0,0-4.887-28.893-21.334-39.56,0,0,1.554-36.133,6.238-56.24q.174-.726.356-1.452a130.221,130.221,0,0,0,12.969-2.745l.443-13.332,2.222,10.667,24.892-15.554s-.218-2.8-.639-7.1c-.211-2.178-.472-4.669-.784-7.407-.247-2.178-.53-4.509-.842-6.884q-.116-.893-.24-1.786c-.327-2.4-.683-4.822-1.068-7.189q-.218-1.336-.45-2.643c-.2-1.162-.414-2.3-.632-3.406q-.167-.828-.334-1.634t-.341-1.583q-.174-.777-.356-1.518l-.182-.726q-.182-.726-.37-1.409a25.836,25.836,0,0,1-.9-5.809q-.044-1.176,0-2.345a21.227,21.227,0,0,1,.218-2.338q.08-.581.189-1.162a26.771,26.771,0,0,1,1.263-4.538q.414-1.111.93-2.178c.806-1.677,1.67-3.5,2.556-5.417q.668-1.452,1.351-2.941t1.365-3.05c4.357-9.8,8.6-20.717,9.738-27.891.123-.726.2-1.452.254-2.135a14.516,14.516,0,0,0,.043-1.91Z" transform="translate(-260.794 -97.573)"/><path class="r" d="M956.666,272.227l-14.661-9.919s-23.28-8.619-29.772,4.742,28.022,6.47,28.022,6.47l14.661,8.191Z" transform="translate(-280.97 -109.957)"/><path class="s" d="M1022,684.771c-7.073-1.721-17.979-4.248-23.534-4.8-8.619-.864-8.619-11.618-2.585-10.348,3.275.726,6.172-1.133,8.133-2.963a19.04,19.04,0,0,0,1.714-1.83,4.981,4.981,0,0,1,2.788-1.706c3.231-.726,9.963-1.772,14.1.457a6.085,6.085,0,0,1,2.229,2.447c1.859,3.3,2.825,8.873,3.311,13.361a4.989,4.989,0,0,1-6.158,5.381Z" transform="translate(-302.937 -220.229)"/><path class="s" d="M871.8,690.711c-7.073-1.721-17.979-4.248-23.534-4.8-8.619-.864-8.619-11.618-2.585-10.347,3.95.85,7.349-2,9.229-4.066.225-.254.436-.494.617-.726a4.982,4.982,0,0,1,2.788-1.706c3.231-.726,9.963-1.772,14.1.457a7.7,7.7,0,0,1,2.955,3.943,45.6,45.6,0,0,1,2.585,11.865,4.989,4.989,0,0,1-6.158,5.381Z" transform="translate(-261.803 -221.856)"/><path class="i" d="M880.435,673.459c-10.3,10.609-19.119-.2-20.455-1.982.225-.254.436-.494.617-.726a4.982,4.982,0,0,1,2.788-1.706c3.231-.726,9.963-1.772,14.1.457A7.8,7.8,0,0,1,880.435,673.459Z" transform="translate(-266.882 -221.85)"/><path class="i" d="M1029.506,666.026c-4.458,3.05-19.475,2.295-19.475,2.295a14.777,14.777,0,0,1-1.351-1.67,19.041,19.041,0,0,0,1.714-1.83,4.981,4.981,0,0,1,2.788-1.706c3.231-.726,9.963-1.772,14.1.457A6.086,6.086,0,0,1,1029.506,666.026Z" transform="translate(-307.605 -220.226)"/><path class="t" d="M989.228,610.061c-3.021,3.878-20.259,3.021-20.259,3.021s-5.17-5.17-7.327-16.382-20.659-47-20.659-47c-4.313-5.606-7.762-15.975-7.762-15.975l-7.327-46.989s-35.385,46.575-34.956,56.5-7.762,49.145-7.762,49.145c-3.021,5.17-3.021,24.144-3.021,24.144-11.212,11.618-20.7-2.178-20.7-2.178-2.178-9.055,1.293-38.8,1.293-38.8s5.17-25,5.606-40.526S872,515.648,872,515.648a138.279,138.279,0,0,1,20.245-44.716,71.507,71.507,0,0,1,4.357-5.722l69.8,8.191a44.1,44.1,0,0,0-3.006,9.251c-4.538,19.5-6.049,54.555-6.049,54.555,15.975,10.348,20.7,38.369,20.7,38.369C978.016,582.9,989.228,610.061,989.228,610.061Z" transform="translate(-266.543 -166.272)"/><g class="u" transform="translate(602.124 298.931)"><path d="M925.752,500.634l-.893-5.744s-35.32,46.553-34.92,56.479-7.762,49.145-7.762,49.145c-3.021,5.17-3.021,24.144-3.021,24.144a14.791,14.791,0,0,1-6.746,4.357c3.4.893,7.523.24,11.923-4.357,0,0,0-18.967,3.021-24.144,0,0,8.191-39.212,7.763-49.145C894.775,543.621,916.363,513.392,925.752,500.634Z" transform="translate(-872.41 -473.331)"/><path d="M992.7,575.566S987.956,547.544,972,537.2c0,0,1.51-35.044,6.049-54.555a44.1,44.1,0,0,1,3.006-9.251l-69.84-8.191-.457.552,65.128,7.639a44.1,44.1,0,0,0-3.006,9.251c-4.538,19.5-6.049,54.555-6.049,54.555,15.975,10.348,20.7,38.369,20.7,38.369,0,7.327,11.212,34.492,11.212,34.492-1.779,2.287-8.5,2.9-13.717,3.064,4.139.109,16.4.145,18.88-3.064C1003.88,610.058,992.7,582.9,992.7,575.566Z" transform="translate(-882.912 -465.2)"/></g><path class="r" d="M884.1,454.127a15.613,15.613,0,0,1-2.04,3.573c-2.592,3.493-7.988,8.111-17.856,6.848a4.241,4.241,0,0,1-2.9-6.666,26.559,26.559,0,0,1,13-9.963,23.419,23.419,0,0,1,5.5-1.118Z" transform="translate(-267.029 -161.23)"/><path class="v" d="M1002.716,286.092,968.144,273.45s-9.919,5.17-6.034,12.5l33.628,21.123Z" transform="translate(-294.604 -113.757)"/><path class="i" d="M1002.716,286.092,968.144,273.45s-9.919,5.17-6.034,12.5l33.628,21.123Z" transform="translate(-294.604 -113.757)"/><path class="r" d="M1013,261.838s-.428,20.259,8.619,27.158-26.3,10.776-26.3,10.776,5.606-20.7,0-31.471S1013,261.838,1013,261.838Z" transform="translate(-303.708 -110.344)"/><path class="i" d="M979.028,473.406a44.1,44.1,0,0,0-3.006,9.251c-41.7,6.368-70.712-10.979-70.712-10.979-.16-.247-.312-.5-.45-.726a71.5,71.5,0,0,1,4.357-5.722Z" transform="translate(-279.173 -166.278)"/><path class="i" d="M889.3,454.127a15.613,15.613,0,0,1-2.04,3.573c-3.994-.661-7.182-8.293-7.77-9.781a23.419,23.419,0,0,1,5.5-1.118Z" transform="translate(-272.225 -161.23)"/><path class="v" d="M985.442,287.1l-15.518,5.606-6.47,8.619s-13.361,4.313-15.089,4.313-6.47,1.721-9.483,8.619-13.8,40.526-23.28,46.132S881.11,403.5,881.11,403.5s4.313,11.618,9.483,9.919l12.076-9.919s-9.483,9.483-3.878,18.11c0,0,35.349,21.123,84.065,8.191l.428-12.933,2.178,10.347,24.093-15.1s-2.178-27.826-6.056-41.993a25.589,25.589,0,0,1,1.663-17.841c6.259-13.071,15.917-34.855,14.741-42.777-1.387-9.36-6.68-13.426-8.714-14.661a3.63,3.63,0,0,0-1.518-.5l-7.85-.784Z" transform="translate(-272.669 -117.495)"/><path class="w" d="M967.954,346.76s-8.627,40.112-18.11,46.56-34.92,27.158-35.784,30.607" transform="translate(-281.692 -133.834)"/><path class="v" d="M962.607,345s-8.619,40.083-18.1,46.546-34.92,27.158-35.784,30.607" transform="translate(-280.23 -133.352)"/><path class="i" d="M994.21,303.464s29.772-9.919,38.369-7.327" transform="translate(-303.642 -119.852)"/><g class="u" transform="translate(711.321 169.605)"><path d="M1044.354,354.9c6.259-13.071,15.917-34.855,14.741-42.777-1.387-9.36-6.681-13.426-8.714-14.661a3.63,3.63,0,0,0-1.518-.5l-3.355-.334a3.543,3.543,0,0,1,.995.407c2.019,1.234,7.312,5.294,8.714,14.661,1.176,7.944-8.481,29.728-14.741,42.777a25.588,25.588,0,0,0-1.663,17.841c3.892,14.16,6.056,41.993,6.056,41.993L1024.08,427.3l.53,2.527,24.1-15.1s-2.178-27.826-6.056-41.993a25.589,25.589,0,0,1,1.7-17.834Z" transform="translate(-1023.143 -289.71)"/><path d="M993.546,239.6l3.732.378-16.237-6.412-1.452.523Z" transform="translate(-979.59 -233.57)"/></g><path class="w" d="M982.93,400.294s13.361-7.327,17.674-5.606,20.259-.428,20.259-.428" transform="translate(-300.553 -146.842)"/><path class="w" d="M1011.566,267.885c-.494-4.357,1.51-3.631,1.51-3.631s-23.295-4.342-17.7,6.434a24.833,24.833,0,0,1,2.4,9.483h.218C1004.45,280.171,1008.226,272.939,1011.566,267.885Z" transform="translate(-303.723 -111.002)"/><circle class="r" cx="18.538" cy="18.538" r="18.538" transform="translate(675.696 130.371)"/><path class="i" d="M1006.286,254.157a25.643,25.643,0,0,0,2.708-11.742c-.2-4.052-2.019-8.162-5.381-10.427-1.743-1.169-3.791-1.8-5.591-2.868-1.409-.835-2.651-1.917-3.994-2.854a22.6,22.6,0,0,0-22.568-1.641c-3.406,1.706-6.3,4.248-9.512,6.3s-6.993,3.631-10.754,3.013c-.646,1.794.937,3.565,2.4,4.793,2.774,2.324,5.918,4.647,9.534,4.727,1.4,0,2.9-.269,4.146.32a5.955,5.955,0,0,1,2.12,1.968,38.53,38.53,0,0,1,4.393,7.458,6.293,6.293,0,0,0,1.968,2.9c1.663,1.067,3.827.182,5.809.1,3.072-.116,5.809,1.815,8.1,3.878s4.437,4.429,7.305,5.519c2.178.813,6.426.784,7.516-1.772.414-.966-.378-3.035-.218-4.212A18.924,18.924,0,0,1,1006.286,254.157Z" transform="translate(-291.821 -99.765)"/><path class="x" d="M1006.876,253.567a25.645,25.645,0,0,0,2.708-11.742c-.2-4.052-2.019-8.162-5.381-10.427-1.743-1.169-3.79-1.8-5.591-2.868-1.409-.835-2.65-1.917-3.994-2.854a22.6,22.6,0,0,0-22.568-1.641c-3.406,1.706-6.3,4.248-9.512,6.3s-6.993,3.631-10.754,3.013c-.646,1.794.937,3.565,2.4,4.793,2.774,2.324,5.918,4.647,9.534,4.727,1.4,0,2.9-.269,4.146.32a5.953,5.953,0,0,1,2.12,1.968,38.532,38.532,0,0,1,4.422,7.45,6.291,6.291,0,0,0,1.968,2.9c1.663,1.067,3.827.182,5.809.1,3.072-.116,5.809,1.815,8.1,3.878s4.437,4.429,7.305,5.519c2.178.813,6.426.784,7.516-1.772.414-.966-.378-3.035-.218-4.212A19.055,19.055,0,0,1,1006.876,253.567Z" transform="translate(-291.983 -99.603)"/></g></svg>