<svg xmlns="http://www.w3.org/2000/svg" xmlns:xlink="http://www.w3.org/1999/xlink" width="1240" height="845" viewBox="0 0 1240 845"><defs><style>.a{fill:#fff;stroke:#707070;}.b{clip-path:url(#a);}.c{fill:#1b1a21;}.c,.d,.e{fill-rule:evenodd;}.d{fill:#1d1c23;}.e{fill:#212027;}</style><clipPath id="a"><rect class="a" width="1240" height="845" transform="translate(-119 -14325)"/></clipPath></defs><g class="b" transform="translate(119 14325)"><g transform="translate(-119 -14250.297)"><path class="c" d="M2210.019,900.615c65.193,39.161,119.241,86.836,161.813,143.715,100.547,134.336,69.143,268.609,174.587,369.4,120.114,114.812,340.211,57.752,490.76,104.327,116.367,36,301.089,186.34,369.4,142.651,68.739-43.966,46.574-209.739-2.129-389.628-162.281,5.8-307.263-23.761-433.274-92.616-150.166-82.056-209.057-193.611-375.788-275.72-91.083-44.853-188.842-70.261-291.688-78.777Z" transform="translate(-2159.019 -1018.486)"/><path class="d" d="M2580.485,898.486a974.755,974.755,0,0,1,162.877,104.327c91.371,72.5,135.028,148.027,225.686,206.524,120.125,77.51,269.28,95.789,435.4,70.261V1043.265a1091.155,1091.155,0,0,1-268.268-25.549,1093.178,1093.178,0,0,1-310.85-121.359Z" transform="translate(-2161.019 -1015.486)"/><path class="e" d="M2827.462,898.486c22.356,13.226,44.786,25.491,68.132,37.259,89.284,45,168.892,73.218,242.719,89.423a931.953,931.953,0,0,0,265.074,19.162V898.486Z" transform="translate(-2161.019 -1015.486)"/></g></g></svg>