<svg xmlns="http://www.w3.org/2000/svg" width="588" height="537.486" viewBox="0 0 588 537.486"><defs><style>.a{fill:#f2f2f2;}.b{fill:#4e3e83;}.c{opacity:0.1;}.d{fill:#2f2e41;}.e{fill:#a0616a;}.f{fill:#d0cde1;}.g{fill:#575a89;}.h{fill:#3f3d56;}.i{fill:#fff;}</style></defs><g transform="translate(-0.001)"><path class="a" d="M791.386,398.615A208.408,208.408,0,0,0,776.78,215.232l-332.96,46.1,319.082-66.5a207.692,207.692,0,0,0-164.881-81.176c-114.9,0-208.049,93.146-208.049,208.049a209.637,209.637,0,0,0,1.93,28.34Z" transform="translate(-242.471 -79.522)"/><path class="a" d="M409.909,519.317a208.114,208.114,0,0,0,382.214,14.138Z" transform="translate(-248.501 -202.224)"/><path class="b" d="M716.988,508.017c0,81.759-120.546,148.033-269.24,148.033-79.882,0-151.639-19.124-200.942-49.507-32.17-19.818-54.786-44.433-63.859-71.634a84.313,84.313,0,0,1-4.438-26.891c0-81.751,223.118-450.52,269.24-148.025S716.988,426.266,716.988,508.017Z" transform="translate(-178.508 -118.564)"/><path class="c" d="M583.477,676.315c0,30.188-95.335,54.664-212.944,54.664-45.3,0-87.291-3.631-121.8-9.823-32.17-19.818-54.786-44.433-63.859-71.634,36.51-16.636,105.975-27.871,185.661-27.871C488.141,621.651,583.477,646.128,583.477,676.315Z" transform="translate(-180.432 -233.178)"/><path class="d" d="M479.494,240.645C462.618,212.129,429.23,210.8,429.23,210.8s-32.535-4.161-53.406,39.269c-19.453,40.48-46.3,79.564-4.322,89.039l7.583-23.6,4.7,25.358a164.254,164.254,0,0,0,17.961.307c44.956-1.451,87.77.425,86.392-15.707C486.3,304.02,495.733,268.082,479.494,240.645Z" transform="translate(-230.159 -108.872)"/><path class="d" d="M374.749,605.15a66.567,66.567,0,0,1-2.153,9.267c-1.056,2.97-2.686,5.716-3.652,8.716-3.078,9.563,1.189,20.226,8,27.607a45.049,45.049,0,0,0,21.964,13.043c6.148,1.546,12.54,1.769,18.876,1.984,17.544.595,35.539,1.127,52.162-4.511a90.628,90.628,0,0,0,15.155-6.885,11.344,11.344,0,0,0,3.932-3.1c1.268-1.8,1.43-4.146,1.419-6.352-.037-7.437-1.545-14.836-1.187-22.265.2-4.115.968-8.226.589-12.328a22.743,22.743,0,0,0-17.381-19.591c-4.716-1.013-9.607-.461-14.408,0a367.367,367.367,0,0,1-37.5,1.677c-12.792-.082-25.5-2.034-38.233-2.238-3.764-.06-3.688,1.1-4.886,4.743A88.725,88.725,0,0,0,374.749,605.15Z" transform="translate(-235.802 -223.655)"/><path class="e" d="M423.122,341.722c-.615,3.219-1.279,6.555-3.213,9.2-2.225,3.043-5.854,4.782-8.248,7.695-3.6,4.384-3.81,10.553-3.825,16.228-.014,5.228.093,10.8,3.008,15.143,1.892,2.816,4.771,4.791,7.585,6.687,10.933,7.368,22.747,14.868,35.929,15.111,5.462.1,11.318-1.31,14.912-5.424a22.389,22.389,0,0,0,3.61-6.441,85.533,85.533,0,0,0,6.055-26.038c.3-4.208.271-8.538-1.153-12.508-1.6-4.465-4.839-8.138-6.979-12.371a27.541,27.541,0,0,1-2.651-16.3,1.759,1.759,0,0,0-.093-1.181,1.72,1.72,0,0,0-1.418-.574L440.5,329.068a56.878,56.878,0,0,1-7.257-.83c-1.409-.287-5.13-2.288-6.474-1.755C424.284,327.467,423.632,339.052,423.122,341.722Z" transform="translate(-247.873 -143.869)"/><path class="c" d="M423.122,342.892c-.615,3.219-1.279,6.555-3.213,9.2-2.225,3.043-5.854,4.782-8.248,7.695-3.6,4.384-3.81,10.553-3.825,16.228-.014,5.228.093,10.8,3.008,15.143,1.892,2.816,4.771,4.791,7.585,6.687,10.933,7.368,22.747,14.868,35.929,15.111,5.462.1,11.318-1.31,14.912-5.424a22.389,22.389,0,0,0,3.61-6.441,85.533,85.533,0,0,0,6.055-26.038c.3-4.208.271-8.538-1.153-12.508-1.6-4.465-4.839-8.138-6.979-12.371a27.541,27.541,0,0,1-2.651-16.3,1.759,1.759,0,0,0-.093-1.181,1.721,1.721,0,0,0-1.418-.574L440.5,330.238a56.872,56.872,0,0,1-7.257-.83c-1.409-.286-5.13-2.288-6.474-1.755C424.284,328.636,423.632,340.222,423.122,342.892Z" transform="translate(-247.873 -144.223)"/><circle class="e" cx="38.346" cy="38.346" r="38.346" transform="translate(161.898 124.665)"/><path class="f" d="M431.453,410.448a23.518,23.518,0,0,0,6.735,5.382,21.164,21.164,0,0,0,8.414,1.6c6.912.194,14.406-1.072,19.214-6.042,6.2-6.406,5.994-16.738,10.853-24.211a5.394,5.394,0,0,1,1.566-1.712,5.074,5.074,0,0,1,2.663-.612c6.136-.057,11.481,3.922,16.305,7.715,2.161,1.7,4.376,3.459,5.739,5.846a19.814,19.814,0,0,1,1.935,5.927c2.394,11.686,3.169,23.634,3.939,35.538.425,6.575.85,13.156.819,19.745-.1,21.707-5.149,43.051-10.167,64.17-.646,2.721-1.531,5.763-4.006,7.066a9.878,9.878,0,0,1-3.5.853c-14.37,1.688-28.771,3.377-43.238,3.6q-8.469.131-16.93-.41a9.116,9.116,0,0,1-2.852-.5,8.042,8.042,0,0,1-3.109-2.64c-7.826-9.861-8.288-23.495-8.237-36.084q.183-46.169,3.3-92.263c.171-2.536.209-5.617-1.619-7.612C422.571,401.077,427.148,405.949,431.453,410.448Z" transform="translate(-250.827 -161.551)"/><path class="g" d="M400.151,356.586c-1.3,2.344-10.844,8.166-12.687,10.109-10.3,10.856-29.1,10.449-38.517,22.077-3.314,4.091-5.036,9.231-6.3,14.342-1.791,7.228-2.747,15.11.253,21.926,2.887,6.558,8.964,11.091,13.091,16.949,4.531,6.432,6.568,14.241,8.52,21.862,1.441,5.627,2.895,11.394,2.333,17.175-.638,6.574-3.819,12.593-5.7,18.925s-2.2,13.874,2.14,18.85c3.19,3.656,8.195,5.105,12.978,5.92a149.13,149.13,0,0,0,18.5,1.61c5.468.241,11.495.289,15.7-3.217,3.317-2.766,4.758-7.254,4.945-11.569s-.711-8.591-1.273-12.873c-.583-4.439-.807-8.916-.994-13.389q-1.261-30.1-.344-60.247c.127-4.182.282-8.414-.61-12.5-1.173-5.376-4.078-10.18-6.5-15.119-4.812-9.8-7.087-19.327-6.343-30.224C400.07,356.437,404.76,348.244,400.151,356.586Z" transform="translate(-227.647 -151.965)"/><path class="g" d="M497.269,355.78c1.973,2.027,8.676,2.7,11.185,4a39.189,39.189,0,0,0,7.353,2.546,95.462,95.462,0,0,1,25.831,11.855,15.676,15.676,0,0,1,4.319,3.731c1.4,1.953,1.914,4.39,2.39,6.748,1.229,6.087,2.464,12.246,2.188,18.45-.293,6.585-2.276,12.962-4.244,19.252l-7.352,23.5c-5.488,17.545-11.011,35.262-12.555,53.58a126.028,126.028,0,0,0,1.131,30.432,3.608,3.608,0,0,1-.371,2.947,2.9,2.9,0,0,1-1.8.828c-3.548.555-6.982-1.255-10.2-2.855a112.927,112.927,0,0,0-31.13-10.186,72.371,72.371,0,0,0,9.669-19.932,120.636,120.636,0,0,0,2.921-13.708l3.42-19.781a194.365,194.365,0,0,0,2.934-21.875,27.385,27.385,0,0,0-.476-8.24,39.975,39.975,0,0,0-3.124-7.431c-5.637-11.725-8.281-25.1-6.063-37.923.971-5.61,2.857-11.227,2.07-16.866-.756-5.421.03-9.635-1.361-15C488.294,337.831,493.557,351.966,497.269,355.78Z" transform="translate(-270.916 -150.343)"/><path class="g" d="M348.335,424.006c-2.57,5.332-6.866,9.875-8.328,15.611a34.1,34.1,0,0,0-.726,8.159c-.035,4.128-.057,8.34,1.21,12.269.816,2.529,2.144,4.862,3.1,7.342a26.621,26.621,0,0,1,1.744,10.877c-.258,5.136-2,10.122-2.139,15.263-.214,8.085,3.525,15.685,7.174,22.9a16.837,16.837,0,0,1,24.473-8.012c.963-.889,1.065-2.349,1.1-3.658q.4-14.069.78-28.14c.395-14.507.771-29.208-2.566-43.331-1.507-6.377-3.851-12.729-8.149-17.675-2.263-2.6-9.946-9.464-13.661-6.547-1.671,1.312-1.28,4.883-1.545,6.692a28.391,28.391,0,0,1-2.471,8.247Z" transform="translate(-227.133 -168.661)"/><path class="g" d="M561.094,402.844c1.215,3.785,1.288,7.829,1.312,11.8q.074,12.163-.322,24.322c-.135,4.15-.322,8.357-1.58,12.314-.83,2.609-2.11,5.056-2.967,7.657-2.568,7.794-1.165,16.248-.945,24.451a27.78,27.78,0,0,1-.673,7.91c-1.355,5.086-5,9.195-7.54,13.8-2.415,4.377-3.871,9.282-6.755,13.365s-7.876,7.318-12.715,6.064c-3.666-.95-6.271-4.195-8.073-7.526a36.914,36.914,0,0,1-3.817-23.945c1.809-9.957,7.658-18.789,9.767-28.687,2.9-13.591-1.506-27.616-1.375-41.512a20.066,20.066,0,0,1,.875-6.435c1.106-3.174,3.482-5.709,5.678-8.254a104.22,104.22,0,0,0,7.631-10.014c1.572-2.344,3.706-8.372,6.492-8.873C552.306,388.168,559.551,398.039,561.094,402.844Z" transform="translate(-280.726 -162.866)"/><path class="d" d="M290.663,602.486a37.849,37.849,0,0,0-10.529-1.119,26.278,26.278,0,0,0-24.4,30.978,44.139,44.139,0,0,0,4.172,11.4c2.792,5.667,6.141,11.32,11.31,14.951a44.053,44.053,0,0,0,9.982,4.751L308.426,673.7c4.005,1.509,8.011,3.018,12.055,4.417a235.8,235.8,0,0,0,62.967,12.518c6.537.389,13.173.5,19.551-.991,1.513-.353,3.128-.88,4-2.163a6.858,6.858,0,0,0,.895-2.955l1.675-11.728a9.823,9.823,0,0,0-.142-4.944c-.767-1.971-2.691-3.211-4.525-4.264-17.9-10.28-38.8-15.951-53.862-30.06-3.547-3.321-6.515-8.586-10.824-10.843-4.886-2.559-10.641-4.019-15.692-6.376C313.487,611.16,302.63,605.237,290.663,602.486Z" transform="translate(-201.737 -227.035)"/><path class="c" d="M339.675,624.48c9.623,3.015,50.25,23.905,57.214,31.2-.933.336-32.6-17.412-33.554-17.7-8.638-2.592-17.324-5.2-25.528-9-1.65-.763-10.721-4.351-10.31-6.433C327.961,620.2,337.967,623.944,339.675,624.48Z" transform="translate(-223.569 -233.218)"/><path class="e" d="M499.961,727.286a2.261,2.261,0,0,0,1.526-.449,2.356,2.356,0,0,0,.477-1.755q-.022-7.989-.045-15.978c-4.595-2.189-9.734-2.891-14.778-3.565L463.6,702.393c.541.072-3.68,10.138-3.033,11.481,1.141,2.368,9.858,4.467,12.318,5.586C481.441,723.347,490.328,727.621,499.961,727.286Z" transform="translate(-263.804 -257.6)"/><path class="e" d="M404.912,706.959c-4.444.708-9.4,1.334-12.282,4.793-3.65,4.387-2.1,10.927-.355,16.361a7.045,7.045,0,0,0,1.514,2.977c1.188,1.172,3.009,1.344,4.675,1.449,4.053.257,8.366.458,11.907-1.53A52.187,52.187,0,0,0,415,727.571a29.654,29.654,0,0,1,8.5-3.888,85.988,85.988,0,0,1,17.071-3.518,26.555,26.555,0,0,0,6.725-1.185,7.451,7.451,0,0,0,4.736-4.6c.82-2.9-.867-5.864-2.486-8.41-2.016-3.172-4.152-6.512-7.158-8.847-4.386-3.407-6.555-.792-10.973,1.388a93.1,93.1,0,0,1-26.5,8.446Z" transform="translate(-242.602 -255.51)"/><path class="d" d="M371.244,713.175l-28.218-8.34c-3.432-1.014-6.922-2.038-10.5-2.035s-7.323,1.176-9.644,3.9c-2.188,2.568-2.814,6.078-3.36,9.407l-1.167,7.122c-.593,3.619-1.187,7.308-.653,10.937s2.386,7.254,5.606,9.01c3.9,2.13,8.691,1.09,13.049.2a142.061,142.061,0,0,1,26.74-2.868c3.378-.04,6.92,0,9.9-1.58,3.548-1.88,5.67-5.856,6.035-9.854C379.591,722.99,377.563,715.042,371.244,713.175Z" transform="translate(-220.547 -257.723)"/><path class="d" d="M527.788,704.8c3.658-.641,6.886-2.72,10.392-3.947,4.934-1.727,10.28-1.727,15.508-1.708,1.919.007,3.962.05,5.56,1.113,2.3,1.533,2.893,4.6,3.284,7.339l2.362,16.521c.444,3.107.886,6.3.193,9.36s-2.78,6.013-5.818,6.8c-3.69.959-7.307-1.4-10.791-2.946-8.708-3.87-18.83-2.881-27.909-5.773-1.685-.537-3.49-1.358-4.177-2.987a6.8,6.8,0,0,1-.325-2.855c.155-5.31-.965-12.562.634-17.637C518.138,703.518,523.7,704.8,527.788,704.8Z" transform="translate(-280.539 -256.617)"/><path class="d" d="M567.58,592.81a49,49,0,0,1,17.262-1.179c4.615.508,9.369,1.792,12.738,4.987,4.1,3.888,5.418,9.9,5.528,15.55a48.581,48.581,0,0,1-10.559,31.025A28.155,28.155,0,0,1,586.513,649a39.739,39.739,0,0,1-7.854,3.785L517.69,676.836c-16.04,6.326-32.136,12.671-48.866,16.842a3.809,3.809,0,0,1-5.125-1.858,126.317,126.317,0,0,1-13.363-24.444,1.647,1.647,0,0,1,.728-2.6L494.188,640a43.6,43.6,0,0,0,8.777-6.048,21.792,21.792,0,0,0,4.506-6.274c.894-1.867.977-6.273,2.119-7.653,1.118-1.351,4.942-1.459,6.708-1.99a60.864,60.864,0,0,0,7.3-2.761c9.646-4.315,18.237-10.586,27.484-15.639A70.525,70.525,0,0,1,567.58,592.81Z" transform="translate(-260.617 -224.009)"/><path class="c" d="M553.519,617.928c-7.409,5.565-17,10.68-24.345,16.391-2.506,1.949-44.283,25.436-44.873,28.556,6.851,1.154,50.489-29.374,56.733-32.42s11.778-7.342,17.263-11.606c1.4-1.087,7.321-4.353,3.309-5.568C559.345,612.6,555.187,616.816,553.519,617.928Z" transform="translate(-271.003 -230.623)"/><path class="h" d="M477.621,360.015H412.586a9.963,9.963,0,0,0-9.963,9.963v3.648h-.707v8.159h.707V387.5h-.707v4.9h.707v60.2a9.963,9.963,0,0,0,9.963,9.963h65.035a9.962,9.962,0,0,0,9.962-9.962V369.977a9.962,9.962,0,0,0-9.962-9.962Z" transform="translate(-246.084 -154.039)"/><path class="d" d="M308.617,177.481,275.631,160.2l-45.552,7.069L220.655,208.9l23.46-.9,6.554-15.292v15.041l10.825-.416,6.283-24.346L271.7,208.9l38.484-.785Z" transform="translate(-66.743 -48.458)"/><path class="e" d="M361.8,539.688c1.63,2.433,3.539,4.813,6.157,6.125a12.041,12.041,0,0,0,10.584-.284,18.63,18.63,0,0,0,7.638-7.658c3.585-6.33,4.327-13.905,3.88-21.167s-2-14.411-2.684-21.654c-.5-5.265-.539-10.561-.58-15.849a5.271,5.271,0,0,1,.666-3.205c.794-1.084,2.248-1.383,3.536-1.766,7.235-2.15,12.038-8.931,15.481-15.648,2.3-4.485,4.3-9.388,3.855-14.408s-4.052-10.078-9.066-10.59c-4.133-.422-7.95,2.2-10.932,5.1a46.876,46.876,0,0,0-13.725,27.429c-.655,5.1-.467,10.348-1.855,15.3C371.794,492,362.519,498.483,357.9,508,352.8,518.5,355.614,530.406,361.8,539.688Z" transform="translate(-231.97 -176.279)"/><path class="e" d="M541.59,485.582a20,20,0,0,1-11.214,10.775,15.487,15.487,0,0,1-9.748.6,10.81,10.81,0,0,1-7.141-6.388,17.213,17.213,0,0,1-.8-4.8c-.464-7.135-.285-14.488,2.307-21.152,1-2.57,2.348-5.008,3.136-7.651a38.362,38.362,0,0,0,1.181-9.337l.852-19.469a12.672,12.672,0,0,0-.289-4.221c-.85-2.817-3.483-4.648-5.9-6.328-5.834-4.057-11.6-8.791-14.426-15.311a10.739,10.739,0,0,1-1-6.342c.8-3.866,4.7-6.369,8.555-7.212a19.136,19.136,0,0,1,22.941,15.42c.381,2.2.376,4.441.6,6.66.474,4.706,1.968,9.243,2.9,13.88,2.3,11.422,1.109,23.229,3.386,34.649C538.836,468.9,546.014,475.134,541.59,485.582Z" transform="translate(-275.266 -162.595)"/><circle class="f" cx="8.159" cy="8.159" r="8.159" transform="translate(191.732 233.457)"/><circle class="i" cx="38.84" cy="38.84" r="38.84" transform="translate(505.491 258.122)"/><path class="h" d="M939.875,423.632a43.709,43.709,0,1,0,43.709,43.709A43.709,43.709,0,0,0,939.875,423.632Zm21.6,32.624c.023.472.034.955.034,1.439,0,14.746-11.212,31.749-31.738,31.749a31.153,31.153,0,0,1-17.06-5.042,22.584,22.584,0,0,0,2.659.161,22.345,22.345,0,0,0,13.848-4.777,11.163,11.163,0,0,1-10.418-7.747,10.5,10.5,0,0,0,2.1.207,11.217,11.217,0,0,0,2.933-.391,11.155,11.155,0,0,1-8.942-10.937v-.138a10.887,10.887,0,0,0,5.065,1.393,11.167,11.167,0,0,1-3.465-14.9,31.585,31.585,0,0,0,22.977,11.661,10.916,10.916,0,0,1-.288-2.544,11.142,11.142,0,0,1,19.282-7.621,22.145,22.145,0,0,0,7.08-2.705,11.185,11.185,0,0,1-4.9,6.17,22.53,22.53,0,0,0,6.4-1.761,22.693,22.693,0,0,1-5.56,5.779Z" transform="translate(-395.583 -173.281)"/><circle class="i" cx="45.34" cy="45.34" r="45.34" transform="translate(483.901 84.122)"/><circle class="h" cx="7.767" cy="7.767" r="7.767" transform="translate(522.471 121.007)"/><path class="h" d="M917.983,183.859a46.079,46.079,0,1,0,46.079,46.079,46.079,46.079,0,0,0-46.079-46.079Zm23.8,55.379A13.632,13.632,0,0,1,928.19,252.83H908.773a13.632,13.632,0,0,1-13.592-13.592V219.821a13.632,13.632,0,0,1,13.592-13.592H928.19a13.632,13.632,0,0,1,13.592,13.592Z" transform="translate(-388.244 -100.756)"/><path class="h" d="M939.968,221.5H920.551a9.737,9.737,0,0,0-9.708,9.709v19.417a9.737,9.737,0,0,0,9.709,9.709h19.417a9.737,9.737,0,0,0,9.708-9.709V231.206a9.737,9.737,0,0,0-9.708-9.709Zm-9.709,31.067a11.65,11.65,0,1,1,11.651-11.65,11.65,11.65,0,0,1-11.651,11.65Zm12.621-21.359a2.905,2.905,0,1,1,2.062-.851,2.913,2.913,0,0,1-2.062.851Z" transform="translate(-400.022 -112.14)"/><circle class="i" cx="45.34" cy="45.34" r="45.34" transform="translate(297.491 0.122)"/><path class="h" d="M650.339,64.718a45.339,45.339,0,1,0,45.339,45.339A45.339,45.339,0,0,0,650.339,64.718Zm14.3,27.434h-5.8c-3.963,0-4.719,1.874-4.719,4.636v5.87h9.438l-1.233,9.207h-8.2v24.991H643.59V111.866h-7.546v-9.207h7.546V95.852c0-8.155,5.656-12.594,12.94-12.594,3.485,0,7.234.263,8.106.378Z" transform="translate(-307.512 -64.718)"/></g></svg>