<svg xmlns="http://www.w3.org/2000/svg" width="432" height="244.139" viewBox="0 0 432 244.139">
  <g id="undraw_posting_photo_v65l" transform="translate(0 -0.01)">
    <ellipse id="Ellipse_191" data-name="Ellipse 191" cx="216" cy="13.5" rx="216" ry="13.5" transform="translate(0 217.149)" fill="#6c63ff" opacity="0.1"/>
    <path id="Path_936" data-name="Path 936" d="M392.139,501.552l-73.239-.937.218-1.878,3.539-30.987h64.32l4.731,30.987.362,2.347Z" transform="translate(-187.826 -275.49)" fill="#d0d2d5"/>
    <path id="Path_937" data-name="Path 937" d="M392.069,545.487H355.522l-36.622-.469.218-1.878h72.59Z" transform="translate(-187.826 -319.894)" opacity="0.1"/>
    <rect id="Rectangle_647" data-name="Rectangle 647" width="97.185" height="2.347" transform="translate(118.866 223.715)" fill="#d0d2d5"/>
    <path id="Path_938" data-name="Path 938" d="M419.89,159.137A6.112,6.112,0,0,0,413.807,153H142.4a6.112,6.112,0,0,0-6.083,6.141V323.655H419.89Z" transform="translate(-111.116 -152.99)" fill="#3f3d56"/>
    <path id="Path_939" data-name="Path 939" d="M136.32,564.2v19.269a6.083,6.083,0,0,0,6.083,6.083h271.4a6.083,6.083,0,0,0,6.083-6.083V564.2Z" transform="translate(-111.116 -395.179)" fill="#d0d2d5"/>
    <rect id="Rectangle_648" data-name="Rectangle 648" width="261.502" height="147.888" transform="translate(36.942 10.335)" fill="#fff"/>
    <path id="Path_940" data-name="Path 940" d="M475.641,589.911a6.342,6.342,0,0,0,4.986-2.417h0a6.61,6.61,0,0,0,.493-.723l-3.481-.6,3.761.029a6.346,6.346,0,0,0,.119-5.023l-5.043,2.614,4.653-3.42a6.338,6.338,0,1,0-10.469,7.094h0a6.342,6.342,0,0,0,4.982,2.441Z" transform="translate(-307.242 -402.85)" fill="#6c63ff"/>
    <path id="Path_941" data-name="Path 941" d="M425.13,472.89l29.219,29.343-4.484-29.343Z" transform="translate(-250.394 -278.518)" opacity="0.1"/>
    <path id="Path_942" data-name="Path 942" d="M440.481,280.306a.6.6,0,0,0,0-.086,22.727,22.727,0,0,0-1.093-5.989c-.037-.111-.07-.222-.111-.329a22.813,22.813,0,0,0-38.64-7.809,32.276,32.276,0,0,0-1.821-6.379,102.118,102.118,0,0,1-18.085.674,73.022,73.022,0,0,0,11.471,4.168l-.14.522a73.463,73.463,0,0,1-12.82-4.8l-1.233-.6,1.381.09a102.642,102.642,0,0,0,19.244-.555,32.541,32.541,0,0,0-5.672-9c-10.349-1.044-20.621-3.214-30.2-7.522l.222-.489a95.341,95.341,0,0,0,29.433,7.4,32.318,32.318,0,0,0-51.377,5.458,44.411,44.411,0,0,0-11.032-24.941,103.729,103.729,0,0,1-43.675,7.275,73.118,73.118,0,0,0,11.467,4.168l-.14.518a73.569,73.569,0,0,1-12.82-4.792l-1.233-.6,1.377.09a102.3,102.3,0,0,0,44.645-7.065c-.53-.584-1.081-1.155-1.644-1.714-17.7.358-36.971.185-54.419-6.165a44.505,44.505,0,0,0-21.126,37.884c0,8.352,2.293,19.84,6.289,31.365a133.808,133.808,0,0,0,6.272,15.1c1.233,2.466,2.515,4.891,3.88,7.2h0a81.628,81.628,0,0,0,5.409,8.1c.353.464.711.921,1.069,1.365a49.469,49.469,0,0,0,6.749,6.987h0q.748.625,1.508,1.192a28.562,28.562,0,0,0,4.328,2.668,19.869,19.869,0,0,0,8.142,2.211h.674V336H417.6v-.095h.09a6.059,6.059,0,0,0,2.055-.362c4.275-1.517,8.22-7.6,11.48-15.294.723-1.706,1.414-3.49,2.055-5.323.58-1.615,1.13-3.288,1.644-4.932a152.74,152.74,0,0,0,3.8-14.846,78.205,78.205,0,0,0,1.788-13.843C440.505,280.988,440.505,280.647,440.481,280.306Z" transform="translate(-179.509 -193.53)" fill="#6c63ff" opacity="0.1"/>
    <path id="Path_943" data-name="Path 943" d="M358.566,217.953a44.345,44.345,0,0,0-53.276-6C322.364,218.064,341.209,218.29,358.566,217.953Z" transform="translate(-210.637 -184.034)" fill="#6c63ff" opacity="0.1"/>
    <path id="Path_944" data-name="Path 944" d="M620.685,430.336l-18.648-32.3a.6.6,0,0,0-1.032,0l-18.648,32.3a.6.6,0,0,0,.514.892h5.565a.6.6,0,0,1,.6.592v6.9a.592.592,0,0,0,.592.6h7.259a.6.6,0,0,0,.6-.6v-3.329a.592.592,0,0,1,.592-.6h6.9a.6.6,0,0,1,.6.6v3.329a.6.6,0,0,0,.6.6H613.4a.592.592,0,0,0,.563-.411.55.55,0,0,0,.033-.189v-6.9a.6.6,0,0,1,.6-.592h5.561a.6.6,0,0,0,.53-.892Zm-26,3.572a.576.576,0,0,1-.411.177h-2.618a.6.6,0,0,1-.6-.6.6.6,0,0,1,.6-.6h2.618a.6.6,0,0,1,.6.6A.575.575,0,0,1,594.684,433.907Zm17.131,0a.575.575,0,0,1-.411.177h-2.618a.6.6,0,0,1-.411-1.015.576.576,0,0,1,.411-.177H611.4a.6.6,0,0,1,.6.6A.576.576,0,0,1,611.815,433.907Z" transform="translate(-373.778 -297.135)" fill="#6c63ff" opacity="0.1"/>
    <path id="Path_945" data-name="Path 945" d="M344,431.031l-18.648-32.3a.6.6,0,0,0-1.028,0L308.21,426.616a49.276,49.276,0,0,0,6.749,6.987h2.618a.6.6,0,0,1,.6.6.6.6,0,0,1-.6.6h-1.106a28.86,28.86,0,0,0,4.32,2.684v-1.41a.592.592,0,0,1,.6-.592h6.9a.592.592,0,0,1,.592.592V439.4a.621.621,0,0,0,.053.251.592.592,0,0,0,.543.345h7.259a.58.58,0,0,0,.473-.238.592.592,0,0,0,.119-.358v-6.88a.6.6,0,0,1,.6-.6h5.549a.592.592,0,0,0,.526-.892Zm-12.331,2.733a.588.588,0,0,1,.411-.177h2.614a.6.6,0,0,1,0,1.192h-2.614a.585.585,0,0,1-.407-1.015Zm-11.714-11.952a.592.592,0,0,1-.592-.6v-4.521a.592.592,0,0,1,.592-.6h9.758a.6.6,0,0,1,.592.6v4.521a.6.6,0,0,1-.592.6Z" transform="translate(-212.356 -297.547)" fill="#6c63ff" opacity="0.1"/>
    <path id="Path_946" data-name="Path 946" d="M470.469,319.012H447.39v-4.994a1.192,1.192,0,0,0-1.192-1.192H439.42v-5.319a.748.748,0,0,0-.752-.748H429.93a.752.752,0,0,0-.752.748v5.319H421.22a1.192,1.192,0,0,0-1.192,1.192v4.99H398.022a.238.238,0,0,0-.242.243v66.256a.238.238,0,0,0,.243.243h14.645a.238.238,0,0,0,.243-.243V376.6a.247.247,0,0,1,.243-.247h6.165a.247.247,0,0,1,.243.247v8.911a.238.238,0,0,0,.242.242h28.9a.242.242,0,0,0,.243-.242V376.6a.242.242,0,0,1,.238-.247h6.165a.242.242,0,0,1,.242.247v8.911a.243.243,0,0,0,.243.242h14.628a.243.243,0,0,0,.243-.242V319.255a.242.242,0,0,0-.239-.243Zm-60.2,54.254a.238.238,0,0,1-.242.242h-9.042a.238.238,0,0,1-.242-.242v-3.083a.243.243,0,0,1,.242-.247h9.042a.242.242,0,0,1,.242.247Zm0-7.97a.243.243,0,0,1-.243.242h-9.042a.242.242,0,0,1-.243-.242V362.21a.242.242,0,0,1,.242-.242h9.042a.243.243,0,0,1,.243.242Zm0-7.974a.238.238,0,0,1-.242.242h-9.042a.238.238,0,0,1-.242-.242v-3.083a.238.238,0,0,1,.243-.242h9.042a.238.238,0,0,1,.243.242Zm0-7.97a.238.238,0,0,1-.242.242h-9.042a.238.238,0,0,1-.242-.242v-3.083a.238.238,0,0,1,.243-.242h9.042a.238.238,0,0,1,.243.243Zm0-7.97a.243.243,0,0,1-.243.242h-9.042a.242.242,0,0,1-.238-.242V338.3a.243.243,0,0,1,.242-.243h9.042a.243.243,0,0,1,.242.242Zm0-7.974a.238.238,0,0,1-.242.242h-9.042a.238.238,0,0,1-.242-.242v-3.083a.238.238,0,0,1,.243-.242h9.042a.238.238,0,0,1,.243.242Zm0-7.97a.238.238,0,0,1-.242.243h-9.042a.238.238,0,0,1-.242-.243v-3.083a.238.238,0,0,1,.243-.243h9.042a.238.238,0,0,1,.243.242Zm21.414,47.826a.238.238,0,0,1-.242.242H422.4a.239.239,0,0,1-.243-.242v-3.083a.243.243,0,0,1,.242-.247h9.042a.242.242,0,0,1,.242.247Zm0-7.97a.243.243,0,0,1-.242.242H422.4a.243.243,0,0,1-.243-.242V362.21a.243.243,0,0,1,.243-.242h9.042a.243.243,0,0,1,.242.242Zm0-7.974a.238.238,0,0,1-.242.242H422.4a.238.238,0,0,1-.243-.242v-3.083A.239.239,0,0,1,422.4,354h9.042a.238.238,0,0,1,.242.242Zm0-7.97a.238.238,0,0,1-.242.242H422.4a.238.238,0,0,1-.243-.242v-3.083a.238.238,0,0,1,.242-.242h9.042a.238.238,0,0,1,.242.243Zm0-7.97a.243.243,0,0,1-.242.242H422.4a.243.243,0,0,1-.243-.243V338.3a.243.243,0,0,1,.243-.243h9.042a.243.243,0,0,1,.242.242Zm0-7.974a.238.238,0,0,1-.242.242H422.4a.238.238,0,0,1-.243-.242v-3.083a.238.238,0,0,1,.242-.242h9.042a.238.238,0,0,1,.242.242Zm0-7.97a.238.238,0,0,1-.242.243H422.4a.238.238,0,0,1-.243-.243v-3.083a.239.239,0,0,1,.242-.243h9.042a.238.238,0,0,1,.242.242Zm14.636,47.826a.242.242,0,0,1-.243.242h-9.042a.243.243,0,0,1-.243-.243v-3.083a.247.247,0,0,1,.243-.247h9.042a.247.247,0,0,1,.243.247Zm0-7.97a.247.247,0,0,1-.243.242h-9.042a.247.247,0,0,1-.242-.242V362.21a.247.247,0,0,1,.243-.242h9.042a.247.247,0,0,1,.243.243Zm0-7.974a.243.243,0,0,1-.243.242h-9.042a.243.243,0,0,1-.243-.242v-3.083a.243.243,0,0,1,.242-.242h9.042a.243.243,0,0,1,.243.242Zm0-7.97a.243.243,0,0,1-.243.242h-9.042a.243.243,0,0,1-.243-.243v-3.083a.242.242,0,0,1,.242-.242h9.042a.243.243,0,0,1,.243.243Zm0-7.97a.247.247,0,0,1-.243.242h-9.042a.247.247,0,0,1-.242-.242V338.3a.247.247,0,0,1,.243-.243h9.042a.247.247,0,0,1,.243.243Zm0-7.974a.243.243,0,0,1-.243.242h-9.042a.243.243,0,0,1-.243-.242v-3.083a.242.242,0,0,1,.242-.242h9.042a.242.242,0,0,1,.243.242Zm0-7.97a.242.242,0,0,1-.243.242h-9.042a.243.243,0,0,1-.243-.243v-3.083a.243.243,0,0,1,.242-.243h9.042a.243.243,0,0,1,.243.243Zm21.422,47.818a.243.243,0,0,1-.243.242h-9.042a.238.238,0,0,1-.243-.242v-3.083a.242.242,0,0,1,.243-.247H467.5a.247.247,0,0,1,.243.247Zm0-7.97a.247.247,0,0,1-.242.242h-9.042a.243.243,0,0,1-.243-.242V362.2a.243.243,0,0,1,.243-.243H467.5a.247.247,0,0,1,.243.242Zm0-7.974a.242.242,0,0,1-.243.242h-9.042a.238.238,0,0,1-.243-.242v-3.083a.238.238,0,0,1,.243-.242H467.5a.243.243,0,0,1,.243.242Zm0-7.97a.242.242,0,0,1-.243.242h-9.042a.238.238,0,0,1-.243-.243v-3.083a.238.238,0,0,1,.243-.242H467.5a.242.242,0,0,1,.243.242Zm0-7.961a.247.247,0,0,1-.242.242h-9.042a.243.243,0,0,1-.243-.243V338.3a.243.243,0,0,1,.243-.243H467.5a.247.247,0,0,1,.243.243Zm0-7.974a.243.243,0,0,1-.243.242h-9.042a.238.238,0,0,1-.243-.242v-3.083a.238.238,0,0,1,.243-.242H467.5a.242.242,0,0,1,.243.242Zm0-7.97a.242.242,0,0,1-.243.242h-9.042a.238.238,0,0,1-.243-.243v-3.083a.238.238,0,0,1,.243-.243H467.5a.243.243,0,0,1,.243.243Z" transform="translate(-265.112 -243.552)" fill="#6c63ff" opacity="0.1"/>
    <path id="Path_947" data-name="Path 947" d="M392.366,282.952a5.179,5.179,0,0,0-3.013.329,4.435,4.435,0,0,1-3.621,0,5.084,5.084,0,0,0-4.258.082,2.6,2.6,0,0,1-1.233.308c-1.726,0-3.165-1.739-3.461-4.032a3.333,3.333,0,0,0,.859-.933,4.857,4.857,0,0,1,8.664-.029,3.329,3.329,0,0,0,2.877,1.574h.045A3.609,3.609,0,0,1,392.366,282.952Z" transform="translate(-252.743 -225.452)" fill="#6c63ff" opacity="0.1"/>
    <path id="Path_948" data-name="Path 948" d="M397.645,266.556l-2.791,1.771,1.693-3.083a2.766,2.766,0,0,0-1.685-.6h-.045a3.383,3.383,0,0,1-.58-.041l-.945.6.411-.736a3.367,3.367,0,0,1-1.644-1.254l-1.693,1.073,1.069-1.944a4.953,4.953,0,0,0-3.79-1.919,5.2,5.2,0,0,0-4.344,2.68,3.235,3.235,0,0,1-2.877,1.545h-.095c-1.94,0-3.518,2.2-3.518,4.932s1.578,4.932,3.518,4.932a2.663,2.663,0,0,0,1.233-.3,5.055,5.055,0,0,1,4.258-.082,4.48,4.48,0,0,0,3.621,0,5.076,5.076,0,0,1,4.221.078,2.594,2.594,0,0,0,1.233.3c1.94,0,3.518-2.2,3.518-4.932A6.256,6.256,0,0,0,397.645,266.556Z" transform="translate(-252.761 -216.258)" fill="#6c63ff" opacity="0.1"/>
    <rect id="Rectangle_649" data-name="Rectangle 649" width="152.71" height="183.898" rx="19.8" transform="translate(207.753 42.328)" fill="#3f3d56"/>
    <rect id="Rectangle_650" data-name="Rectangle 650" width="138.102" height="146.795" transform="translate(214.551 60.882)" fill="#fff"/>
    <circle id="Ellipse_192" data-name="Ellipse 192" cx="5.376" cy="5.376" r="5.376" transform="translate(278.732 211.976)" fill="#fff"/>
    <path id="Path_949" data-name="Path 949" d="M762.7,281.1a2.466,2.466,0,1,1,2.466-2.466A2.466,2.466,0,0,1,762.7,281.1Z" transform="translate(-478.588 -225.535)" fill="#fff"/>
    <path id="Path_950" data-name="Path 950" d="M762.366,275.991a2.281,2.281,0,1,1-2.277,2.281,2.281,2.281,0,0,1,2.277-2.281m0-.411a2.688,2.688,0,1,0,1.9.789A2.692,2.692,0,0,0,762.366,275.58Z" transform="translate(-478.258 -225.187)" fill="#fff"/>
    <path id="Path_951" data-name="Path 951" d="M742.584,437.579v-.049a13.2,13.2,0,0,0-.637-3.481l-.062-.189a13.276,13.276,0,0,0-22.466-4.534,19.376,19.376,0,0,0-1.056-3.7,59.282,59.282,0,0,1-10.518.411,42.213,42.213,0,0,0,6.667,2.376l-.082.3a42.563,42.563,0,0,1-7.452-2.77l-.723-.349.822.053a59.436,59.436,0,0,0,11.188-.321,18.939,18.939,0,0,0-3.288-5.232,56.426,56.426,0,0,1-17.559-4.373l.127-.288a55.5,55.5,0,0,0,17.111,4.312,18.788,18.788,0,0,0-29.865,3.173,25.787,25.787,0,0,0-6.408-14.521,60.693,60.693,0,0,1-9.906,3,59.97,59.97,0,0,1-15.487,1.233,42.216,42.216,0,0,0,6.667,2.421l-.082.3a42.221,42.221,0,0,1-7.452-2.787l-.723-.349.822.053a59.478,59.478,0,0,0,25.96-4.11c-.308-.341-.629-.67-.958-.995-10.275.206-21.492.107-31.648-3.588a25.866,25.866,0,0,0-12.285,22.039c0,4.854,1.336,11.533,3.658,18.233a77.248,77.248,0,0,0,3.621,8.775c.707,1.443,1.459,2.844,2.252,4.184h0a48.1,48.1,0,0,0,3.144,4.71c.206.267.411.534.625.793a28.624,28.624,0,0,0,3.921,4.057h0c.292.243.584.473.88.691a16.572,16.572,0,0,0,2.511,1.566,11.509,11.509,0,0,0,4.751,1.3h.39v.053h70.227v-.053h.049a3.6,3.6,0,0,0,1.188-.21c2.466-.884,4.772-4.423,6.671-8.894.411-.991.822-2.026,1.208-3.091.337-.941.654-1.9.958-2.877a88.408,88.408,0,0,0,2.211-8.631,45.322,45.322,0,0,0,1.04-8.048C742.6,437.978,742.592,437.781,742.584,437.579Z" transform="translate(-403.823 -300.577)" fill="#6c63ff" opacity="0.1"/>
    <path id="Path_952" data-name="Path 952" d="M694.954,401.35A25.779,25.779,0,0,0,664,397.86C673.91,401.415,684.863,401.539,694.954,401.35Z" transform="translate(-421.91 -295.075)" fill="#6c63ff" opacity="0.1"/>
    <path id="Path_953" data-name="Path 953" d="M847.3,524.839,836.466,506.06a.345.345,0,0,0-.6,0l-10.843,18.779a.345.345,0,0,0,.3.518h3.235a.349.349,0,0,1,.345.345v4.011a.349.349,0,0,0,.345.345h4.221a.349.349,0,0,0,.345-.345v-1.936a.341.341,0,0,1,.345-.345h4.012a.345.345,0,0,1,.345.345v1.936a.349.349,0,0,0,.345.345h4.209a.345.345,0,0,0,.329-.234.353.353,0,0,0,0-.111V525.7a.345.345,0,0,1,.345-.345h3.235a.345.345,0,0,0,.325-.518Zm-15.113,2.055a.353.353,0,0,1-.247.1h-1.521a.349.349,0,0,1-.345-.345.333.333,0,0,1,.1-.247.345.345,0,0,1,.242-.1h1.521a.349.349,0,0,1,.349.349A.345.345,0,0,1,832.192,526.895Zm9.959,0a.354.354,0,0,1-.247.1h-1.521a.349.349,0,0,1,0-.695H841.9a.349.349,0,0,1,.349.349A.346.346,0,0,1,842.151,526.895Z" transform="translate(-516.723 -360.833)" fill="#6c63ff" opacity="0.1"/>
    <path id="Path_954" data-name="Path 954" d="M686.462,525.209,675.623,506.43a.345.345,0,0,0-.6,0l-9.363,16.219a28.548,28.548,0,0,0,3.921,4.053H671.1a.345.345,0,0,1,.247.588.333.333,0,0,1-.247.1h-.641a16.843,16.843,0,0,0,2.511,1.562v-.822a.345.345,0,0,1,.345-.345h4.012a.349.349,0,0,1,.345.345v1.936a.321.321,0,0,0,.033.144.341.341,0,0,0,.312.2h4.221a.345.345,0,0,0,.275-.14.354.354,0,0,0,.07-.206v-4.012a.345.345,0,0,1,.345-.345h3.235a.345.345,0,0,0,.3-.5ZM679.3,526.8a.341.341,0,0,1,.242-.1h1.525a.341.341,0,0,1,.243.588.329.329,0,0,1-.243.1H679.54a.349.349,0,0,1-.345-.345A.354.354,0,0,1,679.3,526.8Zm-6.811-6.946a.345.345,0,0,1-.345-.349v-2.626a.345.345,0,0,1,.345-.345h5.672a.349.349,0,0,1,.345.345V519.5a.349.349,0,0,1-.345.349Z" transform="translate(-422.888 -361.051)" fill="#6c63ff" opacity="0.1"/>
    <path id="Path_955" data-name="Path 955" d="M759.977,460.075H746.561v-2.9a.7.7,0,0,0-.695-.695h-3.937v-3.107a.436.436,0,0,0-.436-.436h-5.076a.432.432,0,0,0-.436.436v3.091h-4.632a.7.7,0,0,0-.695.695v2.9H717.864a.144.144,0,0,0-.144.14v38.521a.144.144,0,0,0,.144.14h8.5a.14.14,0,0,0,.14-.14v-5.167a.144.144,0,0,1,.144-.14h3.588a.144.144,0,0,1,.144.14v5.183a.14.14,0,0,0,.14.14h16.8a.14.14,0,0,0,.14-.14v-5.183a.14.14,0,0,1,.14-.14h3.592a.14.14,0,0,1,.14.14v5.183a.144.144,0,0,0,.144.14h8.5a.14.14,0,0,0,.14-.14V460.215A.14.14,0,0,0,759.977,460.075ZM724.983,491.6a.14.14,0,0,1-.14.14H719.59a.14.14,0,0,1-.14-.14v-1.8a.14.14,0,0,1,.14-.14h5.253a.14.14,0,0,1,.14.14Zm0-4.636a.14.14,0,0,1-.14.14H719.59a.14.14,0,0,1-.14-.14v-1.792a.14.14,0,0,1,.14-.14h5.253a.14.14,0,0,1,.14.14Zm0-4.632a.14.14,0,0,1-.14.14H719.59a.14.14,0,0,1-.14-.14v-1.8a.14.14,0,0,1,.14-.14h5.253a.14.14,0,0,1,.14.14Zm0-4.636a.144.144,0,0,1-.14.144H719.59a.144.144,0,0,1-.14-.144V475.9a.14.14,0,0,1,.14-.14h5.253a.14.14,0,0,1,.14.14Zm0-4.632a.14.14,0,0,1-.14.14H719.59a.14.14,0,0,1-.14-.14v-1.8a.14.14,0,0,1,.14-.14h5.253a.14.14,0,0,1,.14.14Zm0-4.632a.14.14,0,0,1-.14.14H719.59a.14.14,0,0,1-.14-.14v-1.8a.14.14,0,0,1,.14-.14h5.253a.14.14,0,0,1,.14.14Zm0-4.636a.14.14,0,0,1-.14.14H719.59a.14.14,0,0,1-.14-.14v-1.788a.14.14,0,0,1,.14-.14h5.253a.14.14,0,0,1,.14.14Zm12.45,27.805a.14.14,0,0,1-.14.14H732.04a.14.14,0,0,1-.14-.14v-1.8a.14.14,0,0,1,.14-.14h5.253a.14.14,0,0,1,.14.14Zm0-4.636a.14.14,0,0,1-.14.14H732.04a.14.14,0,0,1-.14-.14v-1.792a.14.14,0,0,1,.14-.14h5.253a.14.14,0,0,1,.14.14Zm0-4.632a.14.14,0,0,1-.14.14H732.04a.14.14,0,0,1-.14-.14v-1.8a.14.14,0,0,1,.14-.14h5.253a.14.14,0,0,1,.14.14Zm0-4.636a.144.144,0,0,1-.14.144H732.04a.144.144,0,0,1-.14-.144V475.9a.14.14,0,0,1,.14-.14h5.253a.14.14,0,0,1,.14.14Zm0-4.632a.14.14,0,0,1-.14.14H732.04a.14.14,0,0,1-.14-.14v-1.8a.14.14,0,0,1,.14-.14h5.253a.14.14,0,0,1,.14.14Zm0-4.632a.14.14,0,0,1-.14.14H732.04a.14.14,0,0,1-.14-.14v-1.8a.14.14,0,0,1,.14-.14h5.253a.14.14,0,0,1,.14.14Zm0-4.636a.14.14,0,0,1-.14.14H732.04a.14.14,0,0,1-.14-.14v-1.788a.14.14,0,0,1,.14-.14h5.253a.14.14,0,0,1,.14.14ZM745.94,491.6a.14.14,0,0,1-.14.14h-5.253a.14.14,0,0,1-.14-.14v-1.8a.14.14,0,0,1,.14-.14h5.236a.14.14,0,0,1,.14.14Zm0-4.636a.14.14,0,0,1-.14.14h-5.253a.14.14,0,0,1-.14-.14v-1.792a.14.14,0,0,1,.14-.14h5.236a.14.14,0,0,1,.14.14Zm0-4.632a.14.14,0,0,1-.14.14h-5.253a.14.14,0,0,1-.14-.14v-1.8a.14.14,0,0,1,.14-.14h5.236a.14.14,0,0,1,.14.14Zm0-4.636a.144.144,0,0,1-.14.144h-5.253a.144.144,0,0,1-.14-.144V475.9a.14.14,0,0,1,.14-.14h5.236a.14.14,0,0,1,.14.14Zm0-4.632a.14.14,0,0,1-.14.14h-5.253a.14.14,0,0,1-.14-.14v-1.8a.14.14,0,0,1,.14-.14h5.236a.14.14,0,0,1,.14.14Zm0-4.632a.14.14,0,0,1-.14.14h-5.253a.14.14,0,0,1-.14-.14v-1.8a.14.14,0,0,1,.14-.14h5.236a.14.14,0,0,1,.14.14Zm0-4.636a.14.14,0,0,1-.14.14h-5.253a.14.14,0,0,1-.14-.14v-1.788a.14.14,0,0,1,.14-.14h5.236a.14.14,0,0,1,.14.14ZM758.39,491.6a.144.144,0,0,1-.14.14H753a.14.14,0,0,1-.14-.14v-1.8a.14.14,0,0,1,.14-.14h5.253a.14.14,0,0,1,.14.14Zm0-4.636a.14.14,0,0,1-.14.14H753a.14.14,0,0,1-.14-.14v-1.792a.14.14,0,0,1,.14-.14h5.253a.14.14,0,0,1,.14.14Zm0-4.632a.14.14,0,0,1-.14.14H753a.14.14,0,0,1-.14-.14v-1.8a.14.14,0,0,1,.14-.14h5.253a.144.144,0,0,1,.14.14Zm0-4.636a.144.144,0,0,1-.14.144H753a.144.144,0,0,1-.14-.144V475.9a.14.14,0,0,1,.14-.14h5.253a.14.14,0,0,1,.14.14Zm0-4.632a.14.14,0,0,1-.14.14H753a.14.14,0,0,1-.14-.14v-1.8a.14.14,0,0,1,.14-.14h5.253a.144.144,0,0,1,.14.14Zm0-4.632a.144.144,0,0,1-.14.14H753a.14.14,0,0,1-.14-.14v-1.8a.14.14,0,0,1,.14-.14h5.253a.14.14,0,0,1,.14.14Zm0-4.636a.14.14,0,0,1-.14.14H753a.14.14,0,0,1-.14-.14v-1.788a.14.14,0,0,1,.14-.14h5.253a.14.14,0,0,1,.14.14Z" transform="translate(-453.55 -329.649)" fill="#6c63ff" opacity="0.1"/>
    <path id="Path_956" data-name="Path 956" d="M714.6,439.133a3.037,3.037,0,0,0-1.751.189,2.606,2.606,0,0,1-1.048.222,2.564,2.564,0,0,1-1.056-.226,2.951,2.951,0,0,0-2.466.049,1.528,1.528,0,0,1-.711.177c-1,0-1.837-1.011-2.01-2.343a1.982,1.982,0,0,0,.5-.543,2.82,2.82,0,0,1,5.035,0,1.924,1.924,0,0,0,1.644.917h.029A2.056,2.056,0,0,1,714.6,439.133Z" transform="translate(-446.388 -319.147)" fill="#6c63ff" opacity="0.1"/>
    <path id="Path_957" data-name="Path 957" d="M717.625,429.621l-1.644,1.032.986-1.792a1.612,1.612,0,0,0-.982-.349h0a2.282,2.282,0,0,1-.337-.025l-.551.345.238-.411a1.94,1.94,0,0,1-.962-.728l-.986.621.625-1.13a2.877,2.877,0,0,0-2.207-1.114,3.021,3.021,0,0,0-2.524,1.558,1.891,1.891,0,0,1-1.669.9h-.053c-1.13,0-2.055,1.278-2.055,2.877s.917,2.877,2.055,2.877a1.533,1.533,0,0,0,.711-.181,2.951,2.951,0,0,1,2.466-.045,2.635,2.635,0,0,0,1.056.226,2.605,2.605,0,0,0,1.048-.222,2.955,2.955,0,0,1,2.466.045,1.5,1.5,0,0,0,.7.177c1.13,0,2.055-1.282,2.055-2.877a3.642,3.642,0,0,0-.436-1.784Z" transform="translate(-446.353 -313.823)" fill="#6c63ff" opacity="0.1"/>
    <rect id="Rectangle_651" data-name="Rectangle 651" width="2.203" height="18.155" rx="1.102" transform="translate(406.349 110.64)" fill="#3f3d56"/>
    <rect id="Rectangle_652" data-name="Rectangle 652" width="1.237" height="5.976" rx="0.619" transform="translate(333.151 96.418)" fill="#3f3d56"/>
    <rect id="Rectangle_653" data-name="Rectangle 653" width="1.393" height="10.403" rx="0.697" transform="translate(333.106 107.36)" fill="#3f3d56"/>
    <rect id="Rectangle_654" data-name="Rectangle 654" width="1.328" height="10.493" rx="0.664" transform="translate(333.126 121.4)" fill="#3f3d56"/>
    <rect id="Rectangle_655" data-name="Rectangle 655" width="73.691" height="149.763" rx="18.54" transform="translate(333.85 76.665)" fill="#3f3d56"/>
    <rect id="Rectangle_656" data-name="Rectangle 656" width="10.292" height="2.088" rx="1.044" transform="translate(363.587 81.137)" fill="#e6e8ec"/>
    <circle id="Ellipse_193" data-name="Ellipse 193" cx="1.184" cy="1.184" r="1.184" transform="translate(375.432 81.001)" fill="#e6e8ec"/>
    <path id="Path_958" data-name="Path 958" d="M957.055,349H948.62v1.015a4.821,4.821,0,0,1-4.809,4.817H916.906a4.821,4.821,0,0,1-4.821-4.821V349h-7.912a5.857,5.857,0,0,0-5.853,5.853V485.1a5.853,5.853,0,0,0,5.853,5.853h52.882a5.849,5.849,0,0,0,5.853-5.853V354.849A5.853,5.853,0,0,0,957.055,349Z" transform="translate(-559.921 -268.43)" fill="#fff"/>
    <path id="Path_959" data-name="Path 959" d="M966.552,502.705h0a5.887,5.887,0,0,0-.288-1.574.7.7,0,0,0-.029-.086,5.984,5.984,0,0,0-10.132-2.055,8.413,8.413,0,0,0-.477-1.673,26.988,26.988,0,0,1-4.747.177,19.64,19.64,0,0,0,3.009,1.093l-.037.136a19.249,19.249,0,0,1-3.362-1.258l-.325-.16.362.025a26.87,26.87,0,0,0,5.047-.144,8.546,8.546,0,0,0-1.488-2.363,25.448,25.448,0,0,1-7.92-1.969l.058-.132a25.027,25.027,0,0,0,7.719,1.944,8.479,8.479,0,0,0-13.473,1.434,11.652,11.652,0,0,0-2.877-6.552,27.259,27.259,0,0,1-11.455,1.907,19.217,19.217,0,0,0,3.009,1.093l-.037.136a19.246,19.246,0,0,1-3.362-1.258l-.325-.156.362.025a26.823,26.823,0,0,0,11.71-1.858c-.14-.152-.284-.3-.432-.448-4.64.095-9.7.049-14.271-1.619a11.673,11.673,0,0,0-5.541,9.943,27.127,27.127,0,0,0,1.644,8.22,34.4,34.4,0,0,0,1.644,3.962q.481.978,1.015,1.891h0a22.2,22.2,0,0,0,1.418,2.125l.284.358a13.146,13.146,0,0,0,1.767,1.829h0a4.5,4.5,0,0,0,.411.312,7.783,7.783,0,0,0,1.13.707,5.309,5.309,0,0,0,2.137.58h.177v.021h31.685V517.3h.025a1.611,1.611,0,0,0,.534-.094c1.122-.411,2.154-1.993,3.009-4.012.193-.448.374-.917.547-1.4s.3-.855.432-1.295c.411-1.315.748-2.668,1-3.892a20.687,20.687,0,0,0,.469-3.629A2.025,2.025,0,0,1,966.552,502.705Z" transform="translate(-571.07 -349.928)" fill="#6c63ff" opacity="0.1"/>
    <path id="Path_960" data-name="Path 960" d="M945.045,486.4a11.632,11.632,0,0,0-13.975-1.574C935.562,486.4,940.495,486.468,945.045,486.4Z" transform="translate(-579.21 -347.464)" fill="#6c63ff" opacity="0.1"/>
    <path id="Path_961" data-name="Path 961" d="M1013.793,542.048l-4.891-8.471a.156.156,0,0,0-.271,0l-4.891,8.471a.156.156,0,0,0,.136.234h1.459a.156.156,0,0,1,.156.156v1.808a.156.156,0,0,0,.156.156h1.887a.156.156,0,0,0,.156-.156v-.871a.156.156,0,0,1,.156-.156h1.808a.156.156,0,0,1,.156.156v.871a.156.156,0,0,0,.156.156h1.9a.156.156,0,0,0,.148-.107.152.152,0,0,0,0-.049v-1.808a.156.156,0,0,1,.156-.156h1.459a.156.156,0,0,0,.16-.234Zm-6.819.937a.161.161,0,0,1-.111.045h-.686a.156.156,0,0,1-.156-.156.144.144,0,0,1,.045-.107.164.164,0,0,1,.111-.049h.686a.156.156,0,0,1,.156.156A.152.152,0,0,1,1006.975,542.985Zm4.492,0a.152.152,0,0,1-.111.045h-.686a.156.156,0,0,1-.156-.156.144.144,0,0,1,.045-.107.164.164,0,0,1,.111-.049h.686a.156.156,0,0,1,.156.156A.152.152,0,0,1,1011.467,542.985Z" transform="translate(-621.999 -377.097)" fill="#6c63ff" opacity="0.1"/>
    <path id="Path_962" data-name="Path 962" d="M941.234,542.228l-4.891-8.471a.156.156,0,0,0-.271,0l-4.221,7.316a13.156,13.156,0,0,0,1.767,1.829h.686a.156.156,0,1,1,0,.308h-.288a7.79,7.79,0,0,0,1.13.707v-.362a.156.156,0,0,1,.156-.156h1.813a.156.156,0,0,1,.152.156v.871a.16.16,0,0,0,.156.156h1.907a.156.156,0,0,0,.123-.062.144.144,0,0,0,.029-.095v-1.808a.156.156,0,0,1,.156-.156H941.1a.156.156,0,0,0,.136-.234Zm-3.231.719a.144.144,0,0,1,.107-.045h.686a.156.156,0,1,1,0,.308h-.686a.156.156,0,0,1-.156-.156A.152.152,0,0,1,938,542.948Zm-3.074-3.136a.156.156,0,0,1-.156-.156v-1.184a.156.156,0,0,1,.156-.156h2.561a.156.156,0,0,1,.156.156v1.184a.156.156,0,0,1-.156.156Z" transform="translate(-579.669 -377.203)" fill="#6c63ff" opacity="0.1"/>
    <path id="Path_963" data-name="Path 963" d="M974.427,512.854h-6.05v-1.311a.312.312,0,0,0-.312-.312H966.28v-1.393a.2.2,0,0,0-.193-.2H963.8a.2.2,0,0,0-.2.2v1.393h-2.092a.312.312,0,0,0-.312.312v1.311h-5.754a.062.062,0,0,0-.062.062v17.378a.066.066,0,0,0,.062.066h3.835a.066.066,0,0,0,.066-.066v-2.339a.062.062,0,0,1,.062-.062h1.619a.066.066,0,0,1,.066.062v2.339a.066.066,0,0,0,.062.066h7.579a.066.066,0,0,0,.066-.066v-2.339a.062.062,0,0,1,.062-.062h1.619a.066.066,0,0,1,.066.062v2.339a.066.066,0,0,0,.062.066h3.839a.066.066,0,0,0,.062-.066V512.916a.062.062,0,0,0-.078-.062Zm-15.787,14.225a.066.066,0,0,1-.066.066h-2.367a.066.066,0,0,1-.066-.066v-.822a.066.066,0,0,1,.066-.062h2.368a.066.066,0,0,1,.066.062Zm0-2.088a.066.066,0,0,1-.066.062h-2.367a.066.066,0,0,1-.066-.062v-.822a.066.066,0,0,1,.066-.066h2.368a.066.066,0,0,1,.066.066Zm0-2.092a.066.066,0,0,1-.066.066h-2.367a.066.066,0,0,1-.066-.066v-.822a.066.066,0,0,1,.066-.062h2.367a.066.066,0,0,1,.066.062Zm0-2.092a.066.066,0,0,1-.066.066h-2.367a.066.066,0,0,1-.066-.066v-.822a.066.066,0,0,1,.066-.066h2.368a.066.066,0,0,1,.066.066Zm0-2.088a.066.066,0,0,1-.066.062h-2.367a.066.066,0,0,1-.066-.062V517.9a.066.066,0,0,1,.066-.062h2.367a.066.066,0,0,1,.066.062Zm0-2.092a.066.066,0,0,1-.066.066h-2.367a.066.066,0,0,1-.066-.066v-.822a.066.066,0,0,1,.066-.062h2.368a.066.066,0,0,1,.066.062Zm0-2.088a.066.066,0,0,1-.066.062h-2.367a.066.066,0,0,1-.066-.062v-.822a.066.066,0,0,1,.066-.066h2.368a.066.066,0,0,1,.066.066Zm5.627,12.54a.066.066,0,0,1-.062.066h-2.372a.066.066,0,0,1-.062-.066v-.822a.062.062,0,0,1,.062-.062H964.2a.062.062,0,0,1,.062.062Zm0-2.088a.062.062,0,0,1-.062.062h-2.372a.062.062,0,0,1-.062-.062v-.822a.066.066,0,0,1,.062-.066H964.2a.066.066,0,0,1,.062.066Zm0-2.092a.066.066,0,0,1-.062.066h-2.372a.066.066,0,0,1-.062-.066v-.822a.062.062,0,0,1,.062-.062H964.2a.062.062,0,0,1,.062.062Zm0-2.092a.066.066,0,0,1-.062.066h-2.372a.066.066,0,0,1-.062-.066v-.822a.066.066,0,0,1,.062-.066H964.2a.066.066,0,0,1,.062.066Zm0-2.088a.062.062,0,0,1-.062.062h-2.372a.062.062,0,0,1-.062-.062V517.9a.062.062,0,0,1,.062-.062H964.2a.062.062,0,0,1,.062.062Zm0-2.092a.066.066,0,0,1-.062.066h-2.372a.066.066,0,0,1-.062-.066v-.822a.062.062,0,0,1,.062-.062H964.2a.062.062,0,0,1,.062.062Zm0-2.088a.062.062,0,0,1-.062.062h-2.372a.062.062,0,0,1-.062-.062v-.822a.066.066,0,0,1,.062-.066H964.2a.066.066,0,0,1,.062.066Zm3.839,12.54a.066.066,0,0,1-.066.066h-2.367a.066.066,0,0,1-.066-.066v-.822a.066.066,0,0,1,.066-.062h2.367a.066.066,0,0,1,.066.062Zm0-2.088a.066.066,0,0,1-.066.062h-2.367a.066.066,0,0,1-.066-.062v-.822a.066.066,0,0,1,.066-.066h2.367a.066.066,0,0,1,.066.066Zm0-2.092a.066.066,0,0,1-.066.066h-2.367a.066.066,0,0,1-.066-.066v-.822a.066.066,0,0,1,.066-.062h2.367a.066.066,0,0,1,.066.062Zm0-2.092a.066.066,0,0,1-.066.066h-2.367a.066.066,0,0,1-.066-.066v-.822a.066.066,0,0,1,.066-.066h2.367a.066.066,0,0,1,.066.066Zm0-2.088a.066.066,0,0,1-.066.062h-2.367a.066.066,0,0,1-.066-.062V517.9a.066.066,0,0,1,.066-.062h2.367a.066.066,0,0,1,.066.062Zm0-2.092a.066.066,0,0,1-.066.066h-2.367a.066.066,0,0,1-.066-.066v-.822a.066.066,0,0,1,.066-.062h2.367a.066.066,0,0,1,.066.062Zm0-2.088a.066.066,0,0,1-.066.062h-2.367a.066.066,0,0,1-.066-.062v-.822a.066.066,0,0,1,.066-.066h2.367a.066.066,0,0,1,.066.066Zm5.615,12.54a.066.066,0,0,1-.062.066h-2.372a.066.066,0,0,1-.062-.066v-.822a.062.062,0,0,1,.062-.062h2.372a.062.062,0,0,1,.062.062Zm0-2.088a.062.062,0,0,1-.062.062h-2.372a.062.062,0,0,1-.062-.062v-.822a.066.066,0,0,1,.062-.066h2.372a.066.066,0,0,1,.062.066Zm0-2.092a.066.066,0,0,1-.062.066h-2.372a.066.066,0,0,1-.062-.066v-.822a.061.061,0,0,1,.018-.044.062.062,0,0,1,.044-.018h2.372a.062.062,0,0,1,.062.062Zm0-2.092a.066.066,0,0,1-.062.066h-2.372a.066.066,0,0,1-.062-.066v-.822a.066.066,0,0,1,.062-.066h2.372a.066.066,0,0,1,.062.066Zm0-2.088a.062.062,0,0,1-.062.062h-2.372a.062.062,0,0,1-.062-.062V517.9a.061.061,0,0,1,.018-.044.062.062,0,0,1,.044-.018h2.372a.062.062,0,0,1,.062.062Zm0-2.092a.066.066,0,0,1-.062.066h-2.372a.066.066,0,0,1-.062-.066v-.822a.062.062,0,0,1,.062-.062h2.372a.062.062,0,0,1,.062.062Zm0-2.088a.062.062,0,0,1-.062.062h-2.372a.062.062,0,0,1-.062-.062v-.822a.066.066,0,0,1,.062-.066h2.372a.066.066,0,0,1,.062.066Z" transform="translate(-593.528 -363.044)" fill="#6c63ff" opacity="0.1"/>
    <path id="Path_964" data-name="Path 964" d="M953.916,503.4a1.369,1.369,0,0,0-.789.086,1.159,1.159,0,0,1-.473.1,1.118,1.118,0,0,1-.477-.1,1.344,1.344,0,0,0-1.118.025.711.711,0,0,1-.321.078c-.452,0-.822-.456-.908-1.056a.846.846,0,0,0,.226-.242,1.274,1.274,0,0,1,2.273,0,.867.867,0,0,0,.752.411h0A.937.937,0,0,1,953.916,503.4Z" transform="translate(-590.259 -358.304)" fill="#6c63ff" opacity="0.1"/>
    <path id="Path_965" data-name="Path 965" d="M955.314,499.089l-.732.46.444-.822a.719.719,0,0,0-.444-.16h0a.622.622,0,0,1-.152,0l-.251.156.107-.193a.9.9,0,0,1-.432-.329l-.444.279.28-.51a1.3,1.3,0,0,0-.995-.5,1.356,1.356,0,0,0-1.135.711.859.859,0,0,1-.752.411h-.025c-.51,0-.925.58-.925,1.291s.411,1.291.925,1.291a.674.674,0,0,0,.321-.078,1.328,1.328,0,0,1,1.118,0,1.192,1.192,0,0,0,.949,0,1.332,1.332,0,0,1,1.106,0,.657.657,0,0,0,.316.078c.51,0,.925-.575.925-1.291A1.644,1.644,0,0,0,955.314,499.089Z" transform="translate(-590.277 -355.877)" fill="#6c63ff" opacity="0.1"/>
    <path id="Path_966" data-name="Path 966" d="M148.128,676.2a15.208,15.208,0,0,1-.329,3.19c-.041.2-.086.39-.132.58-1.167,4.682-4.46,8.105-8.389,8.323h-.411c-4.155,0-7.67-3.584-8.829-8.52-.033-.132-.062-.263-.09-.411a15.209,15.209,0,0,1-.329-3.19c0-6.687,4.139-12.1,9.248-12.1S148.128,669.516,148.128,676.2Z" transform="translate(-107.17 -454.001)" fill="#3f3d56"/>
    <path id="Path_967" data-name="Path 967" d="M148.152,676.233a15.208,15.208,0,0,1-.329,3.19c-.041.2-.086.39-.132.579h-.411a18.809,18.809,0,0,1-3.025-.411,18.463,18.463,0,0,1-2.7.617,18.861,18.861,0,0,1-2.113.2h-.715a19.076,19.076,0,0,1-2.534-.169,18.565,18.565,0,0,1-3.973-.986,18.728,18.728,0,0,1-2.146.575c-.033-.131-.062-.263-.09-.411a15.208,15.208,0,0,1-.329-3.189c0-6.687,4.139-12.1,9.248-12.1S148.152,669.545,148.152,676.233Z" transform="translate(-107.194 -454.03)" opacity="0.1"/>
    <path id="Path_968" data-name="Path 968" d="M136.109,599.675A18.743,18.743,0,0,0,134.1,591.2l-10.876,3.383,9.548-5.61a18.788,18.788,0,0,0-14.123-8.052,18.764,18.764,0,0,0-1.467-1.94l-15.619,4.862,12.811-7.534a18.8,18.8,0,0,0-29.593,10.025l13.379,15.4-14.513-10.5a18.8,18.8,0,0,0,16.823,33.169,18.874,18.874,0,0,0,12.035.333,18.8,18.8,0,0,0,22.861-18.356c0-.411,0-.822-.041-1.233A18.8,18.8,0,0,0,136.109,599.675Z" transform="translate(-75.422 -400.025)" fill="#6c63ff"/>
    <path id="Path_969" data-name="Path 969" d="M135.744,641.013a50.2,50.2,0,0,0-17.4-.222c-6.531,1.081-13.206,3.461-19.593,1.722-3.748-1.019-6.987-3.379-10.649-4.69a20.215,20.215,0,0,0-10.995-.658,18.808,18.808,0,0,0,23.3,25.1,18.875,18.875,0,0,0,12.035.333A18.8,18.8,0,0,0,135.3,644.239c0-.411,0-.822-.041-1.233A18.905,18.905,0,0,0,135.744,641.013Z" transform="translate(-75.382 -437.878)" opacity="0.1"/>
    <path id="Path_970" data-name="Path 970" d="M539.984,358.417l-7.809-.345c-1.788-.078-3.827-.053-5.018,1.278-1.27,1.418-.937,3.646-.189,5.4s1.841,3.436,1.9,5.343c.086,3-2.376,5.376-4.607,7.4s-4.616,4.521-4.291,7.509c.255,2.33,2.113,4.131,3.946,5.586a52.713,52.713,0,0,0,8.981,5.754,13.431,13.431,0,0,0,5.8,1.771,15.078,15.078,0,0,0,5.212-1.192c2.931-1.052,5.939-2.191,8.163-4.365a16.407,16.407,0,0,0,2.836-3.921c3.843-6.987,4.866-15.726,1.743-23.07a12.968,12.968,0,0,0-2.877-4.381c-3.329-3.152-8.409-3.288-13-3.251a5.093,5.093,0,0,0-2.433.432,1.75,1.75,0,0,0-.9,2.088" transform="translate(-337.06 -273.684)" fill="#393859"/>
    <path id="Path_971" data-name="Path 971" d="M544.231,588.1a169.043,169.043,0,0,0,.921,24.772c.107.941.218,1.883.411,2.811a79.678,79.678,0,0,0,2.446,8.442,20.362,20.362,0,0,1,1.052,8.66q2.713-.284,5.434-.464l.025-1.4c.049-2.68-1-5.294-.736-7.961.255-2.524,1.069-4.99,1.032-7.526-.037-2.4-.822-4.706-1.2-7.074a40.157,40.157,0,0,1-.337-4.768,60.208,60.208,0,0,1,.041-6.576c.345-4.447,1.669-8.878,1.056-13.3C551.025,585.265,547.564,586.568,544.231,588.1Z" transform="translate(-351.303 -406.676)" fill="#a0616a"/>
    <path id="Path_972" data-name="Path 972" d="M554.208,708.38a1.233,1.233,0,0,0,.6-.1,1.315,1.315,0,0,0,.481-.884,10.781,10.781,0,0,1,1.381-3.1,4.531,4.531,0,0,0,1.04-2.281c0-1.369-1.43-2.326-1.73-3.662a5.9,5.9,0,0,0-.255-1.266,2.646,2.646,0,0,0-2.006-1.126c-1.052-.222-2.413-.312-2.935.625-.444.8.049,1.767.115,2.676a4.946,4.946,0,0,1-1.439,3.317c-.925,1.118-3.354,3.794-1.874,5.343.555.584,1.763.386,2.466.411Z" transform="translate(-353.073 -472.697)" fill="#3f3d56"/>
    <path id="Path_973" data-name="Path 973" d="M587.838,588.1a168.485,168.485,0,0,1-.925,24.772c-.1.941-.214,1.883-.386,2.811a75.209,75.209,0,0,1-2.466,8.442,20.044,20.044,0,0,0-1.048,8.66q-2.713-.284-5.434-.464l-.025-1.4c-.049-2.68,1-5.294.732-7.961-.251-2.524-1.065-4.99-1.028-7.526.037-2.4.822-4.706,1.192-7.074a39.312,39.312,0,0,0,.341-4.768,60.206,60.206,0,0,0-.041-6.576c-.345-4.447-1.673-8.878-1.056-13.3C581.06,585.265,584.517,586.568,587.838,588.1Z" transform="translate(-370.82 -406.676)" fill="#a0616a"/>
    <path id="Path_974" data-name="Path 974" d="M578.018,708.38a1.232,1.232,0,0,1-.6-.1,1.315,1.315,0,0,1-.5-.884,10.78,10.78,0,0,0-1.381-3.1,4.5,4.5,0,0,1-1.04-2.281c0-1.369,1.43-2.326,1.726-3.662a5.915,5.915,0,0,1,.259-1.266,2.646,2.646,0,0,1,2.006-1.126c1.052-.222,2.409-.312,2.935.625.444.8-.053,1.767-.115,2.676a4.927,4.927,0,0,0,1.439,3.317c.925,1.118,3.354,3.794,1.874,5.343-.555.584-1.763.386-2.466.411Z" transform="translate(-369.196 -472.697)" fill="#3f3d56"/>
    <circle id="Ellipse_194" data-name="Ellipse 194" cx="8.422" cy="8.422" r="8.422" transform="translate(193.927 91.704)" fill="#a0616a"/>
    <path id="Path_975" data-name="Path 975" d="M548.82,409.728a2.878,2.878,0,0,1,.123,1.213,2.359,2.359,0,0,1-.707,1.093,12.568,12.568,0,0,1-4.172,2.783,1.919,1.919,0,0,0,.444,1.537c1.011,1.558,2.08,3.07,3.153,4.587a30.712,30.712,0,0,0,7.164,7.715l2.466-3.1a20.04,20.04,0,0,0,1.43-1.944A19.393,19.393,0,0,0,560,420.986L563.016,414c-1.813.366-3.654-.469-5.2-1.484a2.03,2.03,0,0,1-.756-.723,2.055,2.055,0,0,1-.164-.9q-.074-2.178-.062-4.353a55.95,55.95,0,0,0-6.576-.514c-.855,0-1.43-.181-1.644.723A7.5,7.5,0,0,0,548.82,409.728Z" transform="translate(-351.243 -302.011)" fill="#a0616a"/>
    <path id="Path_976" data-name="Path 976" d="M536.843,434.368a32.376,32.376,0,0,0-4.932-6.576,4.44,4.44,0,0,1-1.032-1.352,4.112,4.112,0,0,1-.23-1.307l-.148-2.174a.505.505,0,0,0-.111-.337.489.489,0,0,0-.333-.095,2.783,2.783,0,0,0-1.525.222,4.274,4.274,0,0,0-.822.756,10.136,10.136,0,0,1-3.506,1.944,28.215,28.215,0,0,0-2.7,1.3,3.551,3.551,0,0,0-1.722,1.562,3.859,3.859,0,0,0-.222,1.471l-.3,17.485a.925.925,0,0,1-.69,1.032,2.506,2.506,0,0,0-.954.727.987.987,0,0,0-.037,1.13c.123.16.312.259.44.411.411.489.053,1.2-.222,1.763a3.831,3.831,0,0,0-.411,2.388,2.055,2.055,0,0,0,1.611,1.644c.325-1.048-.411-2.236,0-3.251a2.33,2.33,0,0,1,1.406-1.171,5.052,5.052,0,0,1,2.565-.279l.493,1.8c1.771,6.469.543,13.42-1.073,19.93-.374,1.521-.847,3.017-1.126,4.558a40.134,40.134,0,0,0-.411,7.028v6.428a2.749,2.749,0,0,0,.645,2.17c.6.506,1.693.469,2.141,1.167.259.411.21.941.444,1.36a1.8,1.8,0,0,0,.7.637,4.7,4.7,0,0,0,6.128-1.5,7.071,7.071,0,0,1,1.369-2.055,4.076,4.076,0,0,1,2.746-.526l5.6.267a11.586,11.586,0,0,1,2.844.374,21.97,21.97,0,0,1,2.417,1.044,12.45,12.45,0,0,0,5.66,1.028,3.288,3.288,0,0,0,1.529-.37c.534-.321.9-.9,1.492-1.122.662-.247,1.513,0,2.026-.481a1.837,1.837,0,0,0,.411-1.3l.234-5.5c.247-5.668.464-11.508-1.406-16.852-.456-1.3-1.032-2.565-1.381-3.9a38.577,38.577,0,0,1-.662-4.188c-.58-3.909-1.9-7.756-1.644-11.7,0-.3.263-.37.559-.411a3.648,3.648,0,0,1,2.926.822,4.017,4.017,0,0,1,.97,2.561,2.877,2.877,0,0,1-.353,1.924l1.545-1.134c.493-.362,1.044-.859.945-1.463-.292-1.8-.193-3.806-.411-5.61a81.951,81.951,0,0,0-1.476-9.108,23.933,23.933,0,0,1-.6-2.6c-.148-1.2-.066-2.413-.144-3.621a13.636,13.636,0,0,0-1.291-4.932,5.041,5.041,0,0,0-.822-1.307,5.73,5.73,0,0,0-1.595-1.1,32.855,32.855,0,0,0-8.068-2.931,2.012,2.012,0,0,0-1.644.136,1.773,1.773,0,0,0-.255,2.018,4.326,4.326,0,0,1,.534,2.088,4.076,4.076,0,0,1-1.233,1.858c-1.3,1.525-1.895,3.58-3.288,5.035C537.842,432.851,536.979,433.447,536.843,434.368Z" transform="translate(-335.526 -310.802)" fill="#ff6f61"/>
    <path id="Path_977" data-name="Path 977" d="M546.448,373.022c.711.592,1.307,1.414,2.211,1.607,2.178.46,3.88-3.062,5.976-2.31.765.275,1.233,1.036,1.821,1.57a3.6,3.6,0,0,0,4.932-.358c1.1-1.286,1.114-3.144,1.073-4.838a3.638,3.638,0,0,0-.366-1.817,2.926,2.926,0,0,0-.727-.764c-2.487-1.944-5.845-2.224-8.993-2.425a6.574,6.574,0,0,0-2.055.086,6.705,6.705,0,0,0-2.466,1.488c-1.414,1.176-4.854,3.411-5.286,5.306S545.051,371.863,546.448,373.022Z" transform="translate(-350.364 -277.056)" fill="#393859"/>
    <rect id="Rectangle_657" data-name="Rectangle 657" width="30.53" height="33.058" rx="2.61" transform="translate(186.241 121.285)" fill="#6c63ff"/>
    <rect id="Rectangle_658" data-name="Rectangle 658" width="25.269" height="19.996" rx="2.61" transform="translate(188.871 124.137)" fill="#fff"/>
    <path id="Path_978" data-name="Path 978" d="M561.231,472.085h0a2.385,2.385,0,0,0-.111-.6v-.029a2.273,2.273,0,0,0-3.847-.781,3.019,3.019,0,0,0-.181-.633,10.147,10.147,0,0,1-1.8.066,6.661,6.661,0,0,0,1.143.411v.053a7.431,7.431,0,0,1-1.274-.477l-.123-.062h.136a9.932,9.932,0,0,0,1.915-.053,3.172,3.172,0,0,0-.563-.9,9.655,9.655,0,0,1-3.009-.748l.025-.049a9.512,9.512,0,0,0,2.931.736,3.218,3.218,0,0,0-5.117.547,4.414,4.414,0,0,0-1.1-2.487,10.334,10.334,0,0,1-4.349.723,7.6,7.6,0,0,0,1.143.411v.049a7.426,7.426,0,0,1-1.274-.477l-.123-.058h.136a10.189,10.189,0,0,0,4.447-.707c-.053-.058-.107-.115-.164-.169a15.317,15.317,0,0,1-5.417-.617,4.439,4.439,0,0,0-2.1,3.777,10.411,10.411,0,0,0,.625,3.124,13.333,13.333,0,0,0,.625,1.5c.123.247.251.485.386.715h0a8.576,8.576,0,0,0,.538.822l.107.136a4.717,4.717,0,0,0,.674.695h0a1.863,1.863,0,0,0,.148.119,3.112,3.112,0,0,0,.432.271,2,2,0,0,0,.822.218h12.1a.666.666,0,0,0,.2-.033,2.781,2.781,0,0,0,1.147-1.525c.07-.169.14-.345.206-.53s.111-.325.164-.489c.156-.5.284-1.015.378-1.48a7.714,7.714,0,0,0,.177-1.377Z" transform="translate(-350.379 -337.483)" fill="#6c63ff" opacity="0.3"/>
    <path id="Path_979" data-name="Path 979" d="M553.046,465.9a4.406,4.406,0,0,0-5.306-.6A14.96,14.96,0,0,0,553.046,465.9Z" transform="translate(-353.435 -336.564)" fill="#6c63ff" opacity="0.3"/>
    <path id="Path_980" data-name="Path 980" d="M579.148,487.049l-1.858-3.214a.058.058,0,0,0-.1,0l-1.858,3.214a.062.062,0,0,0,.053.09h.555a.057.057,0,0,1,.058.057v.691a.058.058,0,0,0,.058.058h.723a.062.062,0,0,0,.062-.058v-.333a.062.062,0,0,1,.058-.062h.686a.062.062,0,0,1,.062.062v.333a.058.058,0,0,0,.058.058h.723a.053.053,0,0,0,.053-.041h0v-.691a.062.062,0,0,1,.062-.058h.551a.062.062,0,0,0,.057-.107Zm-2.589.358a.054.054,0,0,1-.041,0h-.263a.058.058,0,0,1-.058-.058.062.062,0,0,1,0-.041.057.057,0,0,1,.041-.021h.263a.062.062,0,0,1,.058.062.054.054,0,0,1,0,.058Zm1.706,0a.054.054,0,0,1-.041,0h-.263a.058.058,0,0,1-.058-.058.062.062,0,0,1,0-.041.058.058,0,0,1,.041-.021h.263a.062.062,0,0,1,.058.062A.053.053,0,0,1,578.264,487.406Z" transform="translate(-369.681 -347.827)" fill="#6c63ff" opacity="0.3"/>
    <path id="Path_981" data-name="Path 981" d="M551.576,487.148l-1.854-3.194a.058.058,0,0,0-.1,0L548,486.713a4.9,4.9,0,0,0,.674.69h.259a.062.062,0,0,1,.062.062.057.057,0,0,1-.021.041.062.062,0,0,1-.041,0h-.111a3.518,3.518,0,0,0,.432.267v-.119a.062.062,0,0,1,.058-.062H550a.062.062,0,0,1,.058.062v.329a.151.151,0,0,0,0,.025.07.07,0,0,0,.053.037h.723a.057.057,0,0,0,.049-.025.049.049,0,0,0,0-.037V487.3a.058.058,0,0,1,.058-.058h.555a.06.06,0,1,0,.078-.09Zm-1.233.271a.062.062,0,0,1,.041,0h.259a.062.062,0,0,1,.062.062.058.058,0,0,1-.021.041.062.062,0,0,1-.041,0h-.259a.062.062,0,0,1-.062-.058.066.066,0,0,1,.029-.045Zm-1.167-1.188a.062.062,0,0,1-.062-.062v-.448a.062.062,0,0,1,.062-.058h.97a.062.062,0,0,1,.062.058v.448a.062.062,0,0,1-.062.062Z" transform="translate(-353.588 -347.898)" fill="#6c63ff" opacity="0.3"/>
    <path id="Path_982" data-name="Path 982" d="M564.182,475.967H561.9v-.493a.119.119,0,0,0-.119-.119h-.7v-.53a.074.074,0,0,0-.074-.074h-.871a.074.074,0,0,0-.074.074v.53h-.793a.119.119,0,0,0-.119.119v.493h-2.178a.025.025,0,0,0-.025.025v6.6a.025.025,0,0,0,.025.021h1.455s.025,0,.025-.021V481.7a.025.025,0,0,1,.025-.025h.616a.025.025,0,0,1,.025.025v.888a.022.022,0,0,0,.025.021h2.877a.025.025,0,0,0,.025-.021v-.912h.617a.025.025,0,0,1,.025.025v.888a.025.025,0,0,0,.025.021h1.455a.025.025,0,0,0,.025-.021v-6.6A.025.025,0,0,0,564.182,475.967Zm-5.984,5.4a.025.025,0,0,1-.025.025h-.9a.025.025,0,0,1-.025-.025v-.308a.025.025,0,0,1,.025-.025h.9a.025.025,0,0,1,.025.025Zm0-.793a.025.025,0,0,1-.025.025h-.9a.025.025,0,0,1-.025-.025v-.308a.025.025,0,0,1,.025-.025h.9a.025.025,0,0,1,.025.025Zm0-.793a.025.025,0,0,1-.025.021h-.9a.025.025,0,0,1-.025-.021v-.308a.025.025,0,0,1,.025-.025h.9a.025.025,0,0,1,.025.025Zm0-.8a.025.025,0,0,1-.025.025h-.9a.025.025,0,0,1-.025-.025v-.3a.025.025,0,0,1,.025-.025h.9a.025.025,0,0,1,.025.025Zm0-.793a.025.025,0,0,1-.025.025h-.9a.025.025,0,0,1-.025-.025v-.3a.025.025,0,0,1,.025-.025h.9a.025.025,0,0,1,.025.025Zm0-.793a.025.025,0,0,1-.025.025h-.9a.025.025,0,0,1-.025-.025v-.308a.025.025,0,0,1,.025-.021h.9a.025.025,0,0,1,.025.021Zm0-.793a.025.025,0,0,1-.025.025h-.9a.025.025,0,0,1-.025-.025V476.3a.025.025,0,0,1,.025-.025h.9a.025.025,0,0,1,.025.025Zm2.133,4.764a.025.025,0,0,1-.025.025h-.9a.025.025,0,0,1-.025-.025v-.308a.025.025,0,0,1,.025-.025h.9a.025.025,0,0,1,.025.025Zm0-.793a.025.025,0,0,1-.025.025h-.9a.025.025,0,0,1-.025-.025v-.308a.025.025,0,0,1,.025-.025h.9a.025.025,0,0,1,.025.025Zm0-.793a.025.025,0,0,1-.025.021h-.9a.025.025,0,0,1-.025-.021v-.308a.025.025,0,0,1,.025-.025h.9a.025.025,0,0,1,.025.025Zm0-.8a.025.025,0,0,1-.025.025h-.9a.025.025,0,0,1-.025-.025v-.3a.025.025,0,0,1,.025-.025h.9a.025.025,0,0,1,.025.025Zm0-.793a.025.025,0,0,1-.025.025h-.9a.025.025,0,0,1-.025-.025v-.3a.025.025,0,0,1,.025-.025h.9a.025.025,0,0,1,.025.025Zm0-.793a.025.025,0,0,1-.025.025h-.9a.025.025,0,0,1-.025-.025v-.308a.025.025,0,0,1,.025-.021h.9a.025.025,0,0,1,.025.021Zm0-.793a.025.025,0,0,1-.025.025h-.9a.025.025,0,0,1-.025-.025V476.3a.025.025,0,0,1,.025-.025h.9a.025.025,0,0,1,.025.025Zm1.455,4.764a.025.025,0,0,1-.025.025h-.9a.025.025,0,0,1-.021-.025v-.308a.025.025,0,0,1,.021-.025h.9a.025.025,0,0,1,.025.025Zm0-.793a.025.025,0,0,1-.025.025h-.9a.025.025,0,0,1-.021-.025v-.308a.025.025,0,0,1,.021-.025h.9a.025.025,0,0,1,.025.025Zm0-.793a.022.022,0,0,1-.025.021h-.9l-.021-.021v-.308a.025.025,0,0,1,.021-.025h.9a.025.025,0,0,1,.025.025Zm0-.8a.021.021,0,0,1-.025.025h-.9a.022.022,0,0,1-.021-.025v-.3s0-.025.021-.025h.9a.02.02,0,0,1,.019.005.021.021,0,0,1,.005.019Zm0-.793a.021.021,0,0,1-.025.025h-.9a.022.022,0,0,1-.021-.025v-.3s0-.025.021-.025h.9a.02.02,0,0,1,.019.005.021.021,0,0,1,.005.019Zm0-.793a.025.025,0,0,1-.025.025h-.9a.025.025,0,0,1-.021-.025v-.308l.021-.021h.9s.025,0,.025.021Zm0-.793a.025.025,0,0,1-.025.025h-.9a.025.025,0,0,1-.021-.025V476.3a.025.025,0,0,1,.021-.025h.9a.025.025,0,0,1,.025.025Zm2.133,4.764a.025.025,0,0,1-.025.025h-.9a.025.025,0,0,1-.025-.025v-.308a.025.025,0,0,1,.025-.025h.9a.025.025,0,0,1,.025.025Zm0-.793a.025.025,0,0,1-.025.025h-.9a.025.025,0,0,1-.025-.025v-.308a.025.025,0,0,1,.025-.025h.9a.025.025,0,0,1,.025.025Zm0-.793a.025.025,0,0,1-.025.021h-.9a.025.025,0,0,1-.025-.021v-.308a.025.025,0,0,1,.025-.025h.9a.025.025,0,0,1,.025.025Zm0-.8a.025.025,0,0,1-.025.025h-.9a.025.025,0,0,1-.025-.025v-.3a.025.025,0,0,1,.025-.025h.9a.025.025,0,0,1,.025.025Zm0-.793a.025.025,0,0,1-.025.025h-.9a.025.025,0,0,1-.025-.025v-.3a.025.025,0,0,1,.025-.025h.9a.025.025,0,0,1,.025.025Zm0-.793a.025.025,0,0,1-.025.025h-.9a.025.025,0,0,1-.025-.025v-.308a.025.025,0,0,1,.025-.021h.9a.025.025,0,0,1,.025.021Zm0-.793a.025.025,0,0,1-.025.025h-.9a.025.025,0,0,1-.025-.025V476.3a.025.025,0,0,1,.025-.025h.9a.025.025,0,0,1,.025.025Z" transform="translate(-358.854 -342.495)" fill="#6c63ff" opacity="0.3"/>
    <path id="Path_983" data-name="Path 983" d="M556.431,472.347a.567.567,0,0,0-.3.033.411.411,0,0,1-.362,0,.506.506,0,0,0-.411,0,.251.251,0,0,1-.123.033c-.173,0-.317-.177-.345-.411a.317.317,0,0,0,.086-.095.45.45,0,0,1,.822,0,.333.333,0,0,0,.284.156h0A.358.358,0,0,1,556.431,472.347Z" transform="translate(-357.646 -340.663)" fill="#6c63ff" opacity="0.1"/>
    <path id="Path_984" data-name="Path 984" d="M556.953,470.748l-.275.177.168-.308a.288.288,0,0,0-.168-.058h-.062l-.095.058.037-.074a.324.324,0,0,1-.164-.123l-.169.107.107-.193a.493.493,0,0,0-.378-.193.526.526,0,0,0-.432.267.325.325,0,0,1-.284.156h0c-.193,0-.349.218-.349.489s.156.489.349.489a.3.3,0,0,0,.123-.029.493.493,0,0,1,.411,0,.46.46,0,0,0,.181.037.444.444,0,0,0,.181-.037.5.5,0,0,1,.411,0,.3.3,0,0,0,.123.029c.193,0,.349-.218.349-.489a.625.625,0,0,0-.066-.3Z" transform="translate(-357.647 -339.78)" fill="#6c63ff" opacity="0.1"/>
    <ellipse id="Ellipse_195" data-name="Ellipse 195" cx="2.528" cy="4.213" rx="2.528" ry="4.213" transform="translate(182.763 139.921)" fill="#a0616a"/>
    <ellipse id="Ellipse_196" data-name="Ellipse 196" cx="2.528" cy="4.213" rx="2.528" ry="4.213" transform="translate(216.035 137.812)" fill="#a0616a"/>
  </g>
</svg>
