<svg xmlns="http://www.w3.org/2000/svg" width="626.52" height="344.532" viewBox="0 0 626.52 344.532"><defs><style>.a{fill:none;stroke:#3f3d56;stroke-miterlimit:10;}.b{fill:#7159c1;}.c{fill:#57b894;}.d{fill:#f2f2f2;}.e{fill:#3f3d56;}.f{fill:#fbbebe;}.g,.j{opacity:0.1;}.h{fill:#55536e;}.i{fill:#4b4b5b;}</style></defs><g transform="translate(0.039)"><rect class="a" width="254.036" height="52.268" transform="translate(268.25 54.314)"/><path class="a" d="M250.224,357.457c7.244-11.32,20.96-18.957,36.687-18.957,23.28,0,42.152,16.733,42.152,37.375,0,13.2-7.715,24.8-19.363,31.447" transform="translate(-133.571 -228.897)"/><rect class="b" width="254.036" height="52.268" transform="translate(250.265 64.43)"/><circle class="b" cx="3.934" cy="3.934" r="3.934" transform="translate(85.743 6.682)"/><circle class="b" cx="3.934" cy="3.934" r="3.934" transform="translate(99.232 6.682)"/><circle class="b" cx="3.934" cy="3.934" r="3.934" transform="translate(112.72 6.682)"/><rect class="a" width="472.102" height="306.866" transform="translate(78.999 0.5)"/><line class="a" x2="472.102" transform="translate(78.999 17.549)"/><circle class="a" cx="3.934" cy="3.934" r="3.934" transform="translate(86.867 4.996)"/><circle class="a" cx="3.934" cy="3.934" r="3.934" transform="translate(100.356 4.996)"/><circle class="a" cx="3.934" cy="3.934" r="3.934" transform="translate(113.844 4.996)"/><path class="c" d="M61.969,330.3A12.151,12.151,0,1,0,47,312.365l4.551,4.3L45.7,314.848a12.1,12.1,0,0,0,.241,9.256,11.913,11.913,0,0,0,1.772,2.855A12.148,12.148,0,0,0,61.969,330.3Z" transform="translate(-43.644 -215.114)"/><path class="a" d="M132.12,357.652c-4.437-3.113-4.438-9.649-3.336-14.956s2.785-11.1.283-15.905c-3.6-6.91-13.047-7.326-20.8-8.064a73.153,73.153,0,0,1-16.888-3.661,19.736,19.736,0,0,1-6.179-3.1c-2.584-2.113-4.1-5.228-5.515-8.251q-7.072-15.1-13.426-30.53" transform="translate(-52.999 -200.288)"/><path class="a" d="M60.628,327.611a12.151,12.151,0,1,0-14.972-17.93l4.551,4.3-5.846-1.817a12.1,12.1,0,0,0,.241,9.257,11.914,11.914,0,0,0,1.772,2.855,12.148,12.148,0,0,0,14.255,3.335Z" transform="translate(-43.056 -213.939)"/><path class="c" d="M46.769,272.482a12.136,12.136,0,0,1,.972-11.615l4.839,3.6-2.987-5.789a12.149,12.149,0,1,1-2.825,13.808Z" transform="translate(-44.007 -192.507)"/><path class="a" d="M44.98,268.9a12.136,12.136,0,0,1,.972-11.615l4.839,3.6L47.8,255.1A12.149,12.149,0,1,1,44.98,268.9Z" transform="translate(-43.224 -190.94)"/><path class="c" d="M125.107,338.877a12.149,12.149,0,0,0-7.213-23.039l2.3,4.448-4.9-3.639-.03.013a12.15,12.15,0,0,0,9.843,22.217Z" transform="translate(-71.296 -218.875)"/><path class="a" d="M123.169,335.374a12.149,12.149,0,0,0-7.213-23.039l2.3,4.448-4.9-3.639-.03.013a12.15,12.15,0,1,0,9.843,22.217Z" transform="translate(-70.447 -217.341)"/><path class="c" d="M143.168,381.386a12.144,12.144,0,1,0-4.9-8.485l9.548,2.128-8.331,2A12.035,12.035,0,0,0,143.168,381.386Z" transform="translate(-84.506 -238.068)"/><path class="a" d="M141.826,378.7a12.144,12.144,0,1,0-4.9-8.485l9.548,2.128-8.331,2a12.037,12.037,0,0,0,3.683,4.353Z" transform="translate(-83.918 -236.893)"/><path class="c" d="M1079.775,585.1a11.7,11.7,0,1,0,4.686-21.994l-.554,6-2.1-5.508a11.653,11.653,0,0,0-6.869,5.682,11.462,11.462,0,0,0-1.11,3.039A11.7,11.7,0,0,0,1079.775,585.1Z" transform="translate(-494.176 -327.258)"/><path class="a" d="M1092.021,650.809c-.278-5.21,4.672-9.094,9.347-11.412s10.06-4.484,12.216-9.236c3.1-6.829-2.2-14.236-6.25-20.548a70.41,70.41,0,0,1-7.261-14.967,18.993,18.993,0,0,1-1.32-6.525c.065-3.212,1.525-6.212,2.974-9.079q7.239-14.33,15.149-28.309" transform="translate(-502.252 -321.849)"/><path class="a" d="M1081.015,582.494A11.7,11.7,0,1,0,1085.7,560.5l-.554,6-2.1-5.508a11.654,11.654,0,0,0-6.869,5.682,11.475,11.475,0,0,0-1.11,3.039,11.7,11.7,0,0,0,5.943,12.779Z" transform="translate(-494.719 -326.115)"/><path class="c" d="M1114.543,539.27a11.684,11.684,0,0,1,9.375-6.164l.152,5.8,2.61-5.7a11.7,11.7,0,1,1-12.138,6.064Z" transform="translate(-511.521 -314.129)"/><path class="a" d="M1116.193,535.789a11.683,11.683,0,0,1,9.375-6.164l.152,5.8,2.61-5.7a11.7,11.7,0,1,1-12.137,6.064Z" transform="translate(-512.244 -312.605)"/><path class="c" d="M1110.792,638.024a11.7,11.7,0,0,0,13.166-19.151l-2.006,4.382-.151-5.87-.028-.015a11.7,11.7,0,1,0-10.981,20.655Z" transform="translate(-507.759 -350.434)"/><path class="a" d="M1112.292,634.475a11.7,11.7,0,0,0,13.166-19.151l-2.006,4.382-.151-5.87-.028-.015a11.7,11.7,0,1,0-10.981,20.655Z" transform="translate(-508.416 -348.879)"/><path class="c" d="M1089.324,676.96a11.691,11.691,0,1,0,3.516-8.753l4.061,8.5-6.467-5.12A11.591,11.591,0,0,0,1089.324,676.96Z" transform="translate(-501.072 -371.842)"/><path class="a" d="M1090.564,674.349a11.691,11.691,0,1,0,3.516-8.753l4.061,8.5-6.467-5.12A11.587,11.587,0,0,0,1090.564,674.349Z" transform="translate(-501.616 -370.699)"/><path class="c" d="M144.969,244.3A12.151,12.151,0,1,0,130,226.365l4.551,4.3-5.847-1.817a12.1,12.1,0,0,0,.241,9.257,11.915,11.915,0,0,0,1.772,2.855A12.148,12.148,0,0,0,144.969,244.3Z" transform="translate(-79.996 -177.448)"/><path class="a" d="M168.2,225.961c-2.584-2.113-4.1-5.228-5.515-8.251q-7.072-15.1-13.426-30.53" transform="translate(-89.351 -162.623)"/><path class="a" d="M143.628,241.611a12.151,12.151,0,1,0-14.972-17.93l4.551,4.3-5.846-1.817a12.1,12.1,0,0,0,.241,9.257,11.914,11.914,0,0,0,1.772,2.855A12.148,12.148,0,0,0,143.628,241.611Z" transform="translate(-79.408 -176.273)"/><path class="c" d="M129.769,186.482a12.136,12.136,0,0,1,.972-11.615l4.839,3.6-2.987-5.789a12.149,12.149,0,1,1-2.825,13.808Z" transform="translate(-80.359 -154.841)"/><path class="a" d="M127.98,182.9a12.136,12.136,0,0,1,.972-11.615l4.839,3.6L130.8,169.1A12.149,12.149,0,1,1,127.98,182.9Z" transform="translate(-79.576 -153.274)"/><line class="a" y2="290.253" transform="translate(227.22 17.549)"/><rect class="d" width="82.618" height="11.241" transform="translate(280.334 160.256)"/><rect class="d" width="82.618" height="11.241" transform="translate(410.162 160.256)"/><rect class="a" width="82.618" height="11.241" transform="translate(284.83 154.636)"/><rect class="d" width="82.618" height="11.241" transform="translate(280.334 247.37)"/><rect class="a" width="82.618" height="11.241" transform="translate(284.83 241.75)"/><rect class="d" width="212.446" height="11.241" transform="translate(280.615 202.689)"/><rect class="a" width="212.446" height="11.241" transform="translate(285.111 198.193)"/><rect class="a" width="82.618" height="11.241" transform="translate(414.658 154.636)"/><path class="e" d="M974.038,355.68a11.55,11.55,0,0,0,.675,1.767,29.766,29.766,0,0,1,.367,22.406,43.43,43.43,0,0,1,6.045.356,12.794,12.794,0,0,0,5.973-.658,6.064,6.064,0,0,0,3.776-4.562c.368-2.814-1.68-5.268-3.477-7.4-1.832-2.176-3.6-4.577-4.144-7.415-.6-3.12.252-6.778-1.719-9.209a1.9,1.9,0,0,0-.655-.559,7.523,7.523,0,0,0-4.881.131C974.358,351.457,973.635,353.9,974.038,355.68Z" transform="translate(-450.535 -233.959)"/><path class="e" d="M1060.883,707.778a14.19,14.19,0,0,1-.662,2.758s-2.042,4.7-10.441,3.432c-5.487-.828-5.45-3.4-4.54-5.391a12.857,12.857,0,0,1,1.5-2.331c.816-1.1.735-5.312,1.022-9.151s2.02-4.038,2.02-4.038l.1,4.322c3.27-4.29,5.558.736,5.558.736s4.65.1,4.082-2.287c-.606-2.539-1.51-6.56-1.51-6.56s2.25,1.044,2.657,1.78-.081,10.583-.448,11.522a6.707,6.707,0,0,0,.532,4.209A1.6,1.6,0,0,1,1060.883,707.778Z" transform="translate(-481.568 -382.523)"/><path class="f" d="M1062.924,690.8a4.579,4.579,0,0,1-3.2,4.364,6.167,6.167,0,0,1-5.386-.821,3.161,3.161,0,0,1-1.331-2.964l.13-1.086.471-3.959.647-5.455s6.96-3.545,6.5-2.206c-.174.5.211,2.751.762,5.374.392,1.875.868,3.939,1.287,5.69A4.539,4.539,0,0,1,1062.924,690.8Z" transform="translate(-485.159 -377.753)"/><path class="g" d="M1052.26,697.647s6.026-7.079,10.96.643l-.828,4.947H1052.26Z" transform="translate(-484.842 -384.896)"/><path class="e" d="M1052.26,698.52s6.026-7.079,10.96.644l-.828,4.947H1052.26Z" transform="translate(-484.842 -385.278)"/><circle class="d" cx="0.613" cy="0.613" r="0.613" transform="translate(574.637 316.381)"/><circle class="d" cx="0.613" cy="0.613" r="0.613" transform="translate(566.803 315.399)"/><circle class="d" cx="0.613" cy="0.613" r="0.613" transform="translate(572.524 320.535)"/><circle class="d" cx="0.613" cy="0.613" r="0.613" transform="translate(567.173 319.815)"/><circle class="d" cx="0.613" cy="0.613" r="0.613" transform="translate(573.71 318.589)"/><circle class="d" cx="0.613" cy="0.613" r="0.613" transform="translate(566.803 317.607)"/><circle class="d" cx="0.613" cy="0.613" r="0.613" transform="translate(571.911 322.814)"/><circle class="d" cx="0.613" cy="0.613" r="0.613" transform="translate(567.173 322.023)"/><path class="f" d="M971.285,723.66l-8.335,2.819s-4.413-4.413-3.187-5.761c.522-.576.978-2.488,1.326-4.494.113-.632.213-1.277.3-1.89.289-1.993.456-3.667.456-3.667s9.683-4.658,8.09,0a11.471,11.471,0,0,0-.458,4.074A27.027,27.027,0,0,0,970,718.82,38.843,38.843,0,0,0,971.285,723.66Z" transform="translate(-444.237 -390.989)"/><path class="g" d="M971.285,729.6l-8.335,2.819s-4.413-4.413-3.187-5.761c.522-.576.978-2.488,1.326-4.494a8.714,8.714,0,0,1,.973,2.716c7.2,3.954,7.323,1.594,7.323,1.594a4.376,4.376,0,0,1,.61-1.714A38.826,38.826,0,0,0,971.285,729.6Z" transform="translate(-444.237 -396.933)"/><path class="e" d="M961.75,735.681s-1.442,1.071-5.668,1.226a22.278,22.278,0,0,0-3.3.371,41.193,41.193,0,0,1-13.521.365,29.327,29.327,0,0,1-3.439-.675c-4.351-1.2-1.042-3.952-1.042-3.952s.208-.181.569-.454a11.88,11.88,0,0,1,4.8-2.275c2.726-.429,5.239-5.271,5.239-5.271l1.716-3.1c2.665-2.3,3.587,3.1,3.587,3.1,7.2,3.954,7.323,1.594,7.323,1.594.4-2.116,1.135-2.116,1.135-2.116s1.794,4.832,2.444,6.038a1.187,1.187,0,0,0,.159.245C962.179,731.207,961.75,735.681,961.75,735.681Z" transform="translate(-432.863 -396.576)"/><circle class="d" cx="0.613" cy="0.613" r="0.613" transform="translate(517.181 329.851)"/><circle class="d" cx="0.613" cy="0.613" r="0.613" transform="translate(513.671 331.567)"/><circle class="d" cx="0.613" cy="0.613" r="0.613" transform="translate(515.558 330.688)"/><circle class="d" cx="0.613" cy="0.613" r="0.613" transform="translate(511.696 332.578)"/><path class="g" d="M971.373,710.667a11.475,11.475,0,0,0-.458,4.074c-2.174-.73-5.736-.6-8.087-.407.289-1.993.456-3.667.456-3.667S972.967,706.009,971.373,710.667Z" transform="translate(-445.673 -390.989)"/><path class="g" d="M1061.989,684.049c-3.013,2.954-5.894,3.138-7.906,2.287l.647-5.455s6.96-3.545,6.5-2.206C1061.056,679.176,1061.438,681.426,1061.989,684.049Z" transform="translate(-485.641 -377.753)"/><path class="e" d="M964.314,509.451s-4.781,2.7-5.639,7.967-2.329,12.012-3.432,13.238-4.535,5.148-3.187,7.232,1.594,9.193,1.594,9.193-.49,6.374.858,8.458,2.452,15.322-.49,19.244c0,0-.981,9.07-.613,9.929s-1.594,3.064-.981,4.9,3.555,35.669,3.187,37.018c0,0,9.316-1.348,11.767.858a24.146,24.146,0,0,0,0-6.251c-.49-2.574.368-12.748,1.471-15.322s1.348-12.38.981-13.361c0,0,1.961-8.7,1.226-10.419s3.187-17.528,3.187-17.528,1.961-3.8,1.471-4.29c0,0,3.187-2.084,2.819-3.677s2.942-3.432,2.942-3.432,2.942,7.232,3.922,8.335,1.019,8.213,2.226,9.683,2.8,9.193,4.394,11.277,7.967,7.6,8.948,13.851c0,0,5.761,8.948,5.516,11.767s6.5,7.967,12.993-1.593a8.494,8.494,0,0,1-3.432-6.987c0-4.78-5.148-20.1-5.148-20.1s-2.942-4.29-1.839-6.374.123-8.212.123-8.212l2.329-3.8s.368-3.677.735-7.477-2.206-7.967-.981-9.806-.49-11.025-.49-11.025-1.525-15.835-3.8-16.8S964.314,509.451,964.314,509.451Z" transform="translate(-440.82 -303.769)"/><path class="f" d="M980.959,440.174s-2.518.287-5.575.576c-4.422.417-9.975.838-10.637.4-1.118-.735,0-10.051,0-10.051s.385-10.174.017-17.283c-.3-5.768,3.52-10,4.969-11.4.338-.324.547-.493.547-.493l1.226.981,6.987,11.89Z" transform="translate(-446.297 -256.678)"/><path class="f" d="M1021.3,384.759l-6.864,4.168-11.277,8.58s-11.645-6.129-8.7-9.683a5.511,5.511,0,0,0,1.076-2.4c.885-4.094-1.076-9.975-1.076-9.975s15.341-20.718,14.464-4.658c-.353,6.452,1.576,9.975,4.011,11.882A11.917,11.917,0,0,0,1021.3,384.759Z" transform="translate(-459.317 -240.364)"/><path class="g" d="M1021.3,384.759l-6.864,4.168-11.277,8.58s-11.645-6.129-8.7-9.683a5.511,5.511,0,0,0,1.076-2.4c.885-4.094-1.076-9.975-1.076-9.975s15.341-20.718,14.464-4.658c-.353,6.452,1.576,9.975,4.011,11.882A11.917,11.917,0,0,0,1021.3,384.759Z" transform="translate(-459.317 -240.364)"/><ellipse class="g" cx="14.196" cy="15.04" rx="14.196" ry="15.04" transform="translate(526.726 110.932)"/><ellipse class="f" cx="14.196" cy="15.04" rx="14.196" ry="15.04" transform="translate(526.726 110.441)"/><path class="g" d="M1021.3,398.774l-6.864,4.168-11.277,8.58s-11.645-6.129-8.7-9.683a5.51,5.51,0,0,0,1.076-2.4c12.846,10.983,16.749-.385,17.4-2.751A11.917,11.917,0,0,0,1021.3,398.774Z" transform="translate(-459.317 -254.38)"/><path class="g" d="M984.959,440.174s-2.518.287-5.575.576c-.12-2.638-.52-5.621-.446-7.44.123-3.064.123-3.432-.858-5.148s-.858-3.064-.735-5.271c.118-2.113-.441-2.54-2.429-5.915l-.267-.458c-.976-1.682-1.255-4.724-1.265-7.6a.068.068,0,0,0,0-.032c0-.684.01-1.358.034-2,0-.027,0-.054,0-.081.071-1.942.23-3.6.314-4.383.338-.324.547-.493.547-.493l1.226.981,6.987,11.89Z" transform="translate(-450.296 -256.678)"/><path class="h" d="M1018.932,400.184c-.01,0,1.48,1.122,1.471,1.119-4.437-1.915-6.955,7.729-7.629,10.765-.125.559-.186.892-.186.892s.079.814.177,2.108c.331,4.334.9,14.04-.422,16.4a3.661,3.661,0,0,0-.316.787,16.577,16.577,0,0,0-.152,5.683,56.9,56.9,0,0,0,1.081,6.4s2.942,7.477,1.716,12.38a18.18,18.18,0,0,0-.358,5.56,32.888,32.888,0,0,0,.777,5.072c.115.488.194.767.194.767q-2.773.949-5.42,1.574a52.574,52.574,0,0,1-10.483,1.419,46.539,46.539,0,0,1-30.217-9.581c-.206-.172-.36-.306-.458-.4-1.716-1.593,1.593-2.819,1.226-3.922s1.677-3.555,1.677-3.555-.451-4.045,1.388-4.9,3.187-3.8,4.224-6.251-.179-8.825-.056-11.89.122-3.432-.858-5.148-.858-3.064-.736-5.271c.118-2.113-.441-2.54-2.429-5.916l-.267-.458c-.976-1.682.545-4.579.535-7.452,0-.01.564.01.562,0,0-.684-1.149-1.606-1.124-2.248,0-.027-.562-.535-.562-.562a18.212,18.212,0,0,0-.269-4.324c9.806-5.026,12.135.211,12.135.211,14.341,12.343,17.6-3.082,17.6-3.082,7.806-2.667,18.072,4.518,18.658,4.935Z" transform="translate(-448.03 -253.979)"/><path class="f" d="M964.678,466.945s-1.227,6.546,2.321,10.2a3.99,3.99,0,0,0,4.616.793,6.253,6.253,0,0,0,2.991-2.542C975.581,473.221,972.523,462.594,964.678,466.945Z" transform="translate(-446.394 -284.699)"/><path class="g" d="M1046.483,446.508a3.646,3.646,0,0,0-.316.787l.561-14.331.177-2.856C1047.236,434.442,1047.8,444.148,1046.483,446.508Z" transform="translate(-482.174 -269.019)"/><path class="g" d="M1035.612,489.581a18.186,18.186,0,0,0-.358,5.56c-.794,1.439-1.473,2.66-1.915,3.454-.345.618-.547.976-.547.976a23.16,23.16,0,0,0-1.988,2.983,5.77,5.77,0,0,0-.831,2.425c0,1.885-1.9,14.449-10.909,11.323-5.817-2.018-2.1-8.2,1.258-12.329a46.178,46.178,0,0,1,3.584-3.913s1.039-1.324,2.037-2.709a16.449,16.449,0,0,0,1.763-2.807c.429-1.226,3.258-6.619,3.258-6.619s2.809-5.945,2.2-8.7a53.051,53.051,0,0,1-.345-8.423,56.92,56.92,0,0,0,1.081,6.4S1036.837,484.678,1035.612,489.581Z" transform="translate(-468.97 -286.841)"/><path class="f" d="M1041.178,405.534s4.413,3.064,4.29,11.032-1.593,21.757-1.593,21.757l-.919,8.58s-1.164,3.493-.981,4.535-9.626,18.509-9.626,18.509-2.819,3.525-2.819,5.409-1.9,14.448-10.909,11.322,4.842-16.241,4.842-16.241,3.371-4.29,3.8-5.516,3.26-6.619,3.26-6.619,2.808-5.945,2.2-8.7-.245-12.771-.245-12.771l.613-15.666.245-3.984S1035.6,403.941,1041.178,405.534Z" transform="translate(-468.776 -258.198)"/><path class="b" d="M977.034,455.632l6.689-2.43a3.166,3.166,0,0,1,3.255.674l8.877,8.384s.49,1.346-.163,1.286-10.215-9.621-10.215-9.621L976,457.112h0a1.575,1.575,0,0,1,1.037-1.48Z" transform="translate(-451.441 -279.05)"/><path class="i" d="M943.441,323.714l9.193-3.331-10.214-9.621-9.479,3.187Z" transform="translate(-408.385 -135.887)"/><circle class="d" cx="0.817" cy="0.817" r="0.817" transform="translate(520.429 213.731)"/><circle class="d" cx="0.817" cy="0.817" r="0.817" transform="translate(514.872 224.231)"/><circle class="d" cx="0.817" cy="0.817" r="0.817" transform="translate(559.262 228.049)"/><circle class="d" cx="0.817" cy="0.817" r="0.817" transform="translate(563.884 242.882)"/><circle class="d" cx="0.817" cy="0.817" r="0.817" transform="translate(562.085 238.707)"/><circle class="d" cx="0.817" cy="0.817" r="0.817" transform="translate(560.521 233.378)"/><circle class="d" cx="0.817" cy="0.817" r="0.817" transform="translate(517.466 218.702)"/><circle class="d" cx="0.817" cy="0.817" r="0.817" transform="translate(511.631 229.683)"/><path class="b" d="M1023.053,401.3l0,.007c-4.437-1.915-6.955,7.73-7.629,10.765l-6.97-9.975s-2.858,4.574-12.093,5.271-11.48-7.029-11.48-7.029c-1.268-.1-7.006,10.233-9.09,13.942l-.267-.458c-.976-1.682-1.255-4.724-1.265-7.6a.072.072,0,0,0,0-.032c.007-.667.02-1.336.034-2,0-.027,0-.054,0-.081.1-2.721.37-4.876.37-4.876,9.806-5.026,12.135.211,12.135.211,14.341,12.343,17.6-3.081,17.6-3.081C1012.2,393.694,1022.469,400.88,1023.053,401.3Z" transform="translate(-450.679 -253.979)"/><path class="g" d="M964.293,565.065c.123.306,10.419,12.2,14.219,12.809S964.293,565.065,964.293,565.065Z" transform="translate(-446.315 -328.126)"/><path class="g" d="M974.916,532.617s.1,8.383-2.469,10.276S974.916,532.617,974.916,532.617Z" transform="translate(-449.566 -313.915)"/><path class="g" d="M985.172,537.913s-.245,9.867,3.432,12.2C988.6,550.109,981.863,543.551,985.172,537.913Z" transform="translate(-455.059 -316.234)"/><path class="g" d="M970.809,628.095s-6.864,5.087-8.764,5.455S970.809,628.095,970.809,628.095Z" transform="translate(-445.231 -355.732)"/><path class="g" d="M974.083,338.114c-1.479,1.246-.946,3.833.565,5.04s3.577,1.392,5.51,1.442c3.721.1,7.5-.12,11.111.8a9.007,9.007,0,0,1,4.262,2.183,9.591,9.591,0,0,1,2.215,4.406,24.132,24.132,0,0,1,.758,7.387,25.617,25.617,0,0,0-.11,5.009,16.015,16.015,0,0,0,1.563,4.457,185.167,185.167,0,0,0,9.469,17.566,3.27,3.27,0,0,0,1.234,1.35,3.337,3.337,0,0,0,2.81-.436,21.1,21.1,0,0,1-.867-5.323,2.379,2.379,0,0,0,2.515-.879,6.979,6.979,0,0,0,1.146-2.576l1.649-5.683c.51-1.757,1.266-3.774,3.022-4.292a10.933,10.933,0,0,0,1.854-.432,2.373,2.373,0,0,0,1.145-2.338,5.05,5.05,0,0,0-1.107-2.5c-2.481-3.339-6.619-5.319-8.556-9-1.663-3.161-1.375-6.966-.826-10.5s1.312-7.159.468-10.63a14.083,14.083,0,0,0-5.466-7.83,22.048,22.048,0,0,0-8.94-3.676,8.925,8.925,0,0,0-4.519.031c-1.115.377-2.069,1.12-3.157,1.568-2.471,1.017-5.32.41-7.913,1.057a10.641,10.641,0,0,0-5.853,4.229A22.445,22.445,0,0,0,975,335.218c-.477,1.559.288,2.182-1.1,3.03" transform="translate(-450.22 -221.404)"/><path class="e" d="M974.519,337.242c-1.479,1.246-.946,3.833.565,5.04s3.577,1.392,5.51,1.442c3.721.1,7.5-.12,11.111.8a9.009,9.009,0,0,1,4.262,2.183,9.592,9.592,0,0,1,2.215,4.406,24.136,24.136,0,0,1,.758,7.387,25.613,25.613,0,0,0-.11,5.01,16.017,16.017,0,0,0,1.563,4.457,185.179,185.179,0,0,0,9.469,17.566,3.27,3.27,0,0,0,1.234,1.35,3.337,3.337,0,0,0,2.81-.436,21.092,21.092,0,0,1-.867-5.323,2.379,2.379,0,0,0,2.515-.879,6.982,6.982,0,0,0,1.146-2.576l1.649-5.683c.51-1.757,1.266-3.774,3.022-4.292a10.944,10.944,0,0,0,1.853-.432,2.373,2.373,0,0,0,1.145-2.338,5.049,5.049,0,0,0-1.107-2.5c-2.481-3.339-6.619-5.318-8.556-9-1.663-3.161-1.375-6.965-.826-10.5s1.312-7.159.468-10.63a14.084,14.084,0,0,0-5.466-7.83,22.048,22.048,0,0,0-8.94-3.676,8.926,8.926,0,0,0-4.519.031c-1.114.377-2.069,1.12-3.157,1.568-2.471,1.018-5.32.41-7.913,1.057a10.641,10.641,0,0,0-5.853,4.229,22.448,22.448,0,0,0-3.065,6.666c-.478,1.559.288,2.182-1.1,3.029" transform="translate(-450.411 -221.022)"/><path class="f" d="M972.471,465.695s11.216-7.477,14.4-2.88-9.867,10.235-9.867,10.235Z" transform="translate(-449.897 -282.689)"/><path class="e" d="M978.541,400.181c-.041.721-.179,1.6-.581,1.735,1.047-.025,2.078.745,3.117.515a3.177,3.177,0,0,0,1.967-2.029.944.944,0,0,1,.263-.433c.109-.064.227,0,.336.064a32.716,32.716,0,0,1,5.642,4.259c.575.535,1.212,1.115,1.842.835a14.066,14.066,0,0,0-1.2-5.9,7.537,7.537,0,0,0-3.213-3.515,9.84,9.84,0,0,0-3.778-.983,3.787,3.787,0,0,1-1.629-.405c-.557-.327-2.336-2.453-2.735-.905a16.988,16.988,0,0,0,.062,3.166C978.639,397.787,978.609,398.987,978.541,400.181Z" transform="translate(-452.301 -252.706)"/><g class="j" transform="translate(523.304 105.541)"><path d="M1012.2,398.51a3.269,3.269,0,0,1-1.234-1.35,185.131,185.131,0,0,1-9.469-17.566,16.014,16.014,0,0,1-1.563-4.457,25.623,25.623,0,0,1,.11-5.01,24.132,24.132,0,0,0-.758-7.387,9.593,9.593,0,0,0-2.215-4.406,9.008,9.008,0,0,0-4.262-2.183c-3.608-.915-7.39-.7-11.111-.8-1.933-.05-4-.235-5.51-1.442a3.807,3.807,0,0,1-1.259-4.038,2.432,2.432,0,0,1-.313.25c-1.443,1.255-.909,3.815.592,5.014s3.577,1.392,5.51,1.442c3.721.1,7.5-.12,11.111.8a9.007,9.007,0,0,1,4.262,2.183,9.591,9.591,0,0,1,2.215,4.406,24.128,24.128,0,0,1,.758,7.387,25.627,25.627,0,0,0-.109,5.009,16.017,16.017,0,0,0,1.563,4.456,185.147,185.147,0,0,0,9.469,17.566,3.27,3.27,0,0,0,1.234,1.35,3.337,3.337,0,0,0,2.81-.436c-.073-.246-.141-.495-.206-.744a2.239,2.239,0,0,1-1.624-.047Z" transform="translate(-973.77 -339.42)"/><path d="M974.989,350.407c.059-.036.109-.071.161-.107.01-.008.017-.018.027-.026Z" transform="translate(-974.304 -339.595)"/><path d="M976.8,340.752c-.052.035-.1.071-.161.107l.188-.133c-.01.008-.017.018-.027.026,1.163-.8.485-1.431.943-2.923a22.678,22.678,0,0,1,2.991-6.557,12.991,12.991,0,0,0-.907,1.117,22.456,22.456,0,0,0-3.065,6.666,10.451,10.451,0,0,0-.24,1.987A2.364,2.364,0,0,1,976.8,340.752Z" transform="translate(-974.977 -331.272)"/><path d="M1060.688,401.485a10.95,10.95,0,0,1-1.854.432,3.574,3.574,0,0,0-2.05,1.81,2.942,2.942,0,0,1,1.07-.585,10.957,10.957,0,0,0,1.854-.432,2.091,2.091,0,0,0,1.016-1.246Z" transform="translate(-1010.128 -362.015)"/><path d="M1045.61,425.843q.021.637.082,1.273a2.761,2.761,0,0,0,1.453-.926,4.09,4.09,0,0,0,.487-.758A2.185,2.185,0,0,1,1045.61,425.843Z" transform="translate(-1005.234 -372.512)"/></g><path class="g" d="M967.644,465.752s2.958-1.2,4.695-.931" transform="translate(-447.783 -284.205)"/><path class="g" d="M982.816,490.477s1.5,2.329,9.09,3.31S982.816,490.477,982.816,490.477Z" transform="translate(-454.428 -295.459)"/><path class="g" d="M977.96,505.962s6.826,6.006,17.775,3.8S977.96,505.962,977.96,505.962Z" transform="translate(-452.301 -302.241)"/><line class="a" y1="17.423" x2="112.404" transform="translate(495.028 326.615)"/><path class="b" d="M224.367,390.084c0,14.687,9.649,27.378,23.641,33.393L228,374.984A33.377,33.377,0,0,0,224.367,390.084Zm70.264-1.872a17.989,17.989,0,0,0-3.459-10.233c-2.126-3.056-4.119-5.644-4.119-8.7a6.825,6.825,0,0,1,7.043-6.586c.186,0,.362.021.544.03a44.946,44.946,0,0,0-28.327-9.74c-14.654,0-27.547,6.651-35.047,16.724.984.026,1.912.044,2.7.044,4.387,0,11.179-.471,11.179-.471a1.542,1.542,0,1,1,.27,3.056s-2.273.236-4.8.354l15.275,40.189,9.18-24.352-6.536-15.838c-2.259-.117-4.4-.354-4.4-.354a1.542,1.542,0,1,1,.265-3.056s6.927.471,11.049.471c4.387,0,11.179-.471,11.179-.471a1.542,1.542,0,1,1,.269,3.056s-2.277.237-4.8.354l15.159,39.885,4.183-12.367c1.814-5.132,3.194-8.818,3.194-11.994Z" transform="translate(-122.247 -235.239)"/><path class="b" d="M290.5,408.372l-12.585,32.348a47.18,47.18,0,0,0,25.779-.591,3.032,3.032,0,0,1-.3-.511Zm36.07-21.047a25.238,25.238,0,0,1,.283,3.815,31.558,31.558,0,0,1-3.189,13.29L310.854,437.2c12.471-6.432,20.858-18.383,20.858-32.071A33.6,33.6,0,0,0,326.574,387.325Z" transform="translate(-145.701 -250.281)"/></g></svg>